SplineFontDB: 3.2
FontName: Samaano-Thin
FullName: Samaano Thin
FamilyName: Samaano
Weight: Thin
Copyright: Copyright 2024 The Samaano Project Authors (https://github.com/mitradranirban/samaano-fonts)
UComments: "2024-8-27: Created with FontForge (http://fontforge.org)"
Version: 1.0
ItalicAngle: 0
UnderlinePosition: 0
UnderlineWidth: 102
Ascent: 1638
Descent: 410
InvalidEm: 0
UFOAscent: 1638
UFODescent: -410
LayerCount: 2
Layer: 0 0 "Back" 1
Layer: 1 0 "public.default" 0 "glyphs"
StyleMap: 0x0000
FSType: 256
OS2Version: 0
OS2_WeightWidthSlopeOnly: 0
OS2_UseTypoMetrics: 0
CreationTime: 1729151289
ModificationTime: 1729154027
PfmFamily: 16
TTFWeight: 100
TTFWidth: 5
LineGap: 0
VLineGap: 0
Panose: 2 7 2 9 2 2 2 2 4 4
OS2TypoAscent: 2457
OS2TypoAOffset: 0
OS2TypoDescent: -615
OS2TypoDOffset: 0
OS2TypoLinegap: 0
OS2WinAscent: 2476
OS2WinAOffset: 0
OS2WinDescent: 958
OS2WinDOffset: 0
HheadAscent: 2457
HheadAOffset: 0
HheadDescent: -615
HheadDOffset: 0
OS2CapHeight: 1548
OS2XHeight: 1023
OS2FamilyClass: 1031
OS2Vendor: 'anir'
MarkAttachClasses: 1
DEI: 91125
LangName: 1033 "Copyright 2024 The Samaano Project Authors (https://github.com/mitradranirban/samaano-fonts)" "" "" "" "" "Version 1.000" "" "" "Dr Anirban Mitra" "Dr Anirban Mitra" "A Monospace Variable Font Family in Latin and Devanagari created using mostly rectangular components" "https://fonts.atipra.in" "https://github.com/mitradranirban" "Copyright 2024 The Samaano Project Authors (https://github.com/mitradranirban/samaano-fonts)+AAoA +AAoA-This Font Software is licensed under the SIL Open Font License, Version 1.1.+AAoA-This license is available with a FAQ at: http://scripts.sil.org/OFL+AAoACgAA" "http://scripts.sil.org/OFL"
PickledDataWithLists: "(dp0
Vorg.unifiedfontobject.normalizer.modTimes
p1
Vversion: 0.6.1\\u000a1729145354.8 fontinfo.plist\\u000a1729145354.8 layercontents.plist\\u000a1729145354.8 metainfo.plist
p2
sVpublic.glyphOrder
p3
(lp4
V.notdef
p5
aVspace
p6
aVexclam
p7
aVquotedbl
p8
aVnumbersign

StartChar: .notdef
Encoding: 0 0 0
GlifName: _notdef
Width: 1024
VWidth: 0
Flags: W
LayerCount: 2
Fore
SplineSet
22 -100 m 257
 1020 -100 l 257
 1020 1540 l 257
 22 1540 l 257
 22 -100 l 257
96 -20 m 257
 96 1462 l 257
 489 743 l 257
 96 -20 l 257
188 -20 m 257
 527 666 l 257
 868 -20 l 257
 188 -20 l 257
216 1474 m 257
 847 1474 l 257
 529 825 l 257
 216 1474 l 257
567 748 m 257
 943 1475 l 257
 943 -20 l 257
 567 748 l 257
EndSplineSet
EndChar

StartChar: A
Encoding: 65 65 1
GlifName: A_
Width: 1024
VWidth: 0
Flags: W
LayerCount: 2
Fore
SplineSet
102 16 m 257
 161 16 l 257
 161 1553 l 257
 102 1553 l 257
 102 16 l 257
161 1492 m 257
 878 1492 l 257
 878 1553 l 257
 161 1553 l 257
 161 1492 l 257
155 970 m 257
 155 911 l 257
 878 911 l 257
 878 970 l 257
 155 970 l 257
862 5 m 257
 922 5 l 257
 922 1553 l 257
 862 1553 l 257
 862 5 l 257
EndSplineSet
EndChar

StartChar: AE
Encoding: 198 198 2
GlifName: A_E_
Width: 1024
VWidth: 0
Flags: W
LayerCount: 2
Fore
SplineSet
528 62 m 257
 528 0 l 257
 948 0 l 257
 948 62 l 257
 528 62 l 257
76 0 m 257
 138 0 l 257
 138 1550 l 257
 76 1550 l 257
 76 0 l 257
120 1489 m 257
 926 1489 l 257
 926 1550 l 257
 120 1550 l 257
 120 1489 l 257
124 1023 m 257
 124 964 l 257
 874 964 l 257
 874 1023 l 257
 124 1023 l 257
502 0 m 257
 562 0 l 257
 562 1550 l 257
 502 1550 l 257
 502 0 l 257
EndSplineSet
EndChar

StartChar: B
Encoding: 66 66 14
GlifName: B_
Width: 1024
VWidth: 0
Flags: W
LayerCount: 2
Fore
SplineSet
27 0 m 257
 84 0 l 257
 84 1553 l 257
 27 1553 l 257
 27 0 l 257
123 1494 m 257
 962 1023 l 257
 962 1081 l 257
 123 1550 l 257
 123 1494 l 257
146 811 m 257
 962 1023 l 257
 962 1079 l 257
 146 870 l 257
 146 811 l 257
128 62 m 257
 128 0 l 257
 996 434 l 257
 996 500 l 257
 128 62 l 257
141 746 m 257
 997 430 l 257
 997 501 l 257
 141 808 l 257
 141 746 l 257
81 870 m 257
 81 811 l 257
 146 811 l 257
 146 870 l 257
 81 870 l 257
81 808 m 257
 81 748 l 257
 141 748 l 257
 141 808 l 257
 81 808 l 257
68 62 m 257
 68 0 l 257
 128 0 l 257
 128 62 l 257
 68 62 l 257
63 1553 m 257
 63 1494 l 257
 123 1494 l 257
 123 1553 l 257
 63 1553 l 257
EndSplineSet
EndChar

StartChar: C
Encoding: 67 67 15
GlifName: C_
Width: 1024
VWidth: 0
Flags: W
LayerCount: 2
Fore
SplineSet
71 1553 m 257
 71 0 l 257
 131 0 l 257
 131 1553 l 257
 71 1553 l 257
100 1553 m 257
 100 1495 l 257
 953 1495 l 257
 953 1553 l 257
 100 1553 l 257
105 58 m 257
 105 0 l 257
 951 0 l 257
 951 58 l 257
 105 58 l 257
EndSplineSet
EndChar

StartChar: D
Encoding: 68 68 21
GlifName: D_
Width: 1024
VWidth: 0
Flags: W
LayerCount: 2
Fore
SplineSet
96 1553 m 257
 96 0 l 257
 156 0 l 257
 156 1553 l 257
 96 1553 l 257
236 1550 m 257
 236 1493 l 257
 926 961 l 257
 926 1023 l 257
 236 1550 l 257
236 58 m 257
 236 0 l 257
 928 960 l 257
 928 1023 l 257
 236 58 l 257
156 1553 m 257
 156 1493 l 257
 236 1493 l 257
 236 1553 l 257
 156 1553 l 257
158 58 m 257
 158 0 l 257
 236 0 l 257
 236 58 l 257
 158 58 l 257
EndSplineSet
EndChar

StartChar: Dcroat
Encoding: 272 272 23
GlifName: D_croat
Width: 1024
VWidth: 0
Flags: W
LayerCount: 2
Fore
SplineSet
56 935 m 257
 56 876 l 257
 532 876 l 257
 532 935 l 257
 56 935 l 257
162 1550 m 257
 162 0 l 257
 224 0 l 257
 224 1550 l 257
 162 1550 l 257
488 1550 m 257
 488 1488 l 257
 968 906 l 257
 968 1023 l 257
 488 1550 l 257
496 61 m 257
 496 0 l 257
 968 915 l 257
 968 1023 l 257
 496 61 l 257
208 1550 m 257
 208 1488 l 257
 488 1488 l 257
 488 1550 l 257
 208 1550 l 257
204 61 m 257
 204 0 l 257
 496 0 l 257
 496 61 l 257
 204 61 l 257
EndSplineSet
EndChar

StartChar: E
Encoding: 69 69 24
GlifName: E_
Width: 1024
VWidth: 0
Flags: W
LayerCount: 2
Fore
SplineSet
106 1550 m 257
 106 0 l 257
 165 0 l 257
 165 1550 l 257
 106 1550 l 257
142 1553 m 257
 149 1490 l 257
 903 1490 l 257
 903 1553 l 257
 142 1553 l 257
149 60 m 257
 149 0 l 257
 918 0 l 257
 918 60 l 257
 149 60 l 257
148 859 m 257
 148 798 l 257
 672 798 l 257
 672 859 l 257
 148 859 l 257
EndSplineSet
EndChar

StartChar: Eng
Encoding: 330 330 33
GlifName: E_ng
Width: 1024
VWidth: 0
Flags: W
LayerCount: 2
Fore
SplineSet
524 -211 m 257
 524 -408 l 257
 911 -408 l 257
 911 -211 l 257
 524 -211 l 257
112 1490 m 257
 112 0 l 257
 313 0 l 257
 313 1490 l 257
 112 1490 l 257
711 1476 m 257
 711 -408 l 257
 912 -408 l 257
 912 1476 l 257
 711 1476 l 257
112 1550 m 257
 112 1353 l 257
 911 1353 l 257
 911 1550 l 257
 112 1550 l 257
EndSplineSet
EndChar

StartChar: Eth
Encoding: 208 208 35
GlifName: E_th
Width: 1024
VWidth: 0
Flags: W
LayerCount: 2
Fore
SplineSet
55 935 m 257
 55 873 l 257
 362 873 l 257
 362 935 l 257
 55 935 l 257
162 1553 m 257
 162 0 l 257
 223 0 l 257
 223 1553 l 257
 162 1553 l 257
488 1553 m 257
 488 1484 l 257
 969 964 l 257
 969 1023 l 257
 488 1553 l 257
496 60 m 257
 496 0 l 257
 969 964 l 257
 969 1023 l 257
 496 60 l 257
202 1553 m 257
 202 1484 l 257
 488 1484 l 257
 488 1553 l 257
 202 1553 l 257
210 60 m 257
 210 0 l 257
 496 0 l 257
 496 60 l 257
 210 60 l 257
EndSplineSet
EndChar

StartChar: Euro
Encoding: 8364 8364 36
GlifName: E_uro
Width: 1024
VWidth: 0
Flags: W
LayerCount: 2
Fore
SplineSet
176 520 m 257
 176 451 l 257
 813 451 l 257
 813 520 l 257
 176 520 l 257
188 856 m 257
 188 788 l 257
 797 788 l 257
 797 856 l 257
 188 856 l 257
444 1023 m 257
 444 179 l 257
 524 179 l 257
 524 1023 l 257
 444 1023 l 257
762 1633 m 257
 444 1023 l 257
 524 1023 l 257
 787 1607 l 257
 762 1633 l 257
444 179 m 257
 788 -406 l 257
 848 -406 l 257
 524 179 l 257
 444 179 l 257
EndSplineSet
EndChar

StartChar: F
Encoding: 70 70 37
GlifName: F_
Width: 1024
VWidth: 0
Flags: W
LayerCount: 2
Fore
SplineSet
106 1553 m 257
 106 0 l 257
 164 0 l 257
 164 1553 l 257
 106 1553 l 257
164 1553 m 257
 164 1497 l 257
 918 1497 l 257
 918 1553 l 257
 164 1553 l 257
156 864 m 257
 156 806 l 257
 746 806 l 257
 746 864 l 257
 156 864 l 257
EndSplineSet
EndChar

StartChar: G
Encoding: 71 71 38
GlifName: G_
Width: 1024
VWidth: 0
Flags: W
LayerCount: 2
Fore
SplineSet
115 1529 m 257
 115 0 l 257
 174 0 l 257
 174 1529 l 257
 115 1529 l 257
168 1529 m 257
 168 1469 l 257
 873 1469 l 257
 873 1529 l 257
 168 1529 l 257
146 60 m 257
 146 0 l 257
 909 0 l 257
 909 60 l 257
 146 60 l 257
848 561 m 257
 848 18 l 257
 909 18 l 257
 909 561 l 257
 848 561 l 257
EndSplineSet
EndChar

StartChar: H
Encoding: 72 72 43
GlifName: H_
Width: 1024
VWidth: 0
Flags: W
LayerCount: 2
Fore
SplineSet
114 1553 m 257
 114 0 l 257
 173 0 l 257
 173 1553 l 257
 114 1553 l 257
849 1553 m 257
 849 0 l 257
 910 0 l 257
 910 1553 l 257
 849 1553 l 257
156 923 m 257
 156 864 l 257
 873 864 l 257
 873 923 l 257
 156 923 l 257
EndSplineSet
EndChar

StartChar: Hbar
Encoding: 294 294 44
GlifName: H_bar
Width: 1024
VWidth: 0
Flags: W
LayerCount: 2
Fore
SplineSet
110 1540 m 257
 110 0 l 257
 170 0 l 257
 170 1540 l 257
 110 1540 l 257
846 1540 m 257
 846 0 l 257
 906 0 l 257
 906 1540 l 257
 846 1540 l 257
150 1023 m 257
 150 959 l 257
 862 959 l 257
 862 1023 l 257
 150 1023 l 257
50 1434 m 257
 50 1374 l 257
 974 1374 l 257
 974 1434 l 257
 50 1434 l 257
EndSplineSet
EndChar

StartChar: I
Encoding: 73 73 46
GlifName: I_
Width: 1024
VWidth: 0
Flags: W
LayerCount: 2
Fore
SplineSet
154 1550 m 257
 154 1489 l 257
 855 1489 l 257
 855 1550 l 257
 154 1550 l 257
478 1515 m 257
 478 34 l 257
 537 34 l 257
 537 1515 l 257
 478 1515 l 257
134 66 m 257
 134 6 l 257
 890 6 l 257
 890 66 l 257
 134 66 l 257
EndSplineSet
EndChar

StartChar: J
Encoding: 74 74 57
GlifName: J_
Width: 1024
VWidth: 0
Flags: W
LayerCount: 2
Fore
SplineSet
840 1527 m 257
 840 0 l 257
 900 0 l 257
 900 1527 l 257
 840 1527 l 257
124 60 m 257
 124 0 l 257
 866 0 l 257
 866 60 l 257
 124 60 l 257
124 503 m 257
 124 27 l 257
 184 27 l 257
 184 503 l 257
 124 503 l 257
EndSplineSet
EndChar

StartChar: K
Encoding: 75 75 59
GlifName: K_
Width: 1024
VWidth: 0
Flags: W
LayerCount: 2
Fore
SplineSet
172 1553 m 257
 172 5 l 257
 232 5 l 257
 232 1553 l 257
 172 1553 l 257
230 1015 m 257
 230 944 l 257
 818 1550 l 257
 748 1550 l 257
 230 1015 l 257
230 934 m 257
 210 844 l 257
 802 0 l 257
 852 0 l 257
 230 934 l 257
EndSplineSet
EndChar

StartChar: L
Encoding: 76 76 60
GlifName: L_
Width: 1024
VWidth: 0
Flags: W
LayerCount: 2
Fore
SplineSet
132 1553 m 257
 132 0 l 257
 192 0 l 257
 192 1553 l 257
 132 1553 l 257
147 61 m 257
 147 0 l 257
 892 0 l 257
 892 61 l 257
 147 61 l 257
EndSplineSet
EndChar

StartChar: Lcaron
Encoding: 317 317 62
GlifName: L_caron
Width: 1024
VWidth: 0
Flags: W
LayerCount: 2
Fore
SplineSet
94 1542 m 257
 94 0 l 257
 156 0 l 257
 156 1542 l 257
 94 1542 l 257
122 62 m 257
 122 0 l 257
 930 0 l 257
 930 62 l 257
 122 62 l 257
488 1496 m 257
 488 1264 l 257
 528 1264 l 257
 528 1496 l 257
 488 1496 l 257
EndSplineSet
EndChar

StartChar: Lslash
Encoding: 321 321 64
GlifName: L_slash
Width: 1024
VWidth: 0
Flags: W
LayerCount: 2
Fore
SplineSet
171 1542 m 257
 171 0 l 257
 231 0 l 257
 231 1542 l 257
 171 1542 l 257
195 64 m 257
 195 0 l 257
 1006 0 l 257
 1006 64 l 257
 195 64 l 257
16 902 m 257
 96 866 l 257
 530 1068 l 257
 450 1104 l 257
 16 902 l 257
EndSplineSet
EndChar

StartChar: M
Encoding: 77 77 65
GlifName: M_
Width: 1024
VWidth: 0
Flags: W
LayerCount: 2
Fore
SplineSet
100 1553 m 257
 100 0 l 257
 160 0 l 257
 160 1553 l 257
 100 1553 l 257
862 1553 m 257
 862 0 l 257
 924 0 l 257
 924 1553 l 257
 862 1553 l 257
100 1553 m 257
 476 1033 l 257
 544 1033 l 257
 160 1553 l 257
 100 1553 l 257
862 1553 m 257
 476 1033 l 257
 544 1033 l 257
 924 1553 l 257
 862 1553 l 257
EndSplineSet
EndChar

StartChar: N
Encoding: 78 78 66
GlifName: N_
Width: 1024
VWidth: 0
Flags: W
LayerCount: 2
Fore
SplineSet
98 1553 m 257
 98 0 l 257
 158 0 l 257
 158 1553 l 257
 98 1553 l 257
866 1553 m 257
 866 0 l 257
 926 0 l 257
 926 1553 l 257
 866 1553 l 257
98 1553 m 257
 866 0 l 257
 926 0 l 257
 158 1553 l 257
 98 1553 l 257
EndSplineSet
EndChar

StartChar: O
Encoding: 79 79 70
GlifName: O_
Width: 1024
VWidth: 0
Flags: W
LayerCount: 2
Fore
SplineSet
112 1553 m 257
 112 0 l 257
 171 0 l 257
 171 1553 l 257
 112 1553 l 257
853 1553 m 257
 853 0 l 257
 912 0 l 257
 912 1553 l 257
 853 1553 l 257
150 1553 m 257
 150 1493 l 257
 882 1493 l 257
 882 1553 l 257
 150 1553 l 257
152 61 m 257
 152 0 l 257
 890 0 l 257
 890 61 l 257
 152 61 l 257
EndSplineSet
EndChar

StartChar: OE
Encoding: 338 338 71
GlifName: O_E_
Width: 1024
VWidth: 0
Flags: W
LayerCount: 2
Fore
SplineSet
123 1553 m 257
 123 0 l 257
 182 0 l 257
 182 1553 l 257
 123 1553 l 257
587 1553 m 257
 587 0 l 257
 646 0 l 257
 646 1553 l 257
 587 1553 l 257
161 1553 m 257
 161 1493 l 257
 893 1493 l 257
 893 1553 l 257
 161 1553 l 257
163 61 m 257
 163 0 l 257
 901 0 l 257
 901 61 l 257
 163 61 l 257
619 859 m 257
 619 798 l 257
 842 798 l 257
 842 859 l 257
 619 859 l 257
EndSplineSet
EndChar

StartChar: Oslash
Encoding: 216 216 80
GlifName: O_slash
Width: 1024
VWidth: 0
Flags: W
LayerCount: 2
Fore
SplineSet
899 1630 m 257
 69 -48 l 257
 109 -75 l 257
 955 1588 l 257
 899 1630 l 257
107 1540 m 257
 107 0 l 257
 167 0 l 257
 167 1540 l 257
 107 1540 l 257
848 1537 m 257
 848 0 l 257
 907 0 l 257
 907 1537 l 257
 848 1537 l 257
137 1538 m 257
 137 1478 l 257
 877 1478 l 257
 877 1538 l 257
 137 1538 l 257
147 75 m 257
 147 0 l 257
 848 0 l 257
 848 75 l 257
 147 75 l 257
EndSplineSet
EndChar

StartChar: P
Encoding: 80 80 83
GlifName: P_
Width: 1024
VWidth: 0
Flags: W
LayerCount: 2
Fore
SplineSet
132 1535 m 257
 132 0 l 257
 191 0 l 257
 191 1535 l 257
 132 1535 l 257
132 1550 m 257
 132 1472 l 257
 892 1472 l 257
 892 1550 l 257
 132 1550 l 257
831 1536 m 257
 831 872 l 257
 892 872 l 257
 892 1536 l 257
 831 1536 l 257
177 931 m 257
 177 871 l 257
 864 871 l 257
 864 931 l 257
 177 931 l 257
EndSplineSet
EndChar

StartChar: Q
Encoding: 81 81 84
GlifName: Q_
Width: 1024
VWidth: 0
Flags: W
LayerCount: 2
Fore
SplineSet
112 1553 m 257
 112 0 l 257
 170 0 l 257
 170 1553 l 257
 112 1553 l 257
854 1553 m 257
 854 0 l 257
 912 0 l 257
 912 1553 l 257
 854 1553 l 257
152 1553 m 257
 152 1496 l 257
 862 1496 l 257
 862 1553 l 257
 152 1553 l 257
152 62 m 257
 152 0 l 257
 864 0 l 257
 864 62 l 257
 152 62 l 257
616 13 m 257
 722 -204 l 257
 784 -165 l 257
 664 52 l 257
 616 13 l 257
EndSplineSet
EndChar

StartChar: R
Encoding: 82 82 85
GlifName: R_
Width: 1024
VWidth: 0
Flags: W
LayerCount: 2
Fore
SplineSet
122 1550 m 257
 122 0 l 257
 182 0 l 257
 182 1550 l 257
 122 1550 l 257
164 1550 m 257
 164 1491 l 257
 856 1491 l 257
 856 1550 l 257
 164 1550 l 257
822 1550 m 257
 822 872 l 257
 884 872 l 257
 884 1550 l 257
 822 1550 l 257
152 929 m 257
 152 868 l 257
 872 868 l 257
 872 929 l 257
 152 929 l 257
414 875 m 257
 846 0 l 257
 902 0 l 257
 472 875 l 257
 414 875 l 257
EndSplineSet
EndChar

StartChar: S
Encoding: 83 83 88
GlifName: S_
Width: 1024
VWidth: 0
Flags: W
LayerCount: 2
Fore
SplineSet
126 1553 m 257
 126 1494 l 257
 724 1494 l 257
 724 1553 l 257
 126 1553 l 257
126 1542 m 257
 126 1028 l 257
 185 1028 l 257
 185 1542 l 257
 126 1542 l 257
154 60 m 257
 154 0 l 257
 862 0 l 257
 862 60 l 257
 154 60 l 257
839 0 m 257
 898 0 l 257
 898 355 l 257
 839 355 l 257
 839 0 l 257
126 1028 m 257
 839 355 l 257
 898 355 l 257
 185 1028 l 257
 126 1028 l 257
EndSplineSet
EndChar

StartChar: T
Encoding: 84 84 93
GlifName: T_
Width: 1024
VWidth: 0
Flags: W
LayerCount: 2
Fore
SplineSet
120 1553 m 257
 120 1494 l 257
 904 1494 l 257
 904 1553 l 257
 120 1553 l 257
484 1512 m 257
 484 12 l 257
 542 12 l 257
 542 1512 l 257
 484 1512 l 257
EndSplineSet
EndChar

StartChar: Thorn
Encoding: 222 222 95
GlifName: T_horn
Width: 1024
VWidth: 0
Flags: W
LayerCount: 2
Fore
SplineSet
134 1542 m 257
 134 9 l 257
 194 9 l 257
 194 1542 l 257
 134 1542 l 257
182 1240 m 257
 182 1187 l 257
 870 1187 l 257
 870 1240 l 257
 182 1240 l 257
830 1242 m 257
 830 531 l 257
 890 531 l 257
 890 1242 l 257
 830 1242 l 257
202 544 m 257
 202 484 l 257
 888 484 l 257
 888 544 l 257
 202 544 l 257
EndSplineSet
EndChar

StartChar: U
Encoding: 85 85 96
GlifName: U_
Width: 1024
VWidth: 0
Flags: W
LayerCount: 2
Fore
SplineSet
157 1553 m 257
 157 0 l 257
 219 0 l 257
 219 1553 l 257
 157 1553 l 257
807 1553 m 257
 807 0 l 257
 867 0 l 257
 867 1553 l 257
 807 1553 l 257
204 61 m 257
 204 0 l 257
 824 0 l 257
 824 61 l 257
 204 61 l 257
EndSplineSet
EndChar

StartChar: V
Encoding: 86 86 108
GlifName: V_
Width: 1024
VWidth: 0
Flags: W
LayerCount: 2
Fore
SplineSet
106 1553 m 257
 514 0 l 257
 574 0 l 257
 170 1553 l 257
 106 1553 l 257
848 1553 m 257
 514 0 l 257
 574 0 l 257
 918 1553 l 257
 848 1553 l 257
EndSplineSet
EndChar

StartChar: W
Encoding: 87 87 109
GlifName: W_
Width: 1024
VWidth: 0
Flags: W
LayerCount: 2
Fore
SplineSet
103 1550 m 257
 103 0 l 257
 163 0 l 257
 163 1550 l 257
 103 1550 l 257
861 1533 m 257
 861 12 l 257
 921 12 l 257
 921 1533 l 257
 861 1533 l 257
482 1028 m 257
 482 0 l 257
 542 0 l 257
 542 1028 l 257
 482 1028 l 257
111 60 m 257
 111 0 l 257
 921 0 l 257
 921 60 l 257
 111 60 l 257
EndSplineSet
EndChar

StartChar: X
Encoding: 88 88 114
GlifName: X_
Width: 1024
VWidth: 0
Flags: W
LayerCount: 2
Fore
SplineSet
54 1553 m 257
 896 0 l 257
 970 0 l 257
 126 1553 l 257
 54 1553 l 257
70 0 m 257
 128 0 l 257
 874 1553 l 257
 798 1553 l 257
 70 0 l 257
EndSplineSet
EndChar

StartChar: Y
Encoding: 89 89 115
GlifName: Y_
Width: 1024
VWidth: 0
Flags: W
LayerCount: 2
Fore
SplineSet
480 895 m 257
 480 0 l 257
 539 0 l 257
 539 895 l 257
 480 895 l 257
171 1550 m 257
 171 859 l 257
 232 859 l 257
 232 1550 l 257
 171 1550 l 257
793 1536 m 257
 793 859 l 257
 853 859 l 257
 853 1536 l 257
 793 1536 l 257
217 919 m 257
 217 859 l 257
 826 859 l 257
 826 919 l 257
 217 919 l 257
EndSplineSet
EndChar

StartChar: Z
Encoding: 90 90 120
GlifName: Z_
Width: 1024
VWidth: 0
Flags: W
LayerCount: 2
Fore
SplineSet
98 1550 m 257
 98 1491 l 257
 926 1491 l 257
 926 1550 l 257
 98 1550 l 257
99 60 m 257
 99 0 l 257
 926 0 l 257
 926 60 l 257
 99 60 l 257
866 1491 m 257
 99 60 l 257
 159 60 l 257
 926 1491 l 257
 866 1491 l 257
EndSplineSet
EndChar

StartChar: a
Encoding: 97 97 124
GlifName: a
Width: 1024
VWidth: 0
Flags: W
LayerCount: 2
Fore
SplineSet
168 1024 m 257
 168 957 l 257
 817 957 l 257
 817 1023 l 257
 168 1024 l 257
779 1023 m 257
 779 0 l 257
 856 0 l 257
 856 1023 l 257
 779 1023 l 257
171 600 m 257
 171 538 l 257
 795 538 l 257
 795 600 l 257
 171 600 l 257
172 577 m 257
 172 0 l 257
 243 0 l 257
 243 577 l 257
 172 577 l 257
181 74 m 257
 181 0 l 257
 845 0 l 257
 845 74 l 257
 181 74 l 257
EndSplineSet
EndChar

StartChar: acute
Encoding: 180 180 128
GlifName: acute
Width: 1024
VWidth: 0
Flags: W
LayerCount: 2
Fore
SplineSet
522 1553 m 257
 392 1302 l 257
 480 1256 l 257
 611 1511 l 257
 522 1553 l 257
EndSplineSet
EndChar

StartChar: acutecomb
Encoding: 769 769 129
GlifName: acutecomb
Width: 1024
VWidth: 0
Flags: W
LayerCount: 2
Fore
SplineSet
525 949 m 257
 446 764 l 257
 499 730 l 257
 578 915 l 257
 525 949 l 257
EndSplineSet
EndChar

StartChar: ae
Encoding: 230 230 131
GlifName: ae
Width: 1024
VWidth: 0
Flags: W
LayerCount: 2
Fore
SplineSet
42 1023 m 257
 42 961 l 257
 932 961 l 257
 932 1023 l 257
 42 1023 l 257
512 1023 m 257
 512 0 l 257
 572 0 l 257
 572 1023 l 257
 512 1023 l 257
66 599 m 257
 66 538 l 257
 906 538 l 257
 906 599 l 257
 66 599 l 257
66 575 m 257
 66 0 l 257
 126 0 l 257
 126 575 l 257
 66 575 l 257
64 61 m 257
 64 0 l 257
 984 0 l 257
 984 61 l 257
 64 61 l 257
900 1023 m 257
 900 538 l 257
 962 538 l 257
 962 1023 l 257
 900 1023 l 257
EndSplineSet
EndChar

StartChar: ampersand
Encoding: 38 38 135
GlifName: ampersand
Width: 1024
VWidth: 0
Flags: W
LayerCount: 2
Fore
SplineSet
260 1534 m 257
 778 43 l 257
 854 56 l 257
 338 1534 l 257
 260 1534 l 257
804 1467 m 257
 804 1536 l 257
 338 1536 l 257
 338 1467 l 257
 804 1467 l 257
746 1485 m 257
 746 1006 l 257
 804 1006 l 257
 804 1485 l 257
 746 1485 l 257
108 1045 m 257
 108 985 l 257
 804 985 l 257
 804 1045 l 257
 108 1045 l 257
108 1045 m 257
 108 24 l 257
 198 24 l 257
 198 1045 l 257
 108 1045 l 257
108 71 m 257
 108 6 l 257
 916 6 l 257
 916 71 l 257
 108 71 l 257
EndSplineSet
EndChar

StartChar: asciicircum
Encoding: 94 94 139
GlifName: asciicircum
Width: 1024
VWidth: 0
Flags: W
LayerCount: 2
Fore
SplineSet
510 1023 m 257
 438 1023 l 257
 174 407 l 257
 228 373 l 257
 510 1023 l 257
444 1030 m 257
 768 364 l 257
 850 400 l 257
 518 1030 l 257
 444 1030 l 257
EndSplineSet
EndChar

StartChar: asciitilde
Encoding: 126 126 140
GlifName: asciitilde
Width: 1024
VWidth: 0
Flags: W
LayerCount: 2
Fore
SplineSet
366 766 m 257
 366 716 l 257
 716 645 l 257
 716 695 l 257
 366 766 l 257
126 710 m 257
 140 652 l 257
 366 716 l 257
 366 766 l 257
 126 710 l 257
716 695 m 257
 716 645 l 257
 898 796 l 257
 884 843 l 257
 716 695 l 257
EndSplineSet
EndChar

StartChar: asterisk
Encoding: 42 42 141
GlifName: asterisk
Width: 1024
VWidth: 0
Flags: W
LayerCount: 2
Fore
SplineSet
486 1297 m 257
 486 289 l 257
 586 289 l 257
 586 1297 l 257
 486 1297 l 257
140 1153 m 257
 864 424 l 257
 932 496 l 257
 200 1222 l 257
 140 1153 l 257
840 1200 m 257
 92 449 l 257
 148 399 l 257
 892 1134 l 257
 840 1200 l 257
EndSplineSet
EndChar

StartChar: at
Encoding: 64 64 142
GlifName: at
Width: 1024
VWidth: 0
Flags: W
LayerCount: 2
Fore
SplineSet
82 1023 m 257
 82 956 l 257
 980 956 l 257
 980 1023 l 257
 82 1023 l 257
740 598 m 257
 740 0 l 257
 808 0 l 257
 808 598 l 257
 740 598 l 257
320 601 m 257
 320 551 l 257
 744 551 l 257
 744 601 l 257
 320 601 l 257
316 589 m 257
 316 12 l 257
 370 12 l 257
 370 589 l 257
 316 589 l 257
314 76 m 257
 314 0 l 257
 808 0 l 257
 808 76 l 257
 314 76 l 257
28 1023 m 257
 28 -223 l 257
 94 -223 l 257
 94 1023 l 257
 28 1023 l 257
26 -179 m 257
 26 -258 l 257
 974 -258 l 257
 974 -179 l 257
 26 -179 l 257
912 1033 m 257
 912 0 l 257
 998 0 l 257
 998 1033 l 257
 912 1033 l 257
754 76 m 257
 754 0 l 257
 944 0 l 257
 944 76 l 257
 754 76 l 257
EndSplineSet
EndChar

StartChar: b
Encoding: 98 98 144
GlifName: b
Width: 1024
VWidth: 0
Flags: W
LayerCount: 2
Fore
SplineSet
135 1536 m 257
 135 0 l 257
 195 0 l 257
 195 1536 l 257
 135 1536 l 257
178 1033 m 257
 178 972 l 257
 842 972 l 257
 842 1033 l 257
 178 1033 l 257
829 1033 m 257
 829 0 l 257
 889 0 l 257
 889 1033 l 257
 829 1033 l 257
170 60 m 257
 170 0 l 257
 867 0 l 257
 867 60 l 257
 170 60 l 257
EndSplineSet
EndChar

StartChar: backslash
Encoding: 92 92 145
GlifName: backslash
Width: 1024
VWidth: 0
Flags: W
LayerCount: 2
Fore
SplineSet
195 1550 m 257
 751 0 l 257
 829 0 l 257
 278 1550 l 257
 195 1550 l 257
EndSplineSet
EndChar

StartChar: bar
Encoding: 124 124 146
GlifName: bar
Width: 1024
VWidth: 0
Flags: W
LayerCount: 2
Fore
SplineSet
472 1435 m 257
 472 -90 l 257
 552 -90 l 257
 552 1435 l 257
 472 1435 l 257
EndSplineSet
EndChar

StartChar: braceleft
Encoding: 123 123 147
GlifName: braceleft
Width: 1024
VWidth: 0
Flags: W
LayerCount: 2
Fore
SplineSet
512 1544 m 257
 512 838 l 257
 596 838 l 257
 596 1544 l 257
 512 1544 l 257
524 424 m 257
 524 -286 l 257
 614 -286 l 257
 614 424 l 257
 524 424 l 257
223 690 m 257
 223 630 l 257
 596 838 l 257
 512 838 l 257
 223 690 l 257
223 690 m 257
 223 630 l 257
 522 425 l 257
 615 425 l 257
 223 690 l 257
513 1603 m 257
 513 1452 l 257
 781 1574 l 257
 785 1603 l 257
 513 1603 l 257
525 -140 m 257
 525 -287 l 257
 801 -287 l 257
 801 -274 l 257
 525 -140 l 257
EndSplineSet
EndChar

StartChar: braceright
Encoding: 125 125 148
GlifName: braceright
Width: 1024
VWidth: 0
Flags: W
LayerCount: 2
Fore
SplineSet
528 1544 m 257
 428 1544 l 257
 428 838 l 257
 528 838 l 257
 528 1544 l 257
514 424 m 257
 421 424 l 257
 421 -286 l 257
 514 -286 l 257
 514 424 l 257
801 690 m 257
 523 838 l 257
 424 838 l 257
 801 630 l 257
 801 690 l 257
801 690 m 257
 421 424 l 257
 514 424 l 257
 801 630 l 257
 801 690 l 257
529 1603 m 257
 254 1603 l 257
 258 1574 l 257
 529 1452 l 257
 529 1603 l 257
499 -140 m 257
 223 -274 l 257
 223 -284 l 257
 499 -284 l 257
 499 -140 l 257
EndSplineSet
EndChar

StartChar: bracketleft
Encoding: 91 91 149
GlifName: bracketleft
Width: 1024
VWidth: 0
Flags: W
LayerCount: 2
Fore
SplineSet
378 1542 m 257
 378 -242 l 257
 435 -242 l 257
 435 1542 l 257
 378 1542 l 257
432 1543 m 257
 432 1481 l 257
 641 1481 l 257
 641 1543 l 257
 432 1543 l 257
414 -168 m 257
 414 -242 l 257
 646 -242 l 257
 646 -168 l 257
 414 -168 l 257
EndSplineSet
EndChar

StartChar: bracketright
Encoding: 93 93 150
GlifName: bracketright
Width: 1024
VWidth: 0
Flags: W
LayerCount: 2
Fore
SplineSet
587 1542 m 257
 587 -242 l 257
 649 -242 l 257
 649 1542 l 257
 587 1542 l 257
375 1543 m 257
 375 1478 l 257
 603 1478 l 257
 603 1543 l 257
 375 1543 l 257
375 -165 m 257
 375 -242 l 257
 614 -242 l 257
 614 -165 l 257
 375 -165 l 257
EndSplineSet
EndChar

StartChar: breve
Encoding: 728 728 151
GlifName: breve
Width: 1024
VWidth: 0
Flags: W
LayerCount: 2
Fore
SplineSet
656 1550 m 257
 656 1480 l 257
 821 1550 l 257
 821 1645 l 257
 656 1550 l 257
332 1550 m 257
 332 1480 l 257
 656 1480 l 257
 656 1550 l 257
 332 1550 l 257
161 1630 m 257
 161 1550 l 257
 332 1480 l 257
 332 1550 l 257
 161 1630 l 257
EndSplineSet
EndChar

StartChar: brokenbar
Encoding: 166 166 152
GlifName: brokenbar
Width: 1024
VWidth: 0
Flags: W
LayerCount: 2
Fore
SplineSet
490 -332 m 257
 534 -332 l 257
 534 682 l 257
 490 682 l 257
 490 -332 l 257
497 790 m 257
 534 790 l 257
 534 1636 l 257
 497 1636 l 257
 497 790 l 257
EndSplineSet
EndChar

StartChar: bullet
Encoding: 8226 8226 153
GlifName: bullet
Width: 1024
VWidth: 0
Flags: W
LayerCount: 2
Fore
SplineSet
435 1009 m 257
 435 844 l 257
 589 844 l 257
 589 1009 l 257
 435 1009 l 257
EndSplineSet
EndChar

StartChar: c
Encoding: 99 99 154
GlifName: c
Width: 1024
VWidth: 0
Flags: W
LayerCount: 2
Fore
SplineSet
164 1023 m 257
 164 967 l 257
 860 967 l 257
 860 1023 l 257
 164 1023 l 257
166 984 m 257
 166 0 l 257
 226 0 l 257
 226 984 l 257
 166 984 l 257
214 60 m 257
 214 0 l 257
 854 0 l 257
 854 60 l 257
 214 60 l 257
EndSplineSet
EndChar

StartChar: caron
Encoding: 711 711 156
GlifName: caron
Width: 1024
VWidth: 0
Flags: W
LayerCount: 2
Fore
SplineSet
524 1068 m 257
 383 1395 l 257
 356 1378 l 257
 488 1068 l 257
 524 1068 l 257
491 1067 m 257
 528 1067 l 257
 694 1382 l 257
 653 1400 l 257
 491 1067 l 257
EndSplineSet
EndChar

StartChar: cedilla
Encoding: 184 184 161
GlifName: cedilla
Width: 1024
VWidth: 0
Flags: W
LayerCount: 2
Fore
SplineSet
343 236 m 257
 343 0 l 257
 401 0 l 257
 401 236 l 257
 343 236 l 257
349 -291 m 257
 349 -352 l 257
 795 -352 l 257
 795 -291 l 257
 349 -291 l 257
736 56 m 257
 736 -316 l 257
 795 -316 l 257
 795 56 l 257
 736 56 l 257
349 56 m 257
 349 0 l 257
 795 0 l 257
 795 56 l 257
 349 56 l 257
EndSplineSet
EndChar

StartChar: cent
Encoding: 162 162 162
GlifName: cent
Width: 1024
VWidth: 0
Flags: W
LayerCount: 2
Fore
SplineSet
604 1183 m 257
 544 1183 l 257
 544 -86 l 257
 604 -86 l 257
 604 1183 l 257
164 1023 m 257
 164 966 l 257
 860 966 l 257
 860 1023 l 257
 164 1023 l 257
166 984 m 257
 166 0 l 257
 231 0 l 257
 231 984 l 257
 166 984 l 257
215 61 m 257
 215 0 l 257
 854 0 l 257
 854 61 l 257
 215 61 l 257
EndSplineSet
EndChar

StartChar: circumflex
Encoding: 710 710 163
GlifName: circumflex
Width: 1024
VWidth: 0
Flags: W
LayerCount: 2
Fore
SplineSet
511 2308 m 257
 475 2308 l 257
 343 1998 l 257
 370 1981 l 257
 511 2308 l 257
478 2310 m 257
 640 1976 l 257
 681 1994 l 257
 515 2310 l 257
 478 2310 l 257
EndSplineSet
EndChar

StartChar: colon
Encoding: 58 58 164
GlifName: colon
Width: 1024
VWidth: 0
Flags: W
LayerCount: 2
Fore
SplineSet
444 164 m 257
 444 7 l 257
 580 7 l 257
 580 164 l 257
 444 164 l 257
444 553 m 257
 444 396 l 257
 580 396 l 257
 580 553 l 257
 444 553 l 257
EndSplineSet
EndChar

StartChar: comma
Encoding: 44 44 165
GlifName: comma
Width: 1024
VWidth: 0
Flags: W
LayerCount: 2
Fore
SplineSet
444 165 m 257
 444 8 l 257
 580 8 l 257
 580 165 l 257
 444 165 l 257
528 135 m 257
 486 -99 l 257
 536 -148 l 257
 578 26 l 257
 528 135 l 257
EndSplineSet
EndChar

StartChar: copyright
Encoding: 169 169 166
GlifName: copyright
Width: 1024
VWidth: 0
Flags: W
LayerCount: 2
Fore
SplineSet
12 1540 m 257
 12 0 l 257
 72 0 l 257
 72 1540 l 257
 12 1540 l 257
952 1537 m 257
 952 0 l 257
 1012 0 l 257
 1012 1537 l 257
 952 1537 l 257
64 1538 m 257
 64 1476 l 257
 1008 1476 l 257
 1008 1538 l 257
 64 1538 l 257
24 60 m 257
 24 0 l 257
 994 0 l 257
 994 60 l 257
 24 60 l 257
258 1197 m 257
 258 1135 l 257
 692 1135 l 257
 692 1197 l 257
 258 1197 l 257
258 1154 m 257
 258 340 l 257
 318 340 l 257
 318 1154 l 257
 258 1154 l 257
258 356 m 257
 258 294 l 257
 698 294 l 257
 698 356 l 257
 258 356 l 257
EndSplineSet
EndChar

StartChar: currency
Encoding: 164 164 167
GlifName: currency
Width: 1024
VWidth: 0
Flags: W
LayerCount: 2
Fore
SplineSet
98 1182 m 257
 98 160 l 257
 158 160 l 257
 158 1182 l 257
 98 1182 l 257
856 1184 m 257
 856 160 l 257
 916 160 l 257
 916 1184 l 257
 856 1184 l 257
160 1187 m 257
 160 1127 l 257
 860 1127 l 257
 860 1187 l 257
 160 1187 l 257
144 222 m 257
 144 160 l 257
 864 160 l 257
 864 222 l 257
 144 222 l 257
24 1251 m 257
 24 1137 l 257
 168 1137 l 257
 168 1251 l 257
 24 1251 l 257
860 1241 m 257
 860 1127 l 257
 1002 1127 l 257
 1002 1241 l 257
 860 1241 l 257
18 223 m 257
 18 109 l 257
 162 109 l 257
 162 223 l 257
 18 223 l 257
862 220 m 257
 862 106 l 257
 1006 106 l 257
 1006 220 l 257
 862 220 l 257
EndSplineSet
EndChar

StartChar: d
Encoding: 100 100 168
GlifName: d
Width: 1024
VWidth: 0
Flags: W
LayerCount: 2
Fore
SplineSet
832 1527 m 257
 832 0 l 257
 892 0 l 257
 892 1527 l 257
 832 1527 l 257
176 1023 m 257
 176 966 l 257
 866 966 l 257
 866 1023 l 257
 176 1023 l 257
132 1023 m 257
 132 0 l 257
 192 0 l 257
 192 1023 l 257
 132 1023 l 257
172 59 m 257
 172 0 l 257
 844 0 l 257
 844 59 l 257
 172 59 l 257
EndSplineSet
EndChar

StartChar: dagger
Encoding: 8224 8224 169
GlifName: dagger
Width: 1024
VWidth: 0
Flags: W
LayerCount: 2
Fore
SplineSet
209 1251 m 257
 209 1200 l 257
 815 1200 l 257
 815 1251 l 257
 209 1251 l 257
481 1550 m 257
 481 0 l 257
 547 0 l 257
 547 1550 l 257
 481 1550 l 257
EndSplineSet
EndChar

StartChar: daggerdbl
Encoding: 8225 8225 170
GlifName: daggerdbl
Width: 1024
VWidth: 0
Flags: W
LayerCount: 2
Fore
SplineSet
209 823 m 257
 209 772 l 257
 815 772 l 257
 815 823 l 257
 209 823 l 257
209 1251 m 257
 209 1200 l 257
 815 1200 l 257
 815 1251 l 257
 209 1251 l 257
490 1550 m 257
 490 0 l 257
 552 0 l 257
 552 1550 l 257
 490 1550 l 257
EndSplineSet
EndChar

StartChar: dcaron
Encoding: 271 271 171
GlifName: dcaron
Width: 1024
VWidth: 0
Flags: W
LayerCount: 2
Fore
SplineSet
758 1527 m 257
 758 0 l 257
 818 0 l 257
 818 1527 l 257
 758 1527 l 257
102 1023 m 257
 102 962 l 257
 778 962 l 257
 778 1023 l 257
 102 1023 l 257
58 1023 m 257
 58 0 l 257
 116 0 l 257
 116 1023 l 257
 58 1023 l 257
74 60 m 257
 74 0 l 257
 770 0 l 257
 770 60 l 257
 74 60 l 257
916 1496 m 257
 916 1264 l 257
 966 1264 l 257
 966 1496 l 257
 916 1496 l 257
EndSplineSet
EndChar

StartChar: dcroat
Encoding: 273 273 172
GlifName: dcroat
Width: 1024
VWidth: 0
Flags: W
LayerCount: 2
Fore
SplineSet
780 1527 m 257
 780 0 l 257
 840 0 l 257
 840 1527 l 257
 780 1527 l 257
110 1023 m 257
 110 962 l 257
 802 962 l 257
 802 1023 l 257
 110 1023 l 257
78 1023 m 257
 78 0 l 257
 138 0 l 257
 138 1023 l 257
 78 1023 l 257
126 61 m 257
 126 0 l 257
 792 0 l 257
 792 61 l 257
 126 61 l 257
638 1260 m 257
 638 1202 l 257
 946 1202 l 257
 946 1260 l 257
 638 1260 l 257
EndSplineSet
EndChar

StartChar: degree
Encoding: 176 176 173
GlifName: degree
Width: 1024
VWidth: 0
Flags: W
LayerCount: 2
Fore
SplineSet
391 1439 m 257
 641 1439 l 257
 641 1231 l 257
 391 1231 l 257
 391 1439 l 257
332 1488 m 257
 332 1179 l 257
 692 1179 l 257
 692 1488 l 257
 332 1488 l 257
EndSplineSet
EndChar

StartChar: dieresis
Encoding: 168 168 174
GlifName: dieresis
Width: 1024
VWidth: 0
Flags: W
LayerCount: 2
Fore
SplineSet
346 1023 m 257
 346 923 l 257
 458 923 l 257
 458 1023 l 257
 346 1023 l 257
588 1023 m 257
 588 923 l 257
 700 923 l 257
 700 1023 l 257
 588 1023 l 257
EndSplineSet
EndChar

StartChar: divide
Encoding: 247 247 175
GlifName: divide
Width: 1024
VWidth: 0
Flags: W
LayerCount: 2
Fore
SplineSet
477 264 m 257
 477 201 l 257
 579 201 l 257
 579 264 l 257
 477 264 l 257
466 1111 m 257
 466 1047 l 257
 557 1047 l 257
 557 1111 l 257
 466 1111 l 257
99 662 m 257
 99 600 l 257
 925 600 l 257
 925 662 l 257
 99 662 l 257
EndSplineSet
EndChar

StartChar: dollar
Encoding: 36 36 176
GlifName: dollar
Width: 1024
VWidth: 0
Flags: W
LayerCount: 2
Fore
SplineSet
126 1539 m 257
 126 1457 l 257
 724 1457 l 257
 724 1539 l 257
 126 1539 l 257
126 1542 m 257
 126 1028 l 257
 210 1028 l 257
 210 1542 l 257
 126 1542 l 257
154 69 m 257
 154 0 l 257
 862 0 l 257
 862 69 l 257
 154 69 l 257
818 0 m 257
 898 0 l 257
 898 355 l 257
 818 355 l 257
 818 0 l 257
126 1028 m 257
 817 355 l 257
 898 355 l 257
 210 1028 l 257
 126 1028 l 257
421 1636 m 257
 421 -215 l 257
 491 -215 l 257
 491 1636 l 257
 421 1636 l 257
EndSplineSet
EndChar

StartChar: dotaccent
Encoding: 729 729 177
GlifName: dotaccent
Width: 1024
VWidth: 0
Flags: W
LayerCount: 2
Fore
SplineSet
490 1078 m 257
 490 977 l 257
 602 977 l 257
 602 1078 l 257
 490 1078 l 257
EndSplineSet
EndChar

StartChar: dotbelowcomb
Encoding: 803 803 178
GlifName: dotbelowcomb
Width: 1024
VWidth: 0
Flags: W
LayerCount: 2
Fore
SplineSet
472 -290 m 257
 472 -365 l 257
 552 -365 l 257
 552 -290 l 257
 472 -290 l 257
EndSplineSet
EndChar

StartChar: dotlessi
Encoding: 305 305 179
GlifName: dotlessi
Width: 1024
VWidth: 0
Flags: W
LayerCount: 2
Fore
SplineSet
510 1023 m 257
 510 52 l 257
 570 52 l 257
 570 1023 l 257
 510 1023 l 257
141 60 m 257
 141 0 l 257
 883 0 l 257
 883 60 l 257
 141 60 l 257
191 1023 m 257
 191 962 l 257
 527 962 l 257
 527 1023 l 257
 191 1023 l 257
EndSplineSet
EndChar

StartChar: e
Encoding: 101 101 180
GlifName: e
Width: 1024
VWidth: 0
Flags: W
LayerCount: 2
Fore
SplineSet
218 1023 m 257
 204 972 l 257
 843 972 l 257
 857 1023 l 257
 218 1023 l 257
166 1023 m 257
 166 0 l 257
 224 0 l 257
 224 1023 l 257
 166 1023 l 257
208 61 m 257
 208 0 l 257
 853 0 l 257
 853 61 l 257
 208 61 l 257
187 506 m 257
 195 446 l 257
 824 446 l 257
 824 506 l 257
 187 506 l 257
799 1023 m 257
 799 445 l 257
 858 445 l 257
 858 1023 l 257
 799 1023 l 257
EndSplineSet
EndChar

StartChar: eight
Encoding: 56 56 188
GlifName: eight
Width: 1024
VWidth: 0
Flags: W
LayerCount: 2
Fore
SplineSet
56 1550 m 257
 56 0 l 257
 969 0 l 257
 969 1550 l 257
 56 1550 l 257
907 899 m 257
 907 57 l 257
 119 57 l 257
 119 899 l 257
 907 899 l 257
908 959 m 257
 118 959 l 257
 118 1489 l 257
 908 1489 l 257
 908 959 l 257
EndSplineSet
EndChar

StartChar: ellipsis
Encoding: 8230 8230 189
GlifName: ellipsis
Width: 1024
VWidth: 0
Flags: W
LayerCount: 2
Fore
SplineSet
180 114 m 257
 180 0 l 257
 322 0 l 257
 322 114 l 257
 180 114 l 257
436 114 m 257
 436 0 l 257
 580 0 l 257
 580 114 l 257
 436 114 l 257
702 114 m 257
 702 0 l 257
 844 0 l 257
 844 114 l 257
 702 114 l 257
EndSplineSet
EndChar

StartChar: emdash
Encoding: 8212 8212 191
GlifName: emdash
Width: 1024
VWidth: 0
Flags: W
LayerCount: 2
Fore
SplineSet
0 600 m 257
 1024 600 l 257
 1024 651 l 257
 0 651 l 257
 0 600 l 257
EndSplineSet
EndChar

StartChar: endash
Encoding: 8211 8211 192
GlifName: endash
Width: 1024
VWidth: 0
Flags: W
LayerCount: 2
Fore
SplineSet
99 600 m 257
 925 600 l 257
 925 680 l 257
 99 680 l 257
 99 600 l 257
EndSplineSet
EndChar

StartChar: eng
Encoding: 331 331 193
GlifName: eng
Width: 1024
VWidth: 0
Flags: W
LayerCount: 2
Fore
SplineSet
456 -211 m 257
 456 -408 l 257
 843 -408 l 257
 843 -211 l 257
 456 -211 l 257
244 990 m 257
 244 0 l 257
 445 0 l 257
 445 990 l 257
 244 990 l 257
643 976 m 257
 643 -408 l 257
 844 -408 l 257
 844 976 l 257
 643 976 l 257
65 1023 m 257
 65 826 l 257
 843 826 l 257
 843 1023 l 257
 65 1023 l 257
EndSplineSet
EndChar

StartChar: equal
Encoding: 61 61 195
GlifName: equal
Width: 1024
VWidth: 0
Flags: W
LayerCount: 2
Fore
SplineSet
104 824 m 257
 104 724 l 257
 920 724 l 257
 920 824 l 257
 104 824 l 257
104 540 m 257
 104 450 l 257
 920 450 l 257
 920 540 l 257
 104 540 l 257
EndSplineSet
EndChar

StartChar: eth
Encoding: 240 240 196
GlifName: eth
Width: 1024
VWidth: 0
Flags: W
LayerCount: 2
Fore
SplineSet
240 1550 m 257
 844 0 l 257
 892 0 l 257
 296 1550 l 257
 240 1550 l 257
172 1023 m 257
 172 964 l 257
 496 964 l 257
 496 1023 l 257
 172 1023 l 257
132 1023 m 257
 132 0 l 257
 192 0 l 257
 192 1023 l 257
 132 1023 l 257
178 59 m 257
 178 0 l 257
 844 0 l 257
 844 59 l 257
 178 59 l 257
160 1416 m 257
 160 1351 l 257
 504 1351 l 257
 504 1416 l 257
 160 1416 l 257
EndSplineSet
EndChar

StartChar: exclam
Encoding: 33 33 197
GlifName: exclam
Width: 1024
VWidth: 0
Flags: W
LayerCount: 2
Fore
SplineSet
478 9 m 257
 545 9 l 257
 545 107 l 257
 478 107 l 257
 478 9 l 257
476 344 m 257
 548 344 l 257
 548 1362 l 257
 476 1362 l 257
 476 344 l 257
EndSplineSet
EndChar

StartChar: exclamdown
Encoding: 161 161 198
GlifName: exclamdown
Width: 1024
VWidth: 0
Flags: W
LayerCount: 2
Fore
SplineSet
542 1520 m 257
 482 1520 l 257
 482 1272 l 257
 542 1272 l 257
 542 1520 l 257
538 1035 m 257
 484 1035 l 257
 484 17 l 257
 542 17 l 257
 538 1035 l 257
EndSplineSet
EndChar

StartChar: f
Encoding: 102 102 199
GlifName: f
Width: 1024
VWidth: 0
Flags: W
LayerCount: 2
Fore
SplineSet
418 1023 m 257
 418 -406 l 257
 478 -406 l 257
 478 1023 l 257
 418 1023 l 257
418 1023 m 257
 418 963 l 257
 816 963 l 257
 816 1023 l 257
 418 1023 l 257
208 462 m 257
 208 402 l 257
 686 402 l 257
 686 462 l 257
 208 462 l 257
EndSplineSet
EndChar

StartChar: five
Encoding: 53 53 200
GlifName: five
Width: 1024
VWidth: 0
Flags: W
LayerCount: 2
Fore
SplineSet
917 899 m 257
 917 58 l 257
 59 58 l 257
 59 0 l 257
 977 0 l 257
 977 959 l 257
 120 959 l 257
 120 1492 l 257
 987 1492 l 257
 987 1550 l 257
 60 1550 l 257
 60 899 l 257
 917 899 l 257
EndSplineSet
EndChar

StartChar: four
Encoding: 52 52 201
GlifName: four
Width: 1024
VWidth: 0
Flags: W
LayerCount: 2
Fore
SplineSet
91 761 m 257
 872 761 l 257
 872 7 l 257
 929 7 l 257
 929 1550 l 257
 869 1550 l 257
 869 821 l 257
 151 821 l 257
 151 1550 l 257
 91 1550 l 257
 91 761 l 257
EndSplineSet
EndChar

StartChar: g
Encoding: 103 103 202
GlifName: g
Width: 1024
VWidth: 0
Flags: W
LayerCount: 2
Fore
SplineSet
223 1023 m 257
 223 0 l 257
 283 0 l 257
 283 1023 l 257
 223 1023 l 257
263 1023 m 257
 263 962 l 257
 779 962 l 257
 779 1023 l 257
 263 1023 l 257
741 1023 m 257
 741 -411 l 257
 801 -411 l 257
 801 1023 l 257
 741 1023 l 257
286 58 m 257
 286 0 l 257
 743 0 l 257
 743 58 l 257
 286 58 l 257
263 -354 m 257
 263 -413 l 257
 752 -413 l 257
 752 -354 l 257
 263 -354 l 257
EndSplineSet
EndChar

StartChar: germandbls
Encoding: 223 223 207
GlifName: germandbls
Width: 1024
VWidth: 0
Flags: W
LayerCount: 2
Fore
SplineSet
76 1084 m 257
 76 1023 l 257
 327 1023 l 257
 327 1084 l 257
 76 1084 l 257
261 1550 m 257
 261 0 l 257
 325 0 l 257
 325 1550 l 257
 261 1550 l 257
313 1550 m 257
 313 1488 l 257
 920 1488 l 257
 920 1550 l 257
 313 1550 l 257
886 1550 m 257
 886 1023 l 257
 947 1023 l 257
 947 1550 l 257
 886 1550 l 257
890 1062 m 257
 652 1062 l 257
 652 826 l 257
 890 826 l 257
 890 1062 l 257
888 848 m 257
 888 175 l 257
 946 175 l 257
 946 848 l 257
 888 848 l 257
605 187 m 257
 605 131 l 257
 948 131 l 257
 948 187 l 257
 605 187 l 257
EndSplineSet
EndChar

StartChar: glyph094D
Encoding: 65536 -1 208
GlifName: glyph094D_
Width: 1024
VWidth: 0
Flags: W
LayerCount: 2
Fore
SplineSet
-277 -16 m 257
 -277 -77 l 257
 67 -77 l 257
 67 -16 l 257
 -277 -16 l 257
38 -71 m 257
 348 -418 l 257
 378 -366 l 257
 67 -15 l 257
 38 -71 l 257
EndSplineSet
EndChar

StartChar: grave
Encoding: 96 96 209
GlifName: grave
Width: 1024
VWidth: 0
Flags: W
LayerCount: 2
Fore
SplineSet
426 1286 m 257
 510 1057 l 257
 598 1112 l 257
 506 1340 l 257
 426 1286 l 257
EndSplineSet
EndChar

StartChar: gravecomb
Encoding: 768 768 210
GlifName: gravecomb
Width: 1024
VWidth: 0
Flags: W
LayerCount: 2
Fore
SplineSet
420 877 m 257
 544 673 l 257
 604 727 l 257
 480 932 l 257
 420 877 l 257
EndSplineSet
EndChar

StartChar: greater
Encoding: 62 62 211
GlifName: greater
Width: 1024
VWidth: 0
Flags: W
LayerCount: 2
Fore
SplineSet
921 632 m 257
 105 1013 l 257
 105 952 l 257
 921 569 l 257
 921 632 l 257
921 632 m 257
 103 186 l 257
 103 122 l 257
 921 569 l 257
 921 632 l 257
EndSplineSet
EndChar

StartChar: guillemotleft
Encoding: 171 171 212
GlifName: guillemotleft
Width: 1024
VWidth: 0
Flags: W
LayerCount: 2
Fore
SplineSet
98 509 m 257
 98 472 l 257
 535 757 l 257
 535 784 l 257
 98 509 l 257
98 509 m 257
 98 472 l 257
 466 122 l 257
 474 160 l 257
 98 509 l 257
516 527 m 257
 516 498 l 257
 926 783 l 257
 926 823 l 257
 516 527 l 257
515 527 m 257
 515 497 l 257
 881 122 l 257
 898 149 l 257
 515 527 l 257
EndSplineSet
EndChar

StartChar: guillemotright
Encoding: 187 187 213
GlifName: guillemotright
Width: 1024
VWidth: 0
Flags: W
LayerCount: 2
Fore
SplineSet
926 509 m 257
 489 784 l 257
 489 757 l 257
 925 472 l 257
 926 509 l 257
926 509 m 257
 550 160 l 257
 558 122 l 257
 925 472 l 257
 926 509 l 257
508 527 m 257
 98 823 l 257
 98 783 l 257
 509 498 l 257
 508 527 l 257
509 527 m 257
 126 149 l 257
 143 122 l 257
 509 497 l 257
 509 527 l 257
EndSplineSet
EndChar

StartChar: guilsinglleft
Encoding: 8249 8249 214
GlifName: guilsinglleft
Width: 1024
VWidth: 0
Flags: W
LayerCount: 2
Fore
SplineSet
103 652 m 257
 103 569 l 257
 921 946 l 257
 921 1013 l 257
 103 652 l 257
103 652 m 257
 103 569 l 257
 915 122 l 257
 915 199 l 257
 103 652 l 257
EndSplineSet
EndChar

StartChar: guilsinglright
Encoding: 8250 8250 215
GlifName: guilsinglright
Width: 1024
VWidth: 0
Flags: W
LayerCount: 2
Fore
SplineSet
921 632 m 257
 105 1013 l 257
 105 952 l 257
 921 569 l 257
 921 632 l 257
921 632 m 257
 103 186 l 257
 103 122 l 257
 921 569 l 257
 921 632 l 257
EndSplineSet
EndChar

StartChar: h
Encoding: 104 104 216
GlifName: h
Width: 1024
VWidth: 0
Flags: W
LayerCount: 2
Fore
SplineSet
174 1525 m 257
 174 6 l 257
 233 6 l 257
 233 1525 l 257
 174 1525 l 257
214 1028 m 257
 214 968 l 257
 803 968 l 257
 803 1028 l 257
 214 1028 l 257
791 1028 m 257
 791 0 l 257
 850 0 l 257
 850 1028 l 257
 791 1028 l 257
EndSplineSet
EndChar

StartChar: hbar
Encoding: 295 295 217
GlifName: hbar
Width: 1024
VWidth: 0
Flags: W
LayerCount: 2
Fore
SplineSet
242 1541 m 257
 242 6 l 257
 302 6 l 257
 302 1541 l 257
 242 1541 l 257
276 1023 m 257
 276 966 l 257
 910 966 l 257
 910 1023 l 257
 276 1023 l 257
859 1023 m 257
 859 0 l 257
 918 0 l 257
 918 1023 l 257
 859 1023 l 257
106 1429 m 257
 106 1369 l 257
 562 1369 l 257
 562 1429 l 257
 106 1429 l 257
EndSplineSet
EndChar

StartChar: hungarumlaut
Encoding: 733 733 219
GlifName: hungarumlaut
Width: 1024
VWidth: 0
Flags: W
LayerCount: 2
Fore
SplineSet
202 122 m 257
 267 122 l 257
 267 370 l 257
 202 370 l 257
 202 122 l 257
605 122 m 257
 665 122 l 257
 665 370 l 257
 605 370 l 257
 605 122 l 257
EndSplineSet
EndChar

StartChar: hyphen
Encoding: 45 45 220
GlifName: hyphen
Width: 1024
VWidth: 0
Flags: W
LayerCount: 2
Fore
SplineSet
99 793 m 257
 99 695 l 257
 925 695 l 257
 925 793 l 257
 99 793 l 257
EndSplineSet
EndChar

StartChar: i
Encoding: 105 105 221
GlifName: i
Width: 1024
VWidth: 0
Flags: W
LayerCount: 2
Fore
SplineSet
510 1023 m 257
 510 52 l 257
 570 52 l 257
 570 1023 l 257
 510 1023 l 257
141 60 m 257
 141 0 l 257
 883 0 l 257
 883 60 l 257
 141 60 l 257
324 1292 m 257
 324 1174 l 257
 437 1174 l 257
 437 1292 l 257
 324 1292 l 257
191 1023 m 257
 191 962 l 257
 527 962 l 257
 527 1023 l 257
 191 1023 l 257
EndSplineSet
EndChar

StartChar: j
Encoding: 106 106 231
GlifName: j
Width: 1024
VWidth: 0
Flags: W
LayerCount: 2
Fore
SplineSet
768 1023 m 257
 768 -411 l 257
 826 -411 l 257
 826 1023 l 257
 768 1023 l 257
198 -348 m 257
 198 -406 l 257
 788 -406 l 257
 788 -348 l 257
 198 -348 l 257
198 -6 m 257
 198 -378 l 257
 258 -378 l 257
 258 -6 l 257
 198 -6 l 257
766 1201 m 257
 766 1142 l 257
 826 1142 l 257
 826 1201 l 257
 766 1201 l 257
EndSplineSet
EndChar

StartChar: k
Encoding: 107 107 233
GlifName: k
Width: 1024
VWidth: 0
Flags: W
LayerCount: 2
Fore
SplineSet
76 1535 m 257
 76 5 l 257
 136 5 l 257
 136 1535 l 257
 76 1535 l 257
125 421 m 257
 125 352 l 257
 782 1023 l 257
 722 1023 l 257
 125 421 l 257
372 612 m 257
 330 569 l 257
 887 0 l 257
 948 0 l 257
 372 612 l 257
EndSplineSet
EndChar

StartChar: l
Encoding: 108 108 234
GlifName: l
Width: 1024
VWidth: 0
Flags: W
LayerCount: 2
Fore
SplineSet
195 72 m 257
 195 0 l 257
 829 0 l 257
 829 72 l 257
 195 72 l 257
482 1553 m 257
 482 57 l 257
 542 57 l 257
 542 1553 l 257
 482 1553 l 257
256 1553 m 257
 256 1494 l 257
 491 1494 l 257
 491 1553 l 257
 256 1553 l 257
EndSplineSet
EndChar

StartChar: lcaron
Encoding: 318 318 236
GlifName: lcaron
Width: 1024
VWidth: 0
Flags: W
LayerCount: 2
Fore
SplineSet
196 62 m 257
 196 0 l 257
 830 0 l 257
 830 62 l 257
 196 62 l 257
492 1550 m 257
 492 46 l 257
 550 46 l 257
 550 1550 l 257
 492 1550 l 257
194 1550 m 257
 194 1489 l 257
 506 1489 l 257
 506 1550 l 257
 194 1550 l 257
630 1496 m 257
 630 1264 l 257
 682 1264 l 257
 682 1496 l 257
 630 1496 l 257
EndSplineSet
EndChar

StartChar: less
Encoding: 60 60 238
GlifName: less
Width: 1024
VWidth: 0
Flags: W
LayerCount: 2
Fore
SplineSet
103 652 m 257
 103 569 l 257
 921 946 l 257
 921 1013 l 257
 103 652 l 257
103 652 m 257
 103 569 l 257
 915 122 l 257
 915 199 l 257
 103 652 l 257
EndSplineSet
EndChar

StartChar: logicalnot
Encoding: 172 172 239
GlifName: logicalnot
Width: 1024
VWidth: 0
Flags: W
LayerCount: 2
Fore
SplineSet
729 935 m 257
 729 640 l 257
 782 640 l 257
 782 935 l 257
 729 935 l 257
242 935 m 257
 242 875 l 257
 776 875 l 257
 776 935 l 257
 242 935 l 257
EndSplineSet
EndChar

StartChar: lslash
Encoding: 322 322 240
GlifName: lslash
Width: 1024
VWidth: 0
Flags: W
LayerCount: 2
Fore
SplineSet
195 60 m 257
 195 0 l 257
 829 0 l 257
 829 60 l 257
 195 60 l 257
552 1553 m 257
 552 22 l 257
 612 22 l 257
 612 1553 l 257
 552 1553 l 257
256 1553 m 257
 256 1493 l 257
 578 1493 l 257
 578 1553 l 257
 256 1553 l 257
815 1039 m 257
 236 702 l 257
 338 702 l 257
 917 1039 l 257
 815 1039 l 257
EndSplineSet
EndChar

StartChar: m
Encoding: 109 109 241
GlifName: m
Width: 1024
VWidth: 0
Flags: W
LayerCount: 2
Fore
SplineSet
134 993 m 257
 134 0 l 257
 194 0 l 257
 194 993 l 257
 134 993 l 257
518 972 m 257
 518 0 l 257
 578 0 l 257
 578 972 l 257
 518 972 l 257
904 976 m 257
 904 0 l 257
 964 0 l 257
 964 976 l 257
 904 976 l 257
60 1023 m 257
 60 966 l 257
 964 966 l 257
 964 1023 l 257
 60 1023 l 257
EndSplineSet
EndChar

StartChar: macron
Encoding: 175 175 242
GlifName: macron
Width: 1024
VWidth: 0
Flags: W
LayerCount: 2
Fore
SplineSet
236 1015 m 257
 236 970 l 257
 796 970 l 257
 796 1015 l 257
 236 1015 l 257
EndSplineSet
EndChar

StartChar: mu
Encoding: 181 181 244
GlifName: mu
Width: 1024
VWidth: 0
Flags: W
LayerCount: 2
Fore
SplineSet
774 935 m 257
 774 0 l 257
 834 0 l 257
 834 935 l 257
 774 935 l 257
236 60 m 257
 236 0 l 257
 804 0 l 257
 804 60 l 257
 236 60 l 257
190 935 m 257
 190 -430 l 257
 252 -430 l 257
 252 935 l 257
 190 935 l 257
EndSplineSet
EndChar

StartChar: multiply
Encoding: 215 215 245
GlifName: multiply
Width: 1024
VWidth: 0
Flags: W
LayerCount: 2
Fore
SplineSet
96 295 m 257
 192 295 l 257
 920 1323 l 257
 838 1323 l 257
 96 295 l 257
94 1322 m 257
 842 288 l 257
 930 288 l 257
 178 1322 l 257
 94 1322 l 257
EndSplineSet
EndChar

StartChar: n
Encoding: 110 110 246
GlifName: n
Width: 1024
VWidth: 0
Flags: W
LayerCount: 2
Fore
SplineSet
302 990 m 257
 302 0 l 257
 363 0 l 257
 363 990 l 257
 302 990 l 257
842 976 m 257
 842 0 l 257
 902 0 l 257
 902 976 l 257
 842 976 l 257
122 1023 m 257
 122 967 l 257
 900 967 l 257
 900 1023 l 257
 122 1023 l 257
EndSplineSet
EndChar

StartChar: nine
Encoding: 57 57 249
GlifName: nine
Width: 1024
VWidth: 0
Flags: W
LayerCount: 2
Fore
SplineSet
921 759 m 257
 921 59 l 257
 79 59 l 257
 79 0 l 257
 977 0 l 257
 977 1553 l 257
 57 1553 l 257
 57 1541 l 257
 57 759 l 257
 921 759 l 257
918 818 m 257
 117 818 l 257
 117 1495 l 257
 918 1495 l 257
 918 818 l 257
EndSplineSet
EndChar

StartChar: numbersign
Encoding: 35 35 251
GlifName: numbersign
Width: 1024
VWidth: 0
Flags: W
LayerCount: 2
Fore
SplineSet
229 1184 m 257
 229 99 l 257
 288 99 l 257
 288 1184 l 257
 229 1184 l 257
724 1192 m 257
 724 95 l 257
 795 95 l 257
 795 1192 l 257
 724 1192 l 257
105 995 m 257
 105 937 l 257
 906 937 l 257
 906 995 l 257
 105 995 l 257
109 493 m 257
 109 417 l 257
 919 417 l 257
 919 493 l 257
 109 493 l 257
EndSplineSet
EndChar

StartChar: o
Encoding: 111 111 252
GlifName: o
Width: 1024
VWidth: 0
Flags: W
LayerCount: 2
Fore
SplineSet
103 1023 m 257
 103 0 l 257
 162 0 l 257
 162 1023 l 257
 103 1023 l 257
860 1023 m 257
 860 0 l 257
 921 0 l 257
 921 1023 l 257
 860 1023 l 257
164 1023 m 257
 164 967 l 257
 865 967 l 257
 865 1023 l 257
 164 1023 l 257
149 62 m 257
 149 0 l 257
 868 0 l 257
 868 62 l 257
 149 62 l 257
EndSplineSet
EndChar

StartChar: oe
Encoding: 339 339 257
GlifName: oe
Width: 1024
VWidth: 0
Flags: W
LayerCount: 2
Fore
SplineSet
587 506 m 257
 587 446 l 257
 887 446 l 257
 887 506 l 257
 587 506 l 257
862 1023 m 257
 862 445 l 257
 921 445 l 257
 921 1023 l 257
 862 1023 l 257
93 1023 m 257
 93 0 l 257
 152 0 l 257
 152 1023 l 257
 93 1023 l 257
548 1023 m 257
 548 0 l 257
 609 0 l 257
 609 1023 l 257
 548 1023 l 257
148 1023 m 257
 148 964 l 257
 922 964 l 257
 922 1023 l 257
 148 1023 l 257
139 62 m 257
 139 0 l 257
 931 0 l 257
 931 62 l 257
 139 62 l 257
EndSplineSet
EndChar

StartChar: ogonek
Encoding: 731 731 258
GlifName: ogonek
Width: 1024
VWidth: 0
Flags: W
LayerCount: 2
Fore
SplineSet
227 -300 m 257
 227 -360 l 257
 768 -360 l 257
 768 -300 l 257
 227 -300 l 257
227 51 m 257
 227 -360 l 257
 287 -360 l 257
 287 51 l 257
 227 51 l 257
227 51 m 257
 227 -8 l 257
 769 -8 l 257
 769 51 l 257
 227 51 l 257
EndSplineSet
EndChar

StartChar: one
Encoding: 49 49 263
GlifName: one
Width: 1024
VWidth: 0
Flags: W
LayerCount: 2
Fore
SplineSet
551 0 m 257
 611 0 l 257
 611 1550 l 257
 551 1550 l 257
 551 0 l 257
551 1550 m 257
 432 1426 l 257
 483 1398 l 257
 611 1550 l 257
 551 1550 l 257
EndSplineSet
EndChar

StartChar: onehalf
Encoding: 189 189 264
GlifName: onehalf
Width: 1024
VWidth: 0
Flags: W
LayerCount: 2
Fore
SplineSet
684 1480 m 257
 97 10 l 257
 200 10 l 257
 787 1480 l 257
 684 1480 l 257
297 1017 m 257
 361 1017 l 257
 361 1550 l 257
 297 1550 l 257
 297 1017 l 257
297 1550 m 257
 170 1508 l 257
 224 1498 l 257
 361 1550 l 257
 297 1550 l 257
605 623 m 257
 895 623 l 257
 895 381 l 257
 608 381 l 257
 608 0 l 257
 913 0 l 257
 913 25 l 257
 631 25 l 257
 631 356 l 257
 918 356 l 257
 918 648 l 257
 605 648 l 257
 605 623 l 257
EndSplineSet
EndChar

StartChar: onequarter
Encoding: 188 188 265
GlifName: onequarter
Width: 1024
VWidth: 0
Flags: W
LayerCount: 2
Fore
SplineSet
666 1480 m 257
 79 10 l 257
 182 10 l 257
 769 1480 l 257
 666 1480 l 257
307 1045 m 257
 361 1045 l 257
 361 1550 l 257
 307 1550 l 257
 307 1045 l 257
312 1550 m 257
 202 1428 l 257
 222 1391 l 257
 341 1541 l 257
 312 1550 l 257
568 379 m 257
 907 379 l 257
 907 7 l 257
 932 7 l 257
 932 768 l 257
 906 768 l 257
 906 409 l 257
 594 409 l 257
 594 770 l 257
 568 770 l 257
 568 379 l 257
EndSplineSet
EndChar

StartChar: ordfeminine
Encoding: 170 170 266
GlifName: ordfeminine
Width: 1024
VWidth: 0
Flags: W
LayerCount: 2
Fore
SplineSet
181 1319 m 257
 181 1252 l 257
 830 1252 l 257
 830 1319 l 257
 181 1319 l 257
792 1320 m 257
 792 296 l 257
 869 296 l 257
 869 1320 l 257
 792 1320 l 257
184 895 m 257
 184 833 l 257
 808 833 l 257
 808 895 l 257
 184 895 l 257
185 872 m 257
 185 294 l 257
 256 294 l 257
 256 872 l 257
 185 872 l 257
194 369 m 257
 194 294 l 257
 858 294 l 257
 858 369 l 257
 194 369 l 257
78 67 m 257
 78 0 l 257
 946 0 l 257
 946 67 l 257
 78 67 l 257
EndSplineSet
EndChar

StartChar: ordmasculine
Encoding: 186 186 267
GlifName: ordmasculine
Width: 1024
VWidth: 0
Flags: W
LayerCount: 2
Fore
SplineSet
108 1023 m 257
 108 0 l 257
 167 0 l 257
 167 1023 l 257
 108 1023 l 257
865 1023 m 257
 865 0 l 257
 926 0 l 257
 926 1023 l 257
 865 1023 l 257
169 1023 m 257
 169 967 l 257
 870 967 l 257
 870 1023 l 257
 169 1023 l 257
154 62 m 257
 154 0 l 257
 873 0 l 257
 873 62 l 257
 154 62 l 257
0 -70 m 257
 0 -136 l 257
 1024 -136 l 257
 1024 -70 l 257
 0 -70 l 257
EndSplineSet
EndChar

StartChar: oslash
Encoding: 248 248 268
GlifName: oslash
Width: 1024
VWidth: 0
Flags: W
LayerCount: 2
Fore
SplineSet
916 1125 m 257
 66 -36 l 257
 106 -70 l 257
 958 1073 l 257
 916 1125 l 257
100 1023 m 257
 100 0 l 257
 160 0 l 257
 160 1023 l 257
 100 1023 l 257
856 1023 m 257
 856 0 l 257
 916 0 l 257
 916 1023 l 257
 856 1023 l 257
142 1023 m 257
 142 963 l 257
 888 963 l 257
 888 1023 l 257
 142 1023 l 257
144 63 m 257
 144 0 l 257
 892 0 l 257
 892 63 l 257
 144 63 l 257
EndSplineSet
EndChar

StartChar: p
Encoding: 112 112 271
GlifName: p
Width: 1024
VWidth: 0
Flags: W
LayerCount: 2
Fore
SplineSet
191 1181 m 257
 191 -406 l 257
 251 -406 l 257
 251 1181 l 257
 191 1181 l 257
235 1023 m 257
 235 964 l 257
 821 964 l 257
 821 1023 l 257
 235 1023 l 257
237 61 m 257
 237 0 l 257
 833 0 l 257
 833 61 l 257
 237 61 l 257
773 1023 m 257
 773 0 l 257
 831 0 l 257
 831 1023 l 257
 773 1023 l 257
EndSplineSet
EndChar

StartChar: paragraph
Encoding: 182 182 272
GlifName: paragraph
Width: 1024
VWidth: 0
Flags: W
LayerCount: 2
Fore
SplineSet
90 1044 m 257
 90 985 l 257
 654 985 l 257
 654 1044 l 257
 90 1044 l 257
90 1550 m 257
 90 1000 l 257
 152 1000 l 257
 152 1550 l 257
 90 1550 l 257
90 1550 m 257
 90 1493 l 257
 910 1493 l 257
 910 1550 l 257
 90 1550 l 257
640 1550 m 257
 640 0 l 257
 704 0 l 257
 704 1550 l 257
 640 1550 l 257
872 1550 m 257
 872 0 l 257
 934 0 l 257
 934 1550 l 257
 872 1550 l 257
EndSplineSet
EndChar

StartChar: parenleft
Encoding: 40 40 273
GlifName: parenleft
Width: 1024
VWidth: 0
Flags: W
LayerCount: 2
Fore
SplineSet
316 1023 m 257
 316 179 l 257
 444 179 l 257
 444 1023 l 257
 316 1023 l 257
680 1636 m 257
 316 1023 l 257
 444 1023 l 257
 708 1633 l 257
 680 1636 l 257
316 179 m 257
 654 -309 l 257
 682 -309 l 257
 444 179 l 257
 316 179 l 257
EndSplineSet
EndChar

StartChar: parenright
Encoding: 41 41 274
GlifName: parenright
Width: 1024
VWidth: 0
Flags: W
LayerCount: 2
Fore
SplineSet
550 1023 m 257
 550 179 l 257
 678 179 l 257
 678 1023 l 257
 550 1023 l 257
346 1635 m 257
 550 1023 l 257
 678 1023 l 257
 384 1635 l 257
 346 1635 l 257
550 179 m 257
 346 -309 l 257
 374 -309 l 257
 678 179 l 257
 550 179 l 257
EndSplineSet
EndChar

StartChar: percent
Encoding: 37 37 275
GlifName: percent
Width: 1024
VWidth: 0
Flags: W
LayerCount: 2
Fore
SplineSet
122 444 m 257
 151 417 l 257
 898 775 l 257
 879 801 l 257
 122 444 l 257
228 1148 m 257
 228 803 l 257
 259 803 l 257
 259 1148 l 257
 228 1148 l 257
228 1152 m 257
 228 1126 l 257
 575 1126 l 257
 575 1152 l 257
 228 1152 l 257
228 826 m 257
 228 789 l 257
 572 789 l 257
 572 826 l 257
 228 826 l 257
539 1152 m 257
 539 791 l 257
 575 791 l 257
 575 1152 l 257
 539 1152 l 257
555 436 m 257
 555 94 l 257
 598 94 l 257
 598 436 l 257
 555 436 l 257
555 440 m 257
 555 397 l 257
 902 397 l 257
 902 440 l 257
 555 440 l 257
555 109 m 257
 555 77 l 257
 899 77 l 257
 899 109 l 257
 555 109 l 257
868 440 m 257
 868 79 l 257
 902 79 l 257
 902 440 l 257
 868 440 l 257
EndSplineSet
EndChar

StartChar: period
Encoding: 46 46 276
GlifName: period
Width: 1024
VWidth: 0
Flags: W
LayerCount: 2
Fore
SplineSet
440 113 m 257
 440 0 l 257
 584 0 l 257
 584 113 l 257
 440 113 l 257
EndSplineSet
EndChar

StartChar: periodcentered
Encoding: 183 183 277
GlifName: periodcentered
Width: 1024
VWidth: 0
Flags: W
LayerCount: 2
Fore
SplineSet
464 1056 m 257
 464 955 l 257
 560 955 l 257
 560 1056 l 257
 464 1056 l 257
EndSplineSet
EndChar

StartChar: perthousand
Encoding: 8240 8240 278
GlifName: perthousand
Width: 1024
VWidth: 0
Flags: W
LayerCount: 2
Fore
SplineSet
662 436 m 257
 662 110 l 257
 706 110 l 257
 706 436 l 257
 662 436 l 257
662 440 m 257
 662 386 l 257
 1008 386 l 257
 1008 440 l 257
 662 440 l 257
662 125 m 257
 662 77 l 257
 1006 77 l 257
 1006 125 l 257
 662 125 l 257
960 440 m 257
 960 79 l 257
 1008 79 l 257
 1008 440 l 257
 960 440 l 257
16 522 m 257
 58 463 l 257
 882 802 l 257
 838 860 l 257
 16 522 l 257
156 1148 m 257
 156 822 l 257
 200 822 l 257
 200 1148 l 257
 156 1148 l 257
156 1152 m 257
 156 1092 l 257
 502 1092 l 257
 502 1152 l 257
 156 1152 l 257
156 837 m 257
 156 789 l 257
 500 789 l 257
 500 837 l 257
 156 837 l 257
456 1152 m 257
 456 791 l 257
 502 791 l 257
 502 1152 l 257
 456 1152 l 257
260 436 m 257
 260 110 l 257
 306 110 l 257
 306 436 l 257
 260 436 l 257
260 440 m 257
 260 386 l 257
 608 386 l 257
 608 440 l 257
 260 440 l 257
260 125 m 257
 260 77 l 257
 604 77 l 257
 604 125 l 257
 260 125 l 257
560 440 m 257
 560 79 l 257
 608 79 l 257
 608 440 l 257
 560 440 l 257
EndSplineSet
EndChar

StartChar: plus
Encoding: 43 43 279
GlifName: plus
Width: 1024
VWidth: 0
Flags: W
LayerCount: 2
Fore
SplineSet
434 1221 m 257
 434 165 l 257
 544 165 l 257
 544 1221 l 257
 434 1221 l 257
61 796 m 257
 61 693 l 257
 963 693 l 257
 963 796 l 257
 61 796 l 257
EndSplineSet
EndChar

StartChar: plusminus
Encoding: 177 177 280
GlifName: plusminus
Width: 1024
VWidth: 0
Flags: W
LayerCount: 2
Fore
SplineSet
99 110 m 257
 99 48 l 257
 925 48 l 257
 925 110 l 257
 99 110 l 257
466 1221 m 257
 466 228 l 257
 527 228 l 257
 527 1221 l 257
 466 1221 l 257
61 744 m 257
 61 686 l 257
 963 686 l 257
 963 744 l 257
 61 744 l 257
EndSplineSet
EndChar

StartChar: q
Encoding: 113 113 281
GlifName: q
Width: 1024
VWidth: 0
Flags: W
LayerCount: 2
Fore
SplineSet
750 1188 m 257
 750 -406 l 257
 810 -406 l 257
 810 1188 l 257
 750 1188 l 257
146 1023 m 257
 146 961 l 257
 794 961 l 257
 794 1023 l 257
 146 1023 l 257
152 57 m 257
 152 0 l 257
 768 0 l 257
 768 57 l 257
 152 57 l 257
138 1023 m 257
 138 0 l 257
 196 0 l 257
 196 1023 l 257
 138 1023 l 257
754 -344 m 257
 754 -406 l 257
 886 -406 l 257
 886 -344 l 257
 754 -344 l 257
EndSplineSet
EndChar

StartChar: question
Encoding: 63 63 282
GlifName: question
Width: 1024
VWidth: 0
Flags: W
LayerCount: 2
Fore
SplineSet
368 134 m 257
 368 0 l 257
 480 0 l 257
 480 134 l 257
 368 134 l 257
192 1519 m 257
 192 1426 l 257
 828 1426 l 257
 828 1519 l 257
 192 1519 l 257
746 1514 m 257
 746 966 l 257
 832 966 l 257
 832 1514 l 257
 746 1514 l 257
368 1015 m 257
 368 948 l 257
 832 948 l 257
 832 1015 l 257
 368 1015 l 257
368 1011 m 257
 368 392 l 257
 464 392 l 257
 464 1011 l 257
 368 1011 l 257
EndSplineSet
EndChar

StartChar: questiondown
Encoding: 191 191 283
GlifName: questiondown
Width: 1024
VWidth: 0
Flags: W
LayerCount: 2
Fore
SplineSet
656 1273 m 257
 656 1519 l 257
 598 1519 l 257
 598 1272 l 257
 656 1273 l 257
832 0 m 257
 832 61 l 257
 196 61 l 257
 196 0 l 257
 832 0 l 257
252 5 m 257
 252 553 l 257
 192 553 l 257
 192 5 l 257
 252 5 l 257
656 504 m 257
 656 566 l 257
 192 566 l 257
 192 504 l 257
 656 504 l 257
656 508 m 257
 656 1127 l 257
 598 1127 l 257
 598 508 l 257
 656 508 l 257
EndSplineSet
EndChar

StartChar: quotedbl
Encoding: 34 34 284
GlifName: quotedbl
Width: 1024
VWidth: 0
Flags: W
LayerCount: 2
Fore
SplineSet
280 1326 m 257
 346 1326 l 257
 346 1574 l 257
 280 1574 l 257
 280 1326 l 257
684 1326 m 257
 744 1326 l 257
 744 1574 l 257
 684 1574 l 257
 684 1326 l 257
EndSplineSet
EndChar

StartChar: quotedblbase
Encoding: 8222 8222 285
GlifName: quotedblbase
Width: 1024
VWidth: 0
Flags: W
LayerCount: 2
Fore
SplineSet
453 126 m 257
 453 8 l 257
 562 8 l 257
 562 126 l 257
 453 126 l 257
453 8 m 257
 383 -118 l 257
 437 -129 l 257
 562 8 l 257
 453 8 l 257
678 126 m 257
 678 8 l 257
 787 8 l 257
 787 126 l 257
 678 126 l 257
678 8 m 257
 608 -118 l 257
 662 -129 l 257
 787 8 l 257
 678 8 l 257
EndSplineSet
EndChar

StartChar: quotedblleft
Encoding: 8220 8220 286
GlifName: quotedblleft
Width: 1024
VWidth: 0
Flags: W
LayerCount: 2
Fore
SplineSet
485 1953 m 257
 485 2067 l 257
 361 2067 l 257
 361 1953 l 257
 485 1953 l 257
436 2004 m 257
 495 2144 l 257
 423 2174 l 257
 362 2069 l 257
 436 2004 l 257
653 1953 m 257
 653 2067 l 257
 529 2067 l 257
 529 1953 l 257
 653 1953 l 257
604 2004 m 257
 663 2144 l 257
 591 2174 l 257
 530 2069 l 257
 604 2004 l 257
EndSplineSet
EndChar

StartChar: quotedblright
Encoding: 8221 8221 287
GlifName: quotedblright
Width: 1024
VWidth: 0
Flags: W
LayerCount: 2
Fore
SplineSet
534 2174 m 257
 534 2060 l 257
 658 2060 l 257
 658 2174 l 257
 534 2174 l 257
584 2123 m 257
 525 1983 l 257
 596 1953 l 257
 657 2058 l 257
 584 2123 l 257
375 2174 m 257
 375 2060 l 257
 499 2060 l 257
 499 2174 l 257
 375 2174 l 257
425 2123 m 257
 366 1983 l 257
 437 1953 l 257
 498 2058 l 257
 425 2123 l 257
EndSplineSet
EndChar

StartChar: quoteleft
Encoding: 8216 8216 288
GlifName: quoteleft
Width: 1024
VWidth: 0
Flags: W
LayerCount: 2
Fore
SplineSet
519 1913 m 257
 519 2078 l 257
 387 2078 l 257
 387 1917 l 257
 519 1913 l 257
484 2066 m 257
 550 2275 l 257
 480 2285 l 257
 394 2054 l 257
 484 2066 l 257
EndSplineSet
EndChar

StartChar: quoteright
Encoding: 8217 8217 289
GlifName: quoteright
Width: 1024
VWidth: 0
Flags: W
LayerCount: 2
Fore
SplineSet
530 2168 m 257
 530 2056 l 257
 646 2056 l 257
 646 2168 l 257
 530 2168 l 257
589 2140 m 257
 544 1927 l 257
 598 1882 l 257
 646 2056 l 257
 589 2140 l 257
EndSplineSet
EndChar

StartChar: quotesinglbase
Encoding: 8218 8218 290
GlifName: quotesinglbase
Width: 1024
VWidth: 0
Flags: W
LayerCount: 2
Fore
SplineSet
537 126 m 257
 537 8 l 257
 646 8 l 257
 646 126 l 257
 537 126 l 257
537 8 m 257
 467 -118 l 257
 521 -129 l 257
 646 8 l 257
 537 8 l 257
EndSplineSet
EndChar

StartChar: quotesingle
Encoding: 39 39 291
GlifName: quotesingle
Width: 1024
VWidth: 0
Flags: W
LayerCount: 2
Fore
SplineSet
480 1496 m 257
 480 1317 l 257
 544 1317 l 257
 544 1496 l 257
 480 1496 l 257
EndSplineSet
EndChar

StartChar: r
Encoding: 114 114 292
GlifName: r
Width: 1024
VWidth: 0
Flags: W
LayerCount: 2
Fore
SplineSet
146 1023 m 257
 146 961 l 257
 878 961 l 257
 878 1023 l 257
 146 1023 l 257
360 989 m 257
 360 0 l 257
 420 0 l 257
 420 989 l 257
 360 989 l 257
818 976 m 257
 818 650 l 257
 878 650 l 257
 878 976 l 257
 818 976 l 257
EndSplineSet
EndChar

StartChar: registered
Encoding: 174 174 295
GlifName: registered
Width: 1024
VWidth: 0
Flags: W
LayerCount: 2
Fore
SplineSet
397 1032 m 257
 397 501 l 257
 434 501 l 257
 434 1032 l 257
 397 1032 l 257
422 1032 m 257
 422 994 l 257
 651 994 l 257
 651 1032 l 257
 422 1032 l 257
622 1032 m 257
 622 802 l 257
 660 802 l 257
 660 1032 l 257
 622 1032 l 257
418 848 m 257
 418 801 l 257
 656 801 l 257
 656 848 l 257
 418 848 l 257
465 809 m 257
 664 500 l 257
 707 500 l 257
 500 809 l 257
 465 809 l 257
41 1540 m 257
 41 0 l 257
 103 0 l 257
 103 1540 l 257
 41 1540 l 257
921 1537 m 257
 921 0 l 257
 983 0 l 257
 983 1537 l 257
 921 1537 l 257
80 1538 m 257
 80 1478 l 257
 952 1478 l 257
 952 1538 l 257
 80 1538 l 257
76 61 m 257
 76 0 l 257
 968 0 l 257
 968 61 l 257
 76 61 l 257
EndSplineSet
EndChar

StartChar: ring
Encoding: 730 730 296
GlifName: ring
Width: 1024
VWidth: 0
Flags: W
LayerCount: 2
Fore
SplineSet
418 1302 m 257
 708 1302 l 257
 708 1049 l 257
 418 1049 l 257
 418 1302 l 257
384 1331 m 257
 384 1023 l 257
 744 1023 l 257
 744 1331 l 257
 384 1331 l 257
EndSplineSet
EndChar

StartChar: s
Encoding: 115 115 297
GlifName: s
Width: 1024
VWidth: 0
Flags: W
LayerCount: 2
Fore
SplineSet
208 1023 m 257
 208 964 l 257
 816 964 l 257
 816 1023 l 257
 208 1023 l 257
208 1023 m 257
 208 736 l 257
 268 736 l 257
 268 1023 l 257
 208 1023 l 257
208 59 m 257
 208 0 l 257
 814 0 l 257
 814 59 l 257
 208 59 l 257
752 299 m 257
 752 12 l 257
 814 12 l 257
 814 299 l 257
 752 299 l 257
208 736 m 257
 752 299 l 257
 814 299 l 257
 268 736 l 257
 208 736 l 257
EndSplineSet
EndChar

StartChar: section
Encoding: 167 167 302
GlifName: section
Width: 1024
VWidth: 0
Flags: W
LayerCount: 2
Fore
SplineSet
126 1237 m 257
 126 1178 l 257
 724 1178 l 257
 724 1237 l 257
 126 1237 l 257
126 1237 m 257
 126 605 l 257
 189 605 l 257
 189 1237 l 257
 126 1237 l 257
163 -200 m 257
 163 -260 l 257
 871 -260 l 257
 871 -200 l 257
 163 -200 l 257
838 -259 m 257
 898 -259 l 257
 898 95 l 257
 838 95 l 257
 838 -259 l 257
126 606 m 257
 837 88 l 257
 898 88 l 257
 184 606 l 257
 126 606 l 257
126 1626 m 257
 126 1566 l 257
 724 1566 l 257
 724 1626 l 257
 126 1626 l 257
126 1629 m 257
 126 1237 l 257
 189 1237 l 257
 189 1629 l 257
 126 1629 l 257
154 88 m 257
 154 39 l 257
 862 39 l 257
 862 88 l 257
 154 88 l 257
837 88 m 257
 898 88 l 257
 898 442 l 257
 837 442 l 257
 837 88 l 257
126 1237 m 257
 838 442 l 257
 898 442 l 257
 189 1237 l 257
 126 1237 l 257
EndSplineSet
EndChar

StartChar: semicolon
Encoding: 59 59 303
GlifName: semicolon
Width: 1024
VWidth: 0
Flags: W
LayerCount: 2
Fore
SplineSet
444 164 m 257
 444 7 l 257
 580 7 l 257
 580 164 l 257
 444 164 l 257
528 135 m 257
 486 -99 l 257
 536 -148 l 257
 578 26 l 257
 528 135 l 257
444 503 m 257
 444 346 l 257
 580 346 l 257
 580 503 l 257
 444 503 l 257
EndSplineSet
EndChar

StartChar: seven
Encoding: 55 55 304
GlifName: seven
Width: 1024
VWidth: 0
Flags: W
LayerCount: 2
Fore
SplineSet
54 1495 m 257
 905 1495 l 257
 905 0 l 257
 967 0 l 257
 967 1553 l 257
 54 1553 l 257
 54 1495 l 257
EndSplineSet
EndChar

StartChar: six
Encoding: 54 54 305
GlifName: six
Width: 1024
VWidth: 0
Flags: W
LayerCount: 2
Fore
SplineSet
41 1550 m 257
 41 201 l 257
 41 0 l 257
 980 0 l 257
 980 819 l 257
 103 819 l 257
 103 1488 l 257
 985 1488 l 257
 985 1550 l 257
 41 1550 l 257
918 759 m 257
 918 63 l 257
 109 63 l 257
 109 759 l 257
 918 759 l 257
EndSplineSet
EndChar

StartChar: slash
Encoding: 47 47 306
GlifName: slash
Width: 1024
VWidth: 0
Flags: W
LayerCount: 2
Fore
SplineSet
754 1480 m 257
 167 10 l 257
 270 10 l 257
 857 1480 l 257
 754 1480 l 257
EndSplineSet
EndChar

StartChar: sterling
Encoding: 163 163 308
GlifName: sterling
Width: 1024
VWidth: 0
Flags: W
LayerCount: 2
Fore
SplineSet
435 1543 m 257
 435 1482 l 257
 624 1482 l 257
 624 1543 l 257
 435 1543 l 257
97 770 m 257
 97 705 l 257
 823 705 l 257
 823 770 l 257
 97 770 l 257
411 1542 m 257
 411 0 l 257
 487 0 l 257
 487 1542 l 257
 411 1542 l 257
201 72 m 257
 201 0 l 257
 927 0 l 257
 927 72 l 257
 201 72 l 257
EndSplineSet
EndChar

StartChar: t
Encoding: 116 116 309
GlifName: t
Width: 1024
VWidth: 0
Flags: W
LayerCount: 2
Fore
SplineSet
464 1529 m 257
 464 0 l 257
 524 0 l 257
 524 1529 l 257
 464 1529 l 257
476 60 m 257
 476 0 l 257
 868 0 l 257
 868 60 l 257
 476 60 l 257
156 1023 m 257
 156 965 l 257
 830 965 l 257
 830 1023 l 257
 156 1023 l 257
EndSplineSet
EndChar

StartChar: tcaron
Encoding: 357 357 310
GlifName: tcaron
Width: 1024
VWidth: 0
Flags: W
LayerCount: 2
Fore
SplineSet
464 1529 m 257
 464 0 l 257
 524 0 l 257
 524 1529 l 257
 464 1529 l 257
476 60 m 257
 476 0 l 257
 868 0 l 257
 868 60 l 257
 476 60 l 257
156 1023 m 257
 156 965 l 257
 830 965 l 257
 830 1023 l 257
 156 1023 l 257
654 1496 m 257
 654 1317 l 257
 716 1317 l 257
 716 1496 l 257
 654 1496 l 257
EndSplineSet
EndChar

StartChar: thorn
Encoding: 254 254 311
GlifName: thorn
Width: 1024
VWidth: 0
Flags: W
LayerCount: 2
Fore
SplineSet
142 1034 m 257
 142 -406 l 257
 200 -406 l 257
 200 1034 l 257
 142 1034 l 257
194 667 m 257
 194 605 l 257
 882 605 l 257
 882 667 l 257
 194 667 l 257
180 -135 m 257
 180 -195 l 257
 882 -195 l 257
 882 -135 l 257
 180 -135 l 257
822 646 m 257
 822 -170 l 257
 882 -170 l 257
 882 646 l 257
 822 646 l 257
EndSplineSet
EndChar

StartChar: three
Encoding: 51 51 312
GlifName: three
Width: 1024
VWidth: 0
Flags: W
LayerCount: 2
Fore
SplineSet
101 736 m 257
 903 736 l 257
 903 52 l 257
 59 52 l 257
 68 -8 l 257
 963 -8 l 257
 963 1550 l 257
 89 1550 l 257
 89 1493 l 257
 901 1493 l 257
 901 796 l 257
 101 796 l 257
 101 736 l 257
EndSplineSet
EndChar

StartChar: threequarters
Encoding: 190 190 313
GlifName: threequarters
Width: 1024
VWidth: 0
Flags: W
LayerCount: 2
Fore
SplineSet
703 1483 m 257
 133 6 l 257
 176 -67 l 257
 746 1410 l 257
 703 1483 l 257
77 1272 m 257
 395 1272 l 257
 395 1084 l 257
 59 1084 l 257
 59 1015 l 257
 441 1015 l 257
 441 1553 l 257
 72 1553 l 257
 72 1484 l 257
 394 1484 l 257
 394 1340 l 257
 77 1340 l 257
 77 1272 l 257
643 340 m 257
 946 340 l 257
 946 7 l 257
 989 7 l 257
 989 687 l 257
 945 687 l 257
 945 386 l 257
 690 386 l 257
 690 689 l 257
 643 689 l 257
 643 340 l 257
EndSplineSet
EndChar

StartChar: tilde
Encoding: 732 732 314
GlifName: tilde
Width: 1024
VWidth: 0
Flags: W
LayerCount: 2
Fore
SplineSet
418 279 m 257
 418 229 l 257
 768 158 l 257
 768 208 l 257
 418 279 l 257
178 223 m 257
 192 165 l 257
 418 229 l 257
 418 279 l 257
 178 223 l 257
768 208 m 257
 768 158 l 257
 950 309 l 257
 936 356 l 257
 768 208 l 257
EndSplineSet
EndChar

StartChar: tildecomb
Encoding: 771 771 315
GlifName: tildecomb
Width: 1024
VWidth: 0
Flags: W
LayerCount: 2
Fore
SplineSet
366 1966 m 257
 366 1916 l 257
 716 1845 l 257
 716 1895 l 257
 366 1966 l 257
126 1910 m 257
 140 1852 l 257
 366 1916 l 257
 366 1966 l 257
 126 1910 l 257
716 1895 m 257
 716 1845 l 257
 898 1996 l 257
 884 2043 l 257
 716 1895 l 257
EndSplineSet
EndChar

StartChar: two
Encoding: 50 50 317
GlifName: two
Width: 1024
VWidth: 0
Flags: W
LayerCount: 2
Fore
SplineSet
109 1484 m 257
 843 1484 l 257
 843 908 l 257
 116 908 l 257
 116 0 l 257
 889 0 l 257
 889 59 l 257
 176 59 l 257
 176 849 l 257
 903 849 l 257
 903 1544 l 257
 109 1544 l 257
 109 1484 l 257
EndSplineSet
EndChar

StartChar: u
Encoding: 117 117 318
GlifName: u
Width: 1024
VWidth: 0
Flags: W
LayerCount: 2
Fore
SplineSet
138 1034 m 257
 138 0 l 257
 198 0 l 257
 198 1034 l 257
 138 1034 l 257
712 1033 m 257
 712 0 l 257
 770 0 l 257
 770 1033 l 257
 712 1033 l 257
184 61 m 257
 184 0 l 257
 886 0 l 257
 886 61 l 257
 184 61 l 257
EndSplineSet
EndChar

StartChar: underscore
Encoding: 95 95 327
GlifName: underscore
Width: 1024
VWidth: 0
Flags: W
LayerCount: 2
Fore
SplineSet
0 0 m 257
 0 -40 l 257
 1024 -40 l 257
 1024 0 l 257
 0 0 l 257
EndSplineSet
EndChar

StartChar: uni00B2
Encoding: 178 178 329
GlifName: uni00B_2
Width: 1024
VWidth: 0
Flags: W
LayerCount: 2
Fore
SplineSet
371 1522 m 257
 724 1522 l 257
 724 1307 l 257
 374 1307 l 257
 374 969 l 257
 746 969 l 257
 746 991 l 257
 403 991 l 257
 403 1285 l 257
 753 1285 l 257
 753 1544 l 257
 371 1544 l 257
 371 1522 l 257
EndSplineSet
EndChar

StartChar: uni00B3
Encoding: 179 179 330
GlifName: uni00B_3
Width: 1024
VWidth: 0
Flags: W
LayerCount: 2
Fore
SplineSet
248 1246 m 257
 705 1246 l 257
 705 989 l 257
 223 989 l 257
 229 967 l 257
 739 967 l 257
 739 1550 l 257
 240 1550 l 257
 240 1529 l 257
 703 1529 l 257
 703 1268 l 257
 248 1268 l 257
 248 1246 l 257
EndSplineSet
EndChar

StartChar: uni00B9
Encoding: 185 185 331
GlifName: uni00B_9
Width: 1024
VWidth: 0
Flags: W
LayerCount: 2
Fore
SplineSet
536.25 887.5 m 257
 566.25 887.5 l 257
 566.25 1662.5 l 257
 536.25 1662.5 l 257
 536.25 887.5 l 257
536.25 1662.5 m 257
 476.75 1600.5 l 257
 502.25 1586.5 l 257
 566.25 1662.5 l 257
 536.25 1662.5 l 257
EndSplineSet
EndChar

StartChar: uni0123
Encoding: 291 291 333
GlifName: uni0123
Width: 1024
VWidth: 0
Flags: W
LayerCount: 2
Fore
SplineSet
226 1023 m 257
 226 0 l 257
 285 0 l 257
 285 1023 l 257
 226 1023 l 257
266 1023 m 257
 266 964 l 257
 782 964 l 257
 782 1023 l 257
 266 1023 l 257
743 1023 m 257
 743 -411 l 257
 804 -411 l 257
 804 1023 l 257
 743 1023 l 257
289 61 m 257
 289 0 l 257
 746 0 l 257
 746 61 l 257
 289 61 l 257
220 -354 m 257
 220 -413 l 257
 755 -413 l 257
 755 -354 l 257
 220 -354 l 257
445 1399 m 257
 445 1198 l 257
 506 1198 l 257
 506 1399 l 257
 445 1399 l 257
EndSplineSet
EndChar

StartChar: uni0192
Encoding: 402 402 344
GlifName: uni0192
Width: 1024
VWidth: 0
Flags: W
LayerCount: 2
Fore
SplineSet
485 1023 m 257
 485 -406 l 257
 546 -406 l 257
 546 1023 l 257
 485 1023 l 257
512 1023 m 257
 512 966 l 257
 957 966 l 257
 957 1023 l 257
 512 1023 l 257
229 559 m 257
 229 500 l 257
 860 500 l 257
 860 559 l 257
 229 559 l 257
167 -345 m 257
 167 -406 l 257
 539 -406 l 257
 539 -345 l 257
 167 -345 l 257
EndSplineSet
EndChar

StartChar: uni0237
Encoding: 567 567 383
GlifName: uni0237
Width: 1024
VWidth: 0
Flags: W
LayerCount: 2
Fore
SplineSet
768 1023 m 257
 768 -411 l 257
 826 -411 l 257
 826 1023 l 257
 768 1023 l 257
198 -348 m 257
 198 -406 l 257
 788 -406 l 257
 788 -348 l 257
 198 -348 l 257
198 -6 m 257
 198 -378 l 257
 258 -378 l 257
 258 -6 l 257
 198 -6 l 257
EndSplineSet
EndChar

StartChar: uni02C9
Encoding: 713 713 387
GlifName: uni02C_9
Width: 1024
VWidth: 0
Flags: W
LayerCount: 2
Fore
SplineSet
232 1630 m 257
 232 1550 l 257
 792 1550 l 257
 792 1630 l 257
 232 1630 l 257
EndSplineSet
EndChar

StartChar: uni02CA
Encoding: 714 714 388
GlifName: uni02C_A_
Width: 1024
VWidth: 0
Flags: W
LayerCount: 2
Fore
SplineSet
525 949 m 257
 446 764 l 257
 499 730 l 257
 578 915 l 257
 525 949 l 257
EndSplineSet
EndChar

StartChar: uni02CB
Encoding: 715 715 389
GlifName: uni02C_B_
Width: 1024
VWidth: 0
Flags: W
LayerCount: 2
Fore
SplineSet
420 877 m 257
 544 673 l 257
 604 727 l 257
 480 932 l 257
 420 877 l 257
EndSplineSet
EndChar

StartChar: uni0302
Encoding: 770 770 390
GlifName: uni0302
Width: 1024
VWidth: 0
Flags: W
LayerCount: 2
Fore
SplineSet
511 2308 m 257
 475 2308 l 257
 343 1998 l 257
 370 1981 l 257
 511 2308 l 257
478 2310 m 257
 640 1976 l 257
 681 1994 l 257
 515 2310 l 257
 478 2310 l 257
EndSplineSet
EndChar

StartChar: uni0304
Encoding: 772 772 391
GlifName: uni0304
Width: 1024
VWidth: 0
Flags: W
LayerCount: 2
Fore
SplineSet
232 1602 m 257
 232 1550 l 257
 792 1550 l 257
 792 1602 l 257
 232 1602 l 257
EndSplineSet
EndChar

StartChar: uni0306
Encoding: 774 774 392
GlifName: uni0306
Width: 1024
VWidth: 0
Flags: W
LayerCount: 2
Fore
SplineSet
677 1550 m 257
 677 1480 l 257
 842 1550 l 257
 842 1645 l 257
 677 1550 l 257
353 1550 m 257
 353 1480 l 257
 677 1480 l 257
 677 1550 l 257
 353 1550 l 257
182 1630 m 257
 182 1550 l 257
 353 1480 l 257
 353 1550 l 257
 182 1630 l 257
EndSplineSet
EndChar

StartChar: uni0307
Encoding: 775 775 393
GlifName: uni0307
Width: 1024
VWidth: 0
Flags: W
LayerCount: 2
Fore
SplineSet
456 1738 m 257
 456 1637 l 257
 568 1637 l 257
 568 1738 l 257
 456 1738 l 257
EndSplineSet
EndChar

StartChar: uni0308
Encoding: 776 776 394
GlifName: uni0308
Width: 1024
VWidth: 0
Flags: W
LayerCount: 2
Fore
SplineSet
335 1738 m 257
 335 1637 l 257
 447 1637 l 257
 447 1738 l 257
 335 1738 l 257
577 1738 m 257
 577 1637 l 257
 689 1637 l 257
 689 1738 l 257
 577 1738 l 257
EndSplineSet
EndChar

StartChar: uni030A
Encoding: 778 778 395
GlifName: uni030A_
Width: 1024
VWidth: 0
Flags: W
LayerCount: 2
Fore
SplineSet
366 1818 m 257
 656 1818 l 257
 656 1565 l 257
 366 1565 l 257
 366 1818 l 257
332 1847 m 257
 332 1538 l 257
 692 1538 l 257
 692 1847 l 257
 332 1847 l 257
EndSplineSet
EndChar

StartChar: uni030C
Encoding: 780 780 397
GlifName: uni030C_
Width: 1024
VWidth: 0
Flags: W
LayerCount: 2
Fore
SplineSet
532 1286 m 257
 391 1613 l 257
 364 1596 l 257
 496 1286 l 257
 532 1286 l 257
499 1285 m 257
 536 1285 l 257
 702 1600 l 257
 661 1618 l 257
 499 1285 l 257
EndSplineSet
EndChar

StartChar: uni0326
Encoding: 806 806 398
GlifName: uni0326
Width: 1024
VWidth: 0
Flags: W
LayerCount: 2
Fore
SplineSet
478 0 m 257
 478 -132 l 257
 590 -132 l 257
 590 0 l 257
 478 0 l 257
478 -132 m 257
 434 -246 l 257
 498 -273 l 257
 590 -132 l 257
 478 -132 l 257
EndSplineSet
EndChar

StartChar: uni0327
Encoding: 807 807 399
GlifName: uni0327
Width: 1024
VWidth: 0
Flags: W
LayerCount: 2
Fore
SplineSet
286 180 m 257
 286 -60 l 257
 344 -60 l 257
 344 180 l 257
 286 180 l 257
292 -347 m 257
 292 -406 l 257
 738 -406 l 257
 738 -347 l 257
 292 -347 l 257
679 0 m 257
 679 -372 l 257
 738 -372 l 257
 738 0 l 257
 679 0 l 257
292 0 m 257
 292 -60 l 257
 738 -60 l 257
 738 0 l 257
 292 0 l 257
EndSplineSet
EndChar

StartChar: uni0328
Encoding: 808 808 400
GlifName: uni0328
Width: 1024
VWidth: 0
Flags: W
LayerCount: 2
Fore
SplineSet
241 -351 m 257
 241 -411 l 257
 782 -411 l 257
 782 -351 l 257
 241 -351 l 257
241 0 m 257
 241 -411 l 257
 301 -411 l 257
 301 0 l 257
 241 0 l 257
241 0 m 257
 241 -59 l 257
 783 -59 l 257
 783 0 l 257
 241 0 l 257
EndSplineSet
EndChar

StartChar: uni0331
Encoding: 817 817 401
GlifName: uni0331
Width: 1024
VWidth: 0
Flags: W
LayerCount: 2
Fore
SplineSet
226 -204 m 257
 226 -248 l 257
 786 -248 l 257
 786 -204 l 257
 226 -204 l 257
EndSplineSet
EndChar

StartChar: uni0900
Encoding: 2304 2304 402
GlifName: uni0900
Width: 1024
VWidth: 0
Flags: W
LayerCount: 2
Fore
SplineSet
0 1550 m 257
 0 1488 l 257
 1027 1488 l 257
 1027 1550 l 257
 0 1550 l 257
185 2121 m 257
 185 1639 l 257
 245 1639 l 257
 245 2121 l 257
 185 2121 l 257
199 2122 m 257
 199 2061 l 257
 812 2061 l 257
 812 2122 l 257
 199 2122 l 257
471 1919 m 257
 471 1796 l 257
 588 1796 l 257
 588 1919 l 257
 471 1919 l 257
790 2122 m 257
 790 1636 l 257
 850 1636 l 257
 850 2122 l 257
 790 2122 l 257
EndSplineSet
EndChar

StartChar: uni0901
Encoding: 2305 2305 403
GlifName: uni0901
Width: 1024
VWidth: 0
Flags: W
LayerCount: 2
Fore
SplineSet
0 1550 m 257
 0 1488 l 257
 1027 1488 l 257
 1027 1550 l 257
 0 1550 l 257
136 2124 m 257
 136 1639 l 257
 196 1639 l 257
 196 2124 l 257
 136 2124 l 257
171 1699 m 257
 171 1639 l 257
 805 1639 l 257
 805 1699 l 257
 171 1699 l 257
438 1962 m 257
 438 1839 l 257
 555 1839 l 257
 555 1962 l 257
 438 1962 l 257
774 2130 m 257
 774 1639 l 257
 834 1639 l 257
 834 2130 l 257
 774 2130 l 257
EndSplineSet
EndChar

StartChar: uni0902
Encoding: 2306 2306 404
GlifName: uni0902
Width: 1024
VWidth: 0
Flags: W
LayerCount: 2
Fore
SplineSet
250 1700 m 257
 250 1580 l 257
 370 1580 l 257
 370 1700 l 257
 250 1700 l 257
0 1550 m 257
 0 1488 l 257
 1027 1488 l 257
 1027 1550 l 257
 0 1550 l 257
EndSplineSet
EndChar

StartChar: uni0903
Encoding: 2307 2307 405
GlifName: uni0903
Width: 1024
VWidth: 0
Flags: W
LayerCount: 2
Fore
SplineSet
471 410 m 257
 471 290 l 257
 591 290 l 257
 591 410 l 257
 471 410 l 257
433 1302 m 257
 433 1182 l 257
 553 1182 l 257
 553 1302 l 257
 433 1302 l 257
EndSplineSet
EndChar

StartChar: uni0904
Encoding: 2308 2308 406
GlifName: uni0904
Width: 1024
VWidth: 0
Flags: W
LayerCount: 2
Fore
SplineSet
259 2062 m 257
 259 1823 l 257
 320 1823 l 257
 320 2062 l 257
 259 2062 l 257
258 1866 m 257
 258 1809 l 257
 941 1809 l 257
 941 1866 l 257
 258 1866 l 257
881 1863 m 257
 881 1545 l 257
 941 1545 l 257
 941 1863 l 257
 881 1863 l 257
729 1550 m 257
 729 1488 l 257
 1026 1488 l 257
 1026 1550 l 257
 729 1550 l 257
908 1518 m 257
 908 0 l 257
 969 0 l 257
 969 1518 l 257
 908 1518 l 257
43 1550 m 257
 43 1487 l 257
 566 1487 l 257
 566 1550 l 257
 43 1550 l 257
533 1550 m 257
 533 34 l 257
 592 34 l 257
 592 1550 l 257
 533 1550 l 257
127 894 m 257
 127 835 l 257
 935 835 l 257
 935 894 l 257
 127 894 l 257
18 65 m 257
 18 0 l 257
 592 0 l 257
 592 65 l 257
 18 65 l 257
EndSplineSet
EndChar

StartChar: uni0905
Encoding: 2309 2309 407
GlifName: uni0905
Width: 1024
VWidth: 0
Flags: W
LayerCount: 2
Fore
SplineSet
728 1550 m 257
 728 1488 l 257
 1025 1488 l 257
 1025 1550 l 257
 728 1550 l 257
908 1518 m 257
 908 0 l 257
 969 0 l 257
 969 1518 l 257
 908 1518 l 257
43 1550 m 257
 43 1487 l 257
 566 1487 l 257
 566 1550 l 257
 43 1550 l 257
533 1550 m 257
 533 34 l 257
 592 34 l 257
 592 1550 l 257
 533 1550 l 257
127 894 m 257
 127 835 l 257
 935 835 l 257
 935 894 l 257
 127 894 l 257
18 65 m 257
 18 0 l 257
 592 0 l 257
 592 65 l 257
 18 65 l 257
EndSplineSet
EndChar

StartChar: uni0906
Encoding: 2310 2310 408
GlifName: uni0906
Width: 1024
VWidth: 0
Flags: W
LayerCount: 2
Fore
SplineSet
525 1550 m 257
 525 1488 l 257
 1026 1488 l 257
 1026 1550 l 257
 525 1550 l 257
708 1518 m 257
 708 0 l 257
 769 0 l 257
 769 1518 l 257
 708 1518 l 257
41 1550 m 257
 41 1487 l 257
 364 1487 l 257
 364 1550 l 257
 41 1550 l 257
331 1550 m 257
 331 34 l 257
 390 34 l 257
 390 1550 l 257
 331 1550 l 257
125 894 m 257
 125 835 l 257
 733 835 l 257
 733 894 l 257
 125 894 l 257
16 65 m 257
 16 0 l 257
 390 0 l 257
 390 65 l 257
 16 65 l 257
891 1518 m 257
 891 0 l 257
 952 0 l 257
 952 1518 l 257
 891 1518 l 257
EndSplineSet
EndChar

StartChar: uni0907
Encoding: 2311 2311 409
GlifName: uni0907
Width: 1024
VWidth: 0
Flags: W
LayerCount: 2
Fore
SplineSet
-6 1550 m 257
 -6 1488 l 257
 1028 1488 l 257
 1028 1550 l 257
 -6 1550 l 257
690 1518 m 257
 690 1173 l 257
 749 1173 l 257
 749 1518 l 257
 690 1518 l 257
168 1205 m 257
 168 1144 l 257
 748 1144 l 257
 748 1205 l 257
 168 1205 l 257
168 1181 m 257
 168 845 l 257
 226 845 l 257
 226 1181 l 257
 168 1181 l 257
168 881 m 257
 168 819 l 257
 814 819 l 257
 814 881 l 257
 168 881 l 257
780 881 m 257
 780 285 l 257
 840 285 l 257
 840 881 l 257
 780 881 l 257
146 298 m 257
 146 237 l 257
 841 237 l 257
 841 298 l 257
 146 298 l 257
262 298 m 257
 262 -244 l 257
 322 -244 l 257
 322 298 l 257
 262 298 l 257
EndSplineSet
EndChar

StartChar: uni0908
Encoding: 2312 2312 410
GlifName: uni0908
Width: 1024
VWidth: 0
Flags: W
LayerCount: 2
Fore
SplineSet
-6 1550 m 257
 -6 1488 l 257
 1031 1488 l 257
 1031 1550 l 257
 -6 1550 l 257
692 1529 m 257
 692 1183 l 257
 752 1183 l 257
 752 1529 l 257
 692 1529 l 257
170 1207 m 257
 170 1146 l 257
 752 1146 l 257
 752 1207 l 257
 170 1207 l 257
170 1181 m 257
 170 849 l 257
 230 849 l 257
 230 1181 l 257
 170 1181 l 257
170 881 m 257
 170 821 l 257
 822 821 l 257
 822 881 l 257
 170 881 l 257
784 881 m 257
 784 285 l 257
 844 285 l 257
 844 881 l 257
 784 881 l 257
148 298 m 257
 148 237 l 257
 846 237 l 257
 846 298 l 257
 148 298 l 257
264 298 m 257
 264 -244 l 257
 324 -244 l 257
 324 298 l 257
 264 298 l 257
316 1860 m 257
 547 1550 l 257
 651 1550 l 257
 394 1908 l 257
 316 1860 l 257
EndSplineSet
EndChar

StartChar: uni0909
Encoding: 2313 2313 411
GlifName: uni0909
Width: 1024
VWidth: 0
Flags: W
LayerCount: 2
Fore
SplineSet
0 1550 m 257
 0 1488 l 257
 1025 1488 l 257
 1025 1550 l 257
 0 1550 l 257
623 1530 m 257
 623 1001 l 257
 682 1001 l 257
 682 1530 l 257
 623 1530 l 257
238 1044 m 257
 238 985 l 257
 880 985 l 257
 880 1044 l 257
 238 1044 l 257
821 994 m 257
 821 0 l 257
 880 0 l 257
 880 994 l 257
 821 994 l 257
133 61 m 257
 133 0 l 257
 870 0 l 257
 870 61 l 257
 133 61 l 257
133 346 m 257
 133 19 l 257
 192 19 l 257
 192 346 l 257
 133 346 l 257
EndSplineSet
EndChar

StartChar: uni090A
Encoding: 2314 2314 412
GlifName: uni090A_
Width: 1024
VWidth: 0
Flags: W
LayerCount: 2
Fore
SplineSet
0 1550 m 257
 0 1488 l 257
 1025 1488 l 257
 1025 1550 l 257
 0 1550 l 257
334 1530 m 257
 334 1001 l 257
 395 1001 l 257
 395 1530 l 257
 334 1530 l 257
154 1044 m 257
 154 983 l 257
 959 983 l 257
 959 1044 l 257
 154 1044 l 257
629 994 m 257
 629 33 l 257
 690 33 l 257
 690 994 l 257
 629 994 l 257
49 61 m 257
 49 0 l 257
 690 0 l 257
 690 61 l 257
 49 61 l 257
49 346 m 257
 49 19 l 257
 110 19 l 257
 110 346 l 257
 49 346 l 257
899 1023 m 257
 899 197 l 257
 959 197 l 257
 959 1023 l 257
 899 1023 l 257
EndSplineSet
EndChar

StartChar: uni090B
Encoding: 2315 2315 413
GlifName: uni090B_
Width: 1024
VWidth: 0
Flags: W
LayerCount: 2
Fore
SplineSet
0 1550 m 257
 0 1488 l 257
 1017 1488 l 257
 1017 1550 l 257
 0 1550 l 257
508 1533 m 257
 508 0 l 257
 556 0 l 257
 556 1545 l 257
 508 1533 l 257
18 1043 m 257
 18 983 l 257
 321 983 l 257
 321 1043 l 257
 18 1043 l 257
529 471 m 257
 82 422 l 257
 167 376 l 257
 564 417 l 257
 529 471 l 257
321 1043 m 257
 321 983 l 257
 555 902 l 257
 555 958 l 257
 321 1043 l 257
555 897 m 257
 555 837 l 257
 896 837 l 257
 896 897 l 257
 555 897 l 257
854 897 m 257
 854 265 l 257
 915 265 l 257
 915 897 l 257
 854 897 l 257
854 324 m 257
 854 264 l 257
 1024 264 l 257
 1024 324 l 257
 854 324 l 257
EndSplineSet
EndChar

StartChar: uni090C
Encoding: 2316 2316 414
GlifName: uni090C_
Width: 1024
VWidth: 0
Flags: W
LayerCount: 2
Fore
SplineSet
-7 1550 m 257
 -7 1488 l 257
 1032 1488 l 257
 1032 1550 l 257
 -7 1550 l 257
706 1550 m 257
 706 759 l 257
 766 759 l 257
 766 1550 l 257
 706 1550 l 257
964 791 m 257
 48 791 l 257
 48 731 l 257
 964 731 l 257
 964 791 l 257
50 777 m 257
 50 252 l 257
 110 252 l 257
 110 777 l 257
 50 777 l 257
472 791 m 257
 472 433 l 257
 532 433 l 257
 532 791 l 257
 472 791 l 257
894 792 m 257
 894 73 l 257
 954 73 l 257
 954 792 l 257
 894 792 l 257
938 132 m 257
 938 71 l 257
 1030 71 l 257
 1030 132 l 257
 938 132 l 257
EndSplineSet
EndChar

StartChar: uni090D
Encoding: 2317 2317 415
GlifName: uni090D_
Width: 1024
VWidth: 0
Flags: W
LayerCount: 2
Fore
SplineSet
-5 1550 m 257
 -5 1488 l 257
 1030 1488 l 257
 1030 1550 l 257
 -5 1550 l 257
868 1545 m 257
 868 779 l 257
 928 779 l 257
 928 1545 l 257
 868 1545 l 257
634 839 m 257
 634 779 l 257
 928 779 l 257
 928 839 l 257
 634 839 l 257
142 1542 m 257
 142 338 l 257
 202 338 l 257
 202 1542 l 257
 142 1542 l 257
142 358 m 257
 142 297 l 257
 742 297 l 257
 742 358 l 257
 142 358 l 257
688 358 m 257
 688 -98 l 257
 748 -98 l 257
 748 358 l 257
 688 358 l 257
386 -38 m 257
 386 -98 l 257
 746 -98 l 257
 746 -38 l 257
 386 -38 l 257
156 2124 m 257
 156 1639 l 257
 216 1639 l 257
 216 2124 l 257
 156 2124 l 257
202 1702 m 257
 202 1641 l 257
 796 1641 l 257
 796 1702 l 257
 202 1702 l 257
760 2132 m 257
 760 1641 l 257
 820 1641 l 257
 820 2132 l 257
 760 2132 l 257
EndSplineSet
EndChar

StartChar: uni090E
Encoding: 2318 2318 416
GlifName: uni090E_
Width: 1024
VWidth: 0
Flags: W
LayerCount: 2
Fore
SplineSet
-5 1550 m 257
 -5 1488 l 257
 1030 1488 l 257
 1030 1550 l 257
 -5 1550 l 257
868 1545 m 257
 868 779 l 257
 928 779 l 257
 928 1545 l 257
 868 1545 l 257
634 839 m 257
 634 779 l 257
 928 779 l 257
 928 839 l 257
 634 839 l 257
142 1542 m 257
 142 338 l 257
 202 338 l 257
 202 1542 l 257
 142 1542 l 257
142 358 m 257
 142 297 l 257
 742 297 l 257
 742 358 l 257
 142 358 l 257
688 358 m 257
 688 -98 l 257
 748 -98 l 257
 748 358 l 257
 688 358 l 257
386 -38 m 257
 386 -98 l 257
 746 -98 l 257
 746 -38 l 257
 386 -38 l 257
270 2062 m 257
 270 1823 l 257
 330 1823 l 257
 330 2062 l 257
 270 2062 l 257
268 1866 m 257
 268 1809 l 257
 952 1809 l 257
 952 1866 l 257
 268 1866 l 257
894 1858 m 257
 894 1540 l 257
 954 1540 l 257
 954 1858 l 257
 894 1858 l 257
EndSplineSet
EndChar

StartChar: uni090F
Encoding: 2319 2319 417
GlifName: uni090F_
Width: 1024
VWidth: 0
Flags: W
LayerCount: 2
Fore
SplineSet
-5 1550 m 257
 -5 1488 l 257
 1030 1488 l 257
 1030 1550 l 257
 -5 1550 l 257
868 1545 m 257
 868 779 l 257
 928 779 l 257
 928 1545 l 257
 868 1545 l 257
634 839 m 257
 634 779 l 257
 928 779 l 257
 928 839 l 257
 634 839 l 257
142 1542 m 257
 142 338 l 257
 202 338 l 257
 202 1542 l 257
 142 1542 l 257
142 358 m 257
 142 297 l 257
 742 297 l 257
 742 358 l 257
 142 358 l 257
688 358 m 257
 688 -98 l 257
 748 -98 l 257
 748 358 l 257
 688 358 l 257
386 -38 m 257
 386 -98 l 257
 746 -98 l 257
 746 -38 l 257
 386 -38 l 257
EndSplineSet
EndChar

StartChar: uni0910
Encoding: 2320 2320 418
GlifName: uni0910
Width: 1024
VWidth: 0
Flags: W
LayerCount: 2
Fore
SplineSet
-5 1549 m 257
 -5 1489 l 257
 1030 1489 l 257
 1030 1549 l 257
 -5 1549 l 257
866 1545 m 257
 866 779 l 257
 928 779 l 257
 928 1545 l 257
 866 1545 l 257
634 840 m 257
 634 779 l 257
 928 779 l 257
 928 840 l 257
 634 840 l 257
142 1542 m 257
 142 338 l 257
 202 338 l 257
 202 1542 l 257
 142 1542 l 257
142 359 m 257
 142 297 l 257
 742 297 l 257
 742 359 l 257
 142 359 l 257
702 358 m 257
 702 -98 l 257
 760 -98 l 257
 760 358 l 257
 702 358 l 257
386 -37 m 257
 386 -98 l 257
 746 -98 l 257
 746 -37 l 257
 386 -37 l 257
556 1962 m 257
 854 1550 l 257
 926 1550 l 257
 610 1998 l 257
 556 1962 l 257
EndSplineSet
EndChar

StartChar: uni0911
Encoding: 2321 2321 419
GlifName: uni0911
Width: 1024
VWidth: 0
Flags: W
LayerCount: 2
Fore
SplineSet
536 1548 m 257
 536 1488 l 257
 1024 1488 l 257
 1024 1548 l 257
 536 1548 l 257
544 1506 m 257
 544 0 l 257
 606 0 l 257
 606 1506 l 257
 544 1506 l 257
26 1550 m 257
 26 1488 l 257
 386 1488 l 257
 386 1550 l 257
 26 1550 l 257
352 1550 m 257
 352 30 l 257
 412 30 l 257
 412 1550 l 257
 352 1550 l 257
110 894 m 257
 110 834 l 257
 582 834 l 257
 582 894 l 257
 110 894 l 257
0 61 m 257
 0 0 l 257
 412 0 l 257
 412 61 l 257
 0 61 l 257
812 1504 m 257
 812 0 l 257
 872 0 l 257
 872 1504 l 257
 812 1504 l 257
526 2085 m 257
 526 1639 l 257
 588 1639 l 257
 588 2085 l 257
 526 2085 l 257
532 1701 m 257
 532 1641 l 257
 1024 1641 l 257
 1024 1701 l 257
 532 1701 l 257
952 2083 m 257
 952 1641 l 257
 1024 1641 l 257
 1024 2083 l 257
 952 2083 l 257
EndSplineSet
EndChar

StartChar: uni0912
Encoding: 2322 2322 420
GlifName: uni0912
Width: 1024
VWidth: 0
Flags: W
LayerCount: 2
Fore
SplineSet
507 1553 m 257
 507 1494 l 257
 1008 1494 l 257
 1008 1553 l 257
 507 1553 l 257
708 1518 m 257
 708 0 l 257
 769 0 l 257
 769 1518 l 257
 708 1518 l 257
41 1550 m 257
 41 1487 l 257
 364 1487 l 257
 364 1550 l 257
 41 1550 l 257
331 1550 m 257
 331 34 l 257
 390 34 l 257
 390 1550 l 257
 331 1550 l 257
125 894 m 257
 125 835 l 257
 733 835 l 257
 733 894 l 257
 125 894 l 257
16 65 m 257
 16 0 l 257
 390 0 l 257
 390 65 l 257
 16 65 l 257
891 1518 m 257
 891 0 l 257
 952 0 l 257
 952 1518 l 257
 891 1518 l 257
257 2062 m 257
 257 1823 l 257
 318 1823 l 257
 318 2062 l 257
 257 2062 l 257
256 1866 m 257
 256 1809 l 257
 939 1809 l 257
 939 1866 l 257
 256 1866 l 257
879 1863 m 257
 879 1545 l 257
 939 1545 l 257
 939 1863 l 257
 879 1863 l 257
EndSplineSet
EndChar

StartChar: uni0913
Encoding: 2323 2323 421
GlifName: uni0913
Width: 1024
VWidth: 0
Flags: W
LayerCount: 2
Fore
SplineSet
523 1549 m 257
 523 1489 l 257
 1024 1489 l 257
 1024 1549 l 257
 523 1549 l 257
708 1518 m 257
 708 0 l 257
 769 0 l 257
 769 1518 l 257
 708 1518 l 257
41 1550 m 257
 41 1487 l 257
 364 1487 l 257
 364 1550 l 257
 41 1550 l 257
331 1550 m 257
 331 34 l 257
 390 34 l 257
 390 1550 l 257
 331 1550 l 257
125 894 m 257
 125 835 l 257
 733 835 l 257
 733 894 l 257
 125 894 l 257
16 65 m 257
 16 0 l 257
 390 0 l 257
 390 65 l 257
 16 65 l 257
891 1518 m 257
 891 0 l 257
 952 0 l 257
 952 1518 l 257
 891 1518 l 257
689 1807 m 257
 770 1529 l 257
 846 1550 l 257
 762 1826 l 257
 689 1807 l 257
EndSplineSet
EndChar

StartChar: uni0914
Encoding: 2324 2324 422
GlifName: uni0914
Width: 1024
VWidth: 0
Flags: W
LayerCount: 2
Fore
SplineSet
507 1553 m 257
 507 1494 l 257
 1008 1494 l 257
 1008 1553 l 257
 507 1553 l 257
708 1518 m 257
 708 0 l 257
 769 0 l 257
 769 1518 l 257
 708 1518 l 257
41 1550 m 257
 41 1487 l 257
 364 1487 l 257
 364 1550 l 257
 41 1550 l 257
331 1550 m 257
 331 34 l 257
 390 34 l 257
 390 1550 l 257
 331 1550 l 257
125 894 m 257
 125 835 l 257
 733 835 l 257
 733 894 l 257
 125 894 l 257
16 65 m 257
 16 0 l 257
 390 0 l 257
 390 65 l 257
 16 65 l 257
891 1518 m 257
 891 0 l 257
 952 0 l 257
 952 1518 l 257
 891 1518 l 257
326 1767 m 257
 704 1525 l 257
 768 1540 l 257
 367 1816 l 257
 326 1767 l 257
575 1905 m 257
 778 1550 l 257
 859 1550 l 257
 628 1937 l 257
 575 1905 l 257
EndSplineSet
EndChar

StartChar: uni0915
Encoding: 2325 2325 423
GlifName: uni0915
Width: 1024
VWidth: 0
Flags: W
LayerCount: 2
Fore
SplineSet
0 1553 m 257
 0 1492 l 257
 1024 1492 l 257
 1024 1553 l 257
 0 1553 l 257
598 1509 m 257
 598 0 l 257
 658 0 l 257
 658 1509 l 257
 598 1509 l 257
181 1069 m 257
 181 1008 l 257
 540 1008 l 257
 540 1069 l 257
 181 1069 l 257
170 1068 m 257
 170 510 l 257
 230 510 l 257
 230 1068 l 257
 170 1068 l 257
185 572 m 257
 185 511 l 257
 645 511 l 257
 645 572 l 257
 185 572 l 257
623 999 m 257
 623 938 l 257
 888 938 l 257
 888 999 l 257
 623 999 l 257
838 1000 m 257
 838 779 l 257
 900 779 l 257
 900 1000 l 257
 838 1000 l 257
EndSplineSet
EndChar

StartChar: uni0915_uni0930_uni094D.vatu
Encoding: 65537 -1 424
GlifName: uni0915_uni0930_uni094D_.vatu
Width: 1024
VWidth: 0
Flags: W
LayerCount: 2
Fore
SplineSet
0 1553 m 257
 0 1492 l 257
 1024 1492 l 257
 1024 1553 l 257
 0 1553 l 257
598 1509 m 257
 598 0 l 257
 658 0 l 257
 658 1509 l 257
 598 1509 l 257
181 1069 m 257
 181 1008 l 257
 525 1008 l 257
 525 1069 l 257
 181 1069 l 257
170 1068 m 257
 170 510 l 257
 230 510 l 257
 230 1068 l 257
 170 1068 l 257
185 572 m 257
 185 511 l 257
 645 511 l 257
 645 572 l 257
 185 572 l 257
623 999 m 257
 623 938 l 257
 888 938 l 257
 888 999 l 257
 623 999 l 257
838 1000 m 257
 838 779 l 257
 900 779 l 257
 900 1000 l 257
 838 1000 l 257
57 0 m 257
 177 0 l 257
 654 215 l 257
 654 285 l 257
 57 0 l 257
EndSplineSet
EndChar

StartChar: uni0915_uni094D.half
Encoding: 65538 -1 425
GlifName: uni0915_uni094D_.half
Width: 1024
VWidth: 0
Flags: W
LayerCount: 2
Fore
SplineSet
0 1553 m 257
 0 1492 l 257
 1024 1492 l 257
 1024 1553 l 257
 0 1553 l 257
598 1509 m 257
 598 0 l 257
 658 0 l 257
 658 1509 l 257
 598 1509 l 257
181 1069 m 257
 181 1008 l 257
 535 1008 l 257
 535 1069 l 257
 181 1069 l 257
170 1068 m 257
 170 510 l 257
 230 510 l 257
 230 1068 l 257
 170 1068 l 257
185 572 m 257
 185 511 l 257
 645 511 l 257
 645 572 l 257
 185 572 l 257
623 999 m 257
 623 938 l 257
 1031 938 l 257
 1031 999 l 257
 623 999 l 257
EndSplineSet
EndChar

StartChar: uni0915_uni094D_uni0937.akhn
Encoding: 65540 -1 427
GlifName: uni0915_uni094D__uni0937.akhn
Width: 1024
VWidth: 0
Flags: W
LayerCount: 2
Fore
SplineSet
665 1550 m 257
 665 1491 l 257
 1024 1491 l 257
 1024 1550 l 257
 665 1550 l 257
862 1511 m 257
 862 0 l 257
 921 0 l 257
 921 1511 l 257
 862 1511 l 257
126 1078 m 257
 126 1018 l 257
 921 1018 l 257
 921 1078 l 257
 126 1078 l 257
126 1023 m 257
 186 1023 l 257
 186 1422 l 257
 126 1422 l 257
 126 1023 l 257
127 1435 m 257
 127 1374 l 257
 567 1374 l 257
 567 1435 l 257
 127 1435 l 257
506 1422 m 257
 506 1030 l 257
 566 1030 l 257
 566 1422 l 257
 506 1422 l 257
158 647 m 257
 218 647 l 257
 565 1028 l 257
 507 1028 l 257
 158 647 l 257
158 647 m 257
 158 200 l 257
 218 200 l 257
 218 647 l 257
 158 647 l 257
158 226 m 257
 158 166 l 257
 882 166 l 257
 882 226 l 257
 158 226 l 257
EndSplineSet
EndChar

StartChar: uni0915_uni094D_uni0937.half
Encoding: 65541 -1 428
GlifName: uni0915_uni094D__uni0937.half
Width: 1024
VWidth: 0
Flags: W
LayerCount: 2
Fore
SplineSet
665 1550 m 257
 665 1491 l 257
 1024 1491 l 257
 1024 1550 l 257
 665 1550 l 257
126 1078 m 257
 126 1018 l 257
 1021 1018 l 257
 1021 1078 l 257
 126 1078 l 257
126 1023 m 257
 186 1023 l 257
 186 1422 l 257
 126 1422 l 257
 126 1023 l 257
127 1435 m 257
 127 1374 l 257
 567 1374 l 257
 567 1435 l 257
 127 1435 l 257
506 1422 m 257
 506 1030 l 257
 566 1030 l 257
 566 1422 l 257
 506 1422 l 257
158 647 m 257
 218 647 l 257
 565 1028 l 257
 507 1028 l 257
 158 647 l 257
158 647 m 257
 158 200 l 257
 218 200 l 257
 218 647 l 257
 158 647 l 257
158 226 m 257
 158 166 l 257
 982 166 l 257
 982 226 l 257
 158 226 l 257
EndSplineSet
EndChar

StartChar: uni0916
Encoding: 2326 2326 430
GlifName: uni0916
Width: 1024
VWidth: 0
Flags: W
LayerCount: 2
Fore
SplineSet
0 1553 m 257
 0 1496 l 257
 1026 1496 l 257
 1026 1553 l 257
 0 1553 l 257
832 1514 m 257
 832 0 l 257
 894 0 l 257
 894 1514 l 257
 832 1514 l 257
414 979 m 257
 414 919 l 257
 676 919 l 257
 676 979 l 257
 414 979 l 257
384 979 m 257
 384 414 l 257
 444 414 l 257
 444 979 l 257
 384 979 l 257
384 429 m 257
 384 368 l 257
 848 368 l 257
 848 429 l 257
 384 429 l 257
186 1510 m 257
 186 120 l 257
 248 120 l 257
 248 1510 l 257
 186 1510 l 257
16 714 m 257
 16 654 l 257
 246 654 l 257
 246 714 l 257
 16 714 l 257
186 130 m 257
 186 70 l 257
 830 70 l 257
 830 130 l 257
 186 130 l 257
EndSplineSet
EndChar

StartChar: uni0916_uni0930_uni094D.vatu
Encoding: 65543 -1 431
GlifName: uni0916_uni0930_uni094D_.vatu
Width: 1024
VWidth: 0
Flags: W
LayerCount: 2
Fore
SplineSet
239 0 m 257
 359 0 l 257
 836 215 l 257
 836 285 l 257
 239 0 l 257
0 1553 m 257
 0 1496 l 257
 1026 1496 l 257
 1026 1553 l 257
 0 1553 l 257
832 1514 m 257
 832 0 l 257
 894 0 l 257
 894 1514 l 257
 832 1514 l 257
414 1279 m 257
 414 1219 l 257
 676 1219 l 257
 676 1279 l 257
 414 1279 l 257
384 1279 m 257
 384 714 l 257
 444 714 l 257
 444 1279 l 257
 384 1279 l 257
384 729 m 257
 384 668 l 257
 848 668 l 257
 848 729 l 257
 384 729 l 257
186 1510 m 257
 186 420 l 257
 248 420 l 257
 248 1510 l 257
 186 1510 l 257
16 1014 m 257
 16 954 l 257
 246 954 l 257
 246 1014 l 257
 16 1014 l 257
186 430 m 257
 186 370 l 257
 830 370 l 257
 830 430 l 257
 186 430 l 257
EndSplineSet
EndChar

StartChar: uni0916_uni094D.half
Encoding: 65544 -1 432
GlifName: uni0916_uni094D_.half
Width: 1024
VWidth: 0
Flags: W
LayerCount: 2
Fore
SplineSet
0 1553 m 257
 0 1496 l 257
 1026 1496 l 257
 1026 1553 l 257
 0 1553 l 257
414 979 m 257
 414 919 l 257
 851 919 l 257
 851 979 l 257
 414 979 l 257
384 979 m 257
 384 414 l 257
 444 414 l 257
 444 979 l 257
 384 979 l 257
384 429 m 257
 384 368 l 257
 1024 368 l 257
 1024 429 l 257
 384 429 l 257
186 1510 m 257
 186 120 l 257
 248 120 l 257
 248 1510 l 257
 186 1510 l 257
16 714 m 257
 16 654 l 257
 246 654 l 257
 246 714 l 257
 16 714 l 257
186 130 m 257
 186 70 l 257
 1006 70 l 257
 1006 130 l 257
 186 130 l 257
EndSplineSet
EndChar

StartChar: uni0917
Encoding: 2327 2327 434
GlifName: uni0917
Width: 1024
VWidth: 0
Flags: W
LayerCount: 2
Fore
SplineSet
57 853 m 257
 127 853 l 257
 127 1044 l 257
 57 1044 l 257
 57 853 l 257
57 882 m 257
 57 812 l 257
 404 812 l 257
 404 882 l 257
 57 882 l 257
334 1553 m 257
 334 812 l 257
 404 812 l 257
 404 1553 l 257
 334 1553 l 257
967 1553 m 257
 216 1553 l 257
 216 1496 l 257
 967 1496 l 257
 967 1553 l 257
816 1523 m 257
 816 0 l 257
 886 0 l 257
 886 1523 l 257
 816 1523 l 257
EndSplineSet
EndChar

StartChar: uni0917_uni0930_uni094D.vatu
Encoding: 65546 -1 435
GlifName: uni0917_uni0930_uni094D_.vatu
Width: 1024
VWidth: 0
Flags: W
LayerCount: 2
Fore
SplineSet
238 0 m 257
 358 0 l 257
 835 215 l 257
 835 285 l 257
 238 0 l 257
57 853 m 257
 127 853 l 257
 127 1044 l 257
 57 1044 l 257
 57 853 l 257
57 882 m 257
 57 812 l 257
 404 812 l 257
 404 882 l 257
 57 882 l 257
334 1553 m 257
 334 812 l 257
 404 812 l 257
 404 1553 l 257
 334 1553 l 257
967 1553 m 257
 216 1553 l 257
 216 1496 l 257
 967 1496 l 257
 967 1553 l 257
816 1523 m 257
 816 0 l 257
 886 0 l 257
 886 1523 l 257
 816 1523 l 257
EndSplineSet
EndChar

StartChar: uni0917_uni094D.half
Encoding: 65547 -1 436
GlifName: uni0917_uni094D_.half
Width: 1024
VWidth: 0
Flags: W
LayerCount: 2
Fore
SplineSet
57 853 m 257
 127 853 l 257
 127 1044 l 257
 57 1044 l 257
 57 853 l 257
57 882 m 257
 57 812 l 257
 404 812 l 257
 404 882 l 257
 57 882 l 257
334 1553 m 257
 334 812 l 257
 404 812 l 257
 404 1553 l 257
 334 1553 l 257
967 1553 m 257
 216 1553 l 257
 216 1496 l 257
 967 1496 l 257
 967 1553 l 257
EndSplineSet
EndChar

StartChar: uni0918
Encoding: 2328 2328 438
GlifName: uni0918
Width: 1024
VWidth: 0
Flags: W
LayerCount: 2
Fore
SplineSet
0 1553 m 257
 0 1495 l 257
 1022 1495 l 257
 1022 1553 l 257
 0 1553 l 257
842 1522 m 257
 842 13 l 257
 902 13 l 257
 902 1522 l 257
 842 1522 l 257
174 1515 m 257
 174 859 l 257
 232 859 l 257
 232 1515 l 257
 174 1515 l 257
218 867 m 257
 218 807 l 257
 462 807 l 257
 462 867 l 257
 218 867 l 257
180 328 m 257
 180 269 l 257
 878 269 l 257
 878 328 l 257
 180 328 l 257
174 269 m 257
 234 269 l 257
 234 814 l 257
 174 814 l 257
 174 269 l 257
EndSplineSet
EndChar

StartChar: uni0918_uni0930_uni094D.vatu
Encoding: 65549 -1 439
GlifName: uni0918_uni0930_uni094D_.vatu
Width: 1024
VWidth: 0
Flags: W
LayerCount: 2
Fore
SplineSet
261 0 m 257
 381 0 l 257
 858 215 l 257
 858 285 l 257
 261 0 l 257
0 1553 m 257
 0 1495 l 257
 1022 1495 l 257
 1022 1553 l 257
 0 1553 l 257
842 1522 m 257
 842 13 l 257
 902 13 l 257
 902 1522 l 257
 842 1522 l 257
174 1515 m 257
 174 859 l 257
 232 859 l 257
 232 1515 l 257
 174 1515 l 257
218 867 m 257
 218 807 l 257
 462 807 l 257
 462 867 l 257
 218 867 l 257
180 328 m 257
 180 269 l 257
 878 269 l 257
 878 328 l 257
 180 328 l 257
174 269 m 257
 234 269 l 257
 234 814 l 257
 174 814 l 257
 174 269 l 257
EndSplineSet
EndChar

StartChar: uni0918_uni094D.half
Encoding: 65550 -1 440
GlifName: uni0918_uni094D_.half
Width: 1024
VWidth: 0
Flags: W
LayerCount: 2
Fore
SplineSet
0 1553 m 257
 0 1495 l 257
 1022 1495 l 257
 1022 1553 l 257
 0 1553 l 257
174 1515 m 257
 174 859 l 257
 232 859 l 257
 232 1515 l 257
 174 1515 l 257
218 867 m 257
 218 807 l 257
 462 807 l 257
 462 867 l 257
 218 867 l 257
180 328 m 257
 180 269 l 257
 1078 269 l 257
 1078 328 l 257
 180 328 l 257
174 269 m 257
 234 269 l 257
 234 814 l 257
 174 814 l 257
 174 269 l 257
EndSplineSet
EndChar

StartChar: uni0919
Encoding: 2329 2329 442
GlifName: uni0919
Width: 1024
VWidth: 0
Flags: W
LayerCount: 2
Fore
SplineSet
0 1553 m 257
 0 1494 l 257
 1025 1494 l 257
 1025 1553 l 257
 0 1553 l 257
652 1543 m 257
 652 1023 l 257
 712 1023 l 257
 712 1543 l 257
 652 1543 l 257
703 1086 m 257
 240 1086 l 257
 240 1023 l 257
 703 1023 l 257
 703 1086 l 257
228 1083 m 257
 228 629 l 257
 300 629 l 257
 300 1083 l 257
 228 1083 l 257
234 680 m 257
 234 620 l 257
 789 620 l 257
 789 680 l 257
 234 680 l 257
726 680 m 257
 726 29 l 257
 789 29 l 257
 789 680 l 257
 726 680 l 257
115 61 m 257
 115 0 l 257
 790 0 l 257
 790 61 l 257
 115 61 l 257
115 202 m 257
 115 8 l 257
 175 8 l 257
 175 202 l 257
 115 202 l 257
774 931 m 257
 774 835 l 257
 870 835 l 257
 870 931 l 257
 774 931 l 257
EndSplineSet
EndChar

StartChar: uni0919_uni0930_uni094D.vatu
Encoding: 65552 -1 443
GlifName: uni0919_uni0930_uni094D_.vatu
Width: 1024
VWidth: 0
Flags: W
LayerCount: 2
Fore
SplineSet
394 220 m 257
 577 -119 l 257
 645 -119 l 257
 438 287 l 257
 394 220 l 257
438 287 m 257
 178 -106 l 257
 246 -106 l 257
 468 228 l 257
 438 287 l 257
0 1553 m 257
 0 1494 l 257
 1025 1494 l 257
 1025 1553 l 257
 0 1553 l 257
652 1543 m 257
 652 1326 l 257
 712 1326 l 257
 712 1543 l 257
 652 1543 l 257
703 1386 m 257
 240 1386 l 257
 240 1326 l 257
 703 1326 l 257
 703 1386 l 257
228 1383 m 257
 228 929 l 257
 300 929 l 257
 300 1383 l 257
 228 1383 l 257
234 980 m 257
 234 920 l 257
 789 920 l 257
 789 980 l 257
 234 980 l 257
726 980 m 257
 726 329 l 257
 789 329 l 257
 789 980 l 257
 726 980 l 257
115 361 m 257
 115 300 l 257
 790 300 l 257
 790 361 l 257
 115 361 l 257
115 502 m 257
 115 308 l 257
 175 308 l 257
 175 502 l 257
 115 502 l 257
774 1231 m 257
 774 1135 l 257
 870 1135 l 257
 870 1231 l 257
 774 1231 l 257
EndSplineSet
EndChar

StartChar: uni0919_uni094D.half
Encoding: 65553 -1 444
GlifName: uni0919_uni094D_.half
Width: 1024
VWidth: 0
Flags: W
LayerCount: 2
Fore
SplineSet
0 1550 m 257
 0 1491 l 257
 1022 1491 l 257
 1022 1550 l 257
 0 1550 l 257
649 1543 m 257
 649 1023 l 257
 709 1023 l 257
 709 1543 l 257
 649 1543 l 257
700 1083 m 257
 226 1083 l 257
 226 1023 l 257
 700 1023 l 257
 700 1083 l 257
225 1083 m 257
 225 629 l 257
 292 629 l 257
 292 1083 l 257
 225 1083 l 257
225 690 m 257
 225 620 l 257
 786 620 l 257
 786 690 l 257
 225 690 l 257
724 680 m 257
 724 254 l 257
 786 254 l 257
 786 680 l 257
 724 680 l 257
112 284 m 257
 112 224 l 257
 787 224 l 257
 787 284 l 257
 112 284 l 257
112 559 m 257
 112 233 l 257
 173 233 l 257
 173 559 l 257
 112 559 l 257
813 968 m 257
 813 890 l 257
 888 890 l 257
 888 968 l 257
 813 968 l 257
339 144 m 257
 215 83 l 257
 572 83 l 257
 696 144 l 257
 339 144 l 257
572 83 m 257
 906 -112 l 257
 943 -91 l 257
 696 144 l 257
 572 83 l 257
EndSplineSet
EndChar

StartChar: uni091A
Encoding: 2330 2330 446
GlifName: uni091A_
Width: 1024
VWidth: 0
Flags: W
LayerCount: 2
Fore
SplineSet
0 1553 m 257
 0 1497 l 257
 1023 1497 l 257
 1023 1553 l 257
 0 1553 l 257
778 1553 m 257
 778 0 l 257
 837 0 l 257
 837 1553 l 257
 778 1553 l 257
804 421 m 257
 804 480 l 257
 297 480 l 257
 297 421 l 257
 804 421 l 257
297 837 m 257
 297 421 l 257
 356 421 l 257
 356 837 l 257
 297 837 l 257
73 852 m 257
 73 791 l 257
 498 791 l 257
 498 852 l 257
 73 852 l 257
EndSplineSet
EndChar

StartChar: uni091A_uni0930_uni094D.vatu
Encoding: 65555 -1 447
GlifName: uni091A__uni0930_uni094D_.vatu
Width: 1024
VWidth: 0
Flags: W
LayerCount: 2
Fore
SplineSet
208 0 m 257
 328 0 l 257
 805 215 l 257
 805 285 l 257
 208 0 l 257
0 1553 m 257
 0 1497 l 257
 1023 1497 l 257
 1023 1553 l 257
 0 1553 l 257
778 1553 m 257
 778 0 l 257
 837 0 l 257
 837 1553 l 257
 778 1553 l 257
804 421 m 257
 804 480 l 257
 297 480 l 257
 297 421 l 257
 804 421 l 257
297 837 m 257
 297 421 l 257
 356 421 l 257
 356 837 l 257
 297 837 l 257
73 852 m 257
 73 791 l 257
 498 791 l 257
 498 852 l 257
 73 852 l 257
EndSplineSet
EndChar

StartChar: uni091A_uni094D.half
Encoding: 65556 -1 448
GlifName: uni091A__uni094D_.half
Width: 1024
VWidth: 0
Flags: W
LayerCount: 2
Fore
SplineSet
0 1553 m 257
 0 1497 l 257
 1023 1497 l 257
 1023 1553 l 257
 0 1553 l 257
1104 421 m 257
 1104 480 l 257
 297 480 l 257
 297 421 l 257
 1104 421 l 257
297 837 m 257
 297 421 l 257
 356 421 l 257
 356 837 l 257
 297 837 l 257
73 852 m 257
 73 791 l 257
 498 791 l 257
 498 852 l 257
 73 852 l 257
EndSplineSet
EndChar

StartChar: uni091B
Encoding: 2331 2331 450
GlifName: uni091B_
Width: 1024
VWidth: 0
Flags: W
LayerCount: 2
Fore
SplineSet
0 1553 m 257
 0 1495 l 257
 1023 1495 l 257
 1023 1553 l 257
 0 1553 l 257
537 1128 m 257
 152 1128 l 257
 152 1069 l 257
 537 1069 l 257
 537 1128 l 257
143 1128 m 257
 143 538 l 257
 203 538 l 257
 203 1128 l 257
 143 1128 l 257
174 547 m 257
 174 487 l 257
 537 487 l 257
 537 547 l 257
 174 547 l 257
142 501 m 257
 142 0 l 257
 202 0 l 257
 202 501 l 257
 142 501 l 257
198 59 m 257
 198 0 l 257
 833 0 l 257
 833 59 l 257
 198 59 l 257
774 6 m 257
 833 6 l 257
 833 1515 l 257
 774 1515 l 257
 774 6 l 257
666 869 m 257
 666 808 l 257
 1004 808 l 257
 1004 869 l 257
 666 869 l 257
945 868 m 257
 945 471 l 257
 1004 471 l 257
 1004 868 l 257
 945 868 l 257
EndSplineSet
EndChar

StartChar: uni091B_uni0930_uni094D.vatu
Encoding: 65558 -1 451
GlifName: uni091B__uni0930_uni094D_.vatu
Width: 1024
VWidth: 0
Flags: W
LayerCount: 2
Fore
SplineSet
208 0 m 257
 328 0 l 257
 805 215 l 257
 805 285 l 257
 208 0 l 257
0 1553 m 257
 0 1495 l 257
 1023 1495 l 257
 1023 1553 l 257
 0 1553 l 257
537 1428 m 257
 152 1428 l 257
 152 1369 l 257
 537 1369 l 257
 537 1428 l 257
143 1428 m 257
 143 838 l 257
 203 838 l 257
 203 1428 l 257
 143 1428 l 257
174 847 m 257
 174 787 l 257
 537 787 l 257
 537 847 l 257
 174 847 l 257
142 801 m 257
 142 300 l 257
 202 300 l 257
 202 801 l 257
 142 801 l 257
198 359 m 257
 198 300 l 257
 833 300 l 257
 833 359 l 257
 198 359 l 257
774 0 m 257
 833 0 l 257
 833 1498 l 257
 774 1498 l 257
 774 0 l 257
666 1169 m 257
 666 1108 l 257
 1004 1108 l 257
 1004 1169 l 257
 666 1169 l 257
945 1168 m 257
 945 771 l 257
 1004 771 l 257
 1004 1168 l 257
 945 1168 l 257
EndSplineSet
EndChar

StartChar: uni091B_uni094D.half
Encoding: 65559 -1 452
GlifName: uni091B__uni094D_.half
Width: 1024
VWidth: 0
Flags: W
LayerCount: 2
Fore
SplineSet
0 1553 m 257
 0 1495 l 257
 1023 1495 l 257
 1023 1553 l 257
 0 1553 l 257
537 1128 m 257
 152 1128 l 257
 152 1069 l 257
 537 1069 l 257
 537 1128 l 257
143 1128 m 257
 143 538 l 257
 203 538 l 257
 203 1128 l 257
 143 1128 l 257
174 547 m 257
 174 487 l 257
 537 487 l 257
 537 547 l 257
 174 547 l 257
142 501 m 257
 142 0 l 257
 202 0 l 257
 202 501 l 257
 142 501 l 257
198 59 m 257
 198 0 l 257
 1133 0 l 257
 1133 59 l 257
 198 59 l 257
EndSplineSet
EndChar

StartChar: uni091C
Encoding: 2332 2332 454
GlifName: uni091C_
Width: 1024
VWidth: 0
Flags: W
LayerCount: 2
Fore
SplineSet
-17 1550 m 257
 -17 1492 l 257
 1041 1492 l 257
 1041 1550 l 257
 -17 1550 l 257
833 1550 m 257
 833 -12 l 257
 894 -12 l 257
 894 1550 l 257
 833 1550 l 257
518 860 m 257
 518 801 l 257
 854 801 l 257
 854 860 l 257
 518 860 l 257
508 860 m 257
 508 512 l 257
 568 512 l 257
 568 860 l 257
 508 860 l 257
58 567 m 257
 58 508 l 257
 568 508 l 257
 568 567 l 257
 58 567 l 257
58 727 m 257
 58 509 l 257
 118 509 l 257
 118 727 l 257
 58 727 l 257
EndSplineSet
EndChar

StartChar: uni091C_uni0930_uni094D.vatu
Encoding: 65561 -1 455
GlifName: uni091C__uni0930_uni094D_.vatu
Width: 1024
VWidth: 0
Flags: W
LayerCount: 2
Fore
SplineSet
208 0 m 257
 328 0 l 257
 852 215 l 257
 852 285 l 257
 208 0 l 257
-17 1550 m 257
 -17 1492 l 257
 1041 1492 l 257
 1041 1550 l 257
 -17 1550 l 257
833 1550 m 257
 833 -12 l 257
 894 -12 l 257
 894 1550 l 257
 833 1550 l 257
518 860 m 257
 518 801 l 257
 854 801 l 257
 854 860 l 257
 518 860 l 257
508 860 m 257
 508 512 l 257
 568 512 l 257
 568 860 l 257
 508 860 l 257
58 567 m 257
 58 508 l 257
 568 508 l 257
 568 567 l 257
 58 567 l 257
58 727 m 257
 58 509 l 257
 118 509 l 257
 118 727 l 257
 58 727 l 257
EndSplineSet
EndChar

StartChar: uni091C_uni094D.half
Encoding: 65562 -1 456
GlifName: uni091C__uni094D_.half
Width: 1024
VWidth: 0
Flags: W
LayerCount: 2
Fore
SplineSet
-17 1550 m 257
 -17 1492 l 257
 1041 1492 l 257
 1041 1550 l 257
 -17 1550 l 257
518 860 m 257
 518 801 l 257
 1154 801 l 257
 1154 860 l 257
 518 860 l 257
508 860 m 257
 508 512 l 257
 568 512 l 257
 568 860 l 257
 508 860 l 257
58 567 m 257
 58 508 l 257
 568 508 l 257
 568 567 l 257
 58 567 l 257
58 727 m 257
 58 509 l 257
 118 509 l 257
 118 727 l 257
 58 727 l 257
EndSplineSet
EndChar

StartChar: uni091C_uni094D_uni091E.akhn
Encoding: 65564 -1 458
GlifName: uni091C__uni094D__uni091E_.akhn
Width: 1024
VWidth: 0
Flags: W
LayerCount: 2
Fore
SplineSet
-13 1550 m 257
 -13 1488 l 257
 1024 1488 l 257
 1024 1550 l 257
 -13 1550 l 257
817 1550 m 257
 817 -12 l 257
 877 -12 l 257
 877 1550 l 257
 817 1550 l 257
397 860 m 257
 397 800 l 257
 837 800 l 257
 837 860 l 257
 397 860 l 257
351 860 m 257
 351 413 l 257
 410 413 l 257
 410 860 l 257
 351 860 l 257
41 428 m 257
 41 367 l 257
 410 367 l 257
 410 428 l 257
 41 428 l 257
41 368 m 257
 189 75 l 257
 278 75 l 257
 115 368 l 257
 41 368 l 257
EndSplineSet
EndChar

StartChar: uni091C_uni094D_uni091E.half
Encoding: 65565 -1 459
GlifName: uni091C__uni094D__uni091E_.half
Width: 1024
VWidth: 0
Flags: W
LayerCount: 2
Fore
SplineSet
-13 1550 m 257
 -13 1488 l 257
 1024 1488 l 257
 1024 1550 l 257
 -13 1550 l 257
597 860 m 257
 597 800 l 257
 1037 800 l 257
 1037 860 l 257
 597 860 l 257
551 860 m 257
 551 413 l 257
 610 413 l 257
 610 860 l 257
 551 860 l 257
241 428 m 257
 241 367 l 257
 610 367 l 257
 610 428 l 257
 241 428 l 257
241 368 m 257
 389 75 l 257
 478 75 l 257
 315 368 l 257
 241 368 l 257
EndSplineSet
EndChar

StartChar: uni091D
Encoding: 2333 2333 461
GlifName: uni091D_
Width: 1024
VWidth: 0
Flags: W
LayerCount: 2
Fore
SplineSet
-8 1553 m 257
 -8 1494 l 257
 1032 1494 l 257
 1032 1553 l 257
 -8 1553 l 257
828 1553 m 257
 828 -5 l 257
 890 -5 l 257
 890 1553 l 257
 828 1553 l 257
596 1537 m 257
 596 1023 l 257
 656 1023 l 257
 656 1537 l 257
 596 1537 l 257
134 1084 m 257
 134 1023 l 257
 656 1023 l 257
 656 1084 l 257
 134 1084 l 257
134 1085 m 257
 134 651 l 257
 194 651 l 257
 194 1085 l 257
 134 1085 l 257
134 698 m 257
 134 638 l 257
 884 638 l 257
 884 698 l 257
 134 698 l 257
568 691 m 257
 568 7 l 257
 628 7 l 257
 628 691 l 257
 568 691 l 257
134 63 m 257
 134 0 l 257
 628 0 l 257
 628 63 l 257
 134 63 l 257
134 63 m 257
 134 -148 l 257
 194 -148 l 257
 194 63 l 257
 134 63 l 257
EndSplineSet
EndChar

StartChar: uni091D_uni0930_uni094D.vatu
Encoding: 65567 -1 462
GlifName: uni091D__uni0930_uni094D_.vatu
Width: 1024
VWidth: 0
Flags: W
LayerCount: 2
Fore
SplineSet
412 0 m 257
 532 0 l 257
 875 215 l 257
 875 285 l 257
 412 0 l 257
-8 1553 m 257
 -8 1494 l 257
 1032 1494 l 257
 1032 1553 l 257
 -8 1553 l 257
828 1553 m 257
 828 -5 l 257
 890 -5 l 257
 890 1553 l 257
 828 1553 l 257
596 1537 m 257
 596 1023 l 257
 656 1023 l 257
 656 1537 l 257
 596 1537 l 257
134 1084 m 257
 134 1023 l 257
 656 1023 l 257
 656 1084 l 257
 134 1084 l 257
134 1085 m 257
 134 651 l 257
 194 651 l 257
 194 1085 l 257
 134 1085 l 257
134 698 m 257
 134 638 l 257
 884 638 l 257
 884 698 l 257
 134 698 l 257
302 691 m 257
 302 7 l 257
 362 7 l 257
 362 691 l 257
 302 691 l 257
134 63 m 257
 134 0 l 257
 362 0 l 257
 362 63 l 257
 134 63 l 257
134 63 m 257
 134 -148 l 257
 194 -148 l 257
 194 63 l 257
 134 63 l 257
EndSplineSet
EndChar

StartChar: uni091D_uni094D.half
Encoding: 65568 -1 463
GlifName: uni091D__uni094D_.half
Width: 1024
VWidth: 0
Flags: W
LayerCount: 2
Fore
SplineSet
-8 1553 m 257
 -8 1494 l 257
 1032 1494 l 257
 1032 1553 l 257
 -8 1553 l 257
596 1537 m 257
 596 1023 l 257
 656 1023 l 257
 656 1537 l 257
 596 1537 l 257
134 1084 m 257
 134 1023 l 257
 656 1023 l 257
 656 1084 l 257
 134 1084 l 257
134 1085 m 257
 134 651 l 257
 194 651 l 257
 194 1085 l 257
 134 1085 l 257
134 698 m 257
 134 638 l 257
 1084 638 l 257
 1084 698 l 257
 134 698 l 257
568 691 m 257
 568 7 l 257
 628 7 l 257
 628 691 l 257
 568 691 l 257
134 63 m 257
 134 0 l 257
 628 0 l 257
 628 63 l 257
 134 63 l 257
134 63 m 257
 134 -148 l 257
 194 -148 l 257
 194 63 l 257
 134 63 l 257
EndSplineSet
EndChar

StartChar: uni091E
Encoding: 2334 2334 465
GlifName: uni091E_
Width: 1024
VWidth: 0
Flags: W
LayerCount: 2
Fore
SplineSet
-5 1553 m 257
 -5 1493 l 257
 1029 1493 l 257
 1029 1553 l 257
 -5 1553 l 257
875 1538 m 257
 875 -8 l 257
 935 -8 l 257
 935 1538 l 257
 875 1538 l 257
582 672 m 257
 582 612 l 257
 896 612 l 257
 896 672 l 257
 582 672 l 257
84 960 m 257
 84 900 l 257
 581 900 l 257
 581 960 l 257
 84 960 l 257
551 960 m 257
 551 316 l 257
 611 316 l 257
 611 960 l 257
 551 960 l 257
61 320 m 257
 61 260 l 257
 611 260 l 257
 611 320 l 257
 61 320 l 257
EndSplineSet
EndChar

StartChar: uni091E_uni0930_uni094D.vatu
Encoding: 65570 -1 466
GlifName: uni091E__uni0930_uni094D_.vatu
Width: 1024
VWidth: 0
Flags: W
LayerCount: 2
Fore
SplineSet
289 0 m 257
 409 0 l 257
 886 215 l 257
 886 285 l 257
 289 0 l 257
-5 1553 m 257
 -5 1493 l 257
 1029 1493 l 257
 1029 1553 l 257
 -5 1553 l 257
875 1538 m 257
 875 -8 l 257
 935 -8 l 257
 935 1538 l 257
 875 1538 l 257
582 672 m 257
 582 612 l 257
 896 612 l 257
 896 672 l 257
 582 672 l 257
84 960 m 257
 84 900 l 257
 581 900 l 257
 581 960 l 257
 84 960 l 257
551 960 m 257
 551 316 l 257
 611 316 l 257
 611 960 l 257
 551 960 l 257
61 320 m 257
 61 260 l 257
 611 260 l 257
 611 320 l 257
 61 320 l 257
EndSplineSet
EndChar

StartChar: uni091E_uni094D.half
Encoding: 65571 -1 467
GlifName: uni091E__uni094D_.half
Width: 1024
VWidth: 0
Flags: W
LayerCount: 2
Fore
SplineSet
-5 1553 m 257
 -5 1493 l 257
 1029 1493 l 257
 1029 1553 l 257
 -5 1553 l 257
582 672 m 257
 582 612 l 257
 1096 612 l 257
 1096 672 l 257
 582 672 l 257
84 960 m 257
 84 900 l 257
 581 900 l 257
 581 960 l 257
 84 960 l 257
551 960 m 257
 551 316 l 257
 611 316 l 257
 611 960 l 257
 551 960 l 257
61 320 m 257
 61 260 l 257
 611 260 l 257
 611 320 l 257
 61 320 l 257
EndSplineSet
EndChar

StartChar: uni091F
Encoding: 2335 2335 469
GlifName: uni091F_
Width: 1024
VWidth: 0
Flags: W
LayerCount: 2
Fore
SplineSet
5 1553 m 257
 5 1494 l 257
 1019 1494 l 257
 1019 1553 l 257
 5 1553 l 257
704 1528 m 257
 704 988 l 257
 764 988 l 257
 764 1528 l 257
 704 1528 l 257
764 1023 m 257
 115 1023 l 257
 115 963 l 257
 764 963 l 257
 764 1023 l 257
94 1023 m 257
 94 5 l 257
 154 5 l 257
 154 1023 l 257
 94 1023 l 257
94 60 m 257
 94 0 l 257
 807 0 l 257
 807 60 l 257
 94 60 l 257
EndSplineSet
EndChar

StartChar: uni091F_uni0930_uni094D.vatu
Encoding: 65573 -1 470
GlifName: uni091F__uni0930_uni094D_.vatu
Width: 1024
VWidth: 0
Flags: W
LayerCount: 2
Fore
SplineSet
394 220 m 257
 577 -119 l 257
 645 -119 l 257
 438 287 l 257
 394 220 l 257
438 287 m 257
 178 -106 l 257
 246 -106 l 257
 468 228 l 257
 438 287 l 257
5 1553 m 257
 5 1494 l 257
 1019 1494 l 257
 1019 1553 l 257
 5 1553 l 257
704 1528 m 257
 704 988 l 257
 764 988 l 257
 764 1528 l 257
 704 1528 l 257
764 1023 m 257
 115 1023 l 257
 115 963 l 257
 764 963 l 257
 764 1023 l 257
94 1023 m 257
 94 305 l 257
 154 305 l 257
 154 1023 l 257
 94 1023 l 257
94 360 m 257
 94 300 l 257
 807 300 l 257
 807 360 l 257
 94 360 l 257
EndSplineSet
EndChar

StartChar: uni0920
Encoding: 2336 2336 472
GlifName: uni0920
Width: 1024
VWidth: 0
Flags: W
LayerCount: 2
Fore
SplineSet
0 1550 m 257
 0 1490 l 257
 1025 1490 l 257
 1025 1550 l 257
 0 1550 l 257
597 1510 m 257
 597 1023 l 257
 656 1023 l 257
 656 1510 l 257
 597 1510 l 257
84 1023 m 257
 84 963 l 257
 962 963 l 257
 962 1023 l 257
 84 1023 l 257
71 1023 m 257
 71 13 l 257
 133 13 l 257
 133 1023 l 257
 71 1023 l 257
891 1001 m 257
 891 0 l 257
 962 0 l 257
 962 1001 l 257
 891 1001 l 257
72 58 m 257
 72 0 l 257
 942 0 l 257
 942 58 l 257
 72 58 l 257
EndSplineSet
EndChar

StartChar: uni0920_uni0930_uni094D.vatu
Encoding: 65575 -1 473
GlifName: uni0920_uni0930_uni094D_.vatu
Width: 1024
VWidth: 0
Flags: W
LayerCount: 2
Fore
SplineSet
495 220 m 257
 678 -119 l 257
 746 -119 l 257
 539 287 l 257
 495 220 l 257
539 287 m 257
 279 -106 l 257
 347 -106 l 257
 569 228 l 257
 539 287 l 257
0 1550 m 257
 0 1490 l 257
 1025 1490 l 257
 1025 1550 l 257
 0 1550 l 257
510 1510 m 257
 510 1023 l 257
 569 1023 l 257
 569 1510 l 257
 510 1510 l 257
84 1023 m 257
 84 963 l 257
 962 963 l 257
 962 1023 l 257
 84 1023 l 257
71 1023 m 257
 71 313 l 257
 133 313 l 257
 133 1023 l 257
 71 1023 l 257
891 1001 m 257
 891 298 l 257
 962 298 l 257
 962 1001 l 257
 891 1001 l 257
72 358 m 257
 72 297 l 257
 942 297 l 257
 942 358 l 257
 72 358 l 257
EndSplineSet
EndChar

StartChar: uni0921
Encoding: 2337 2337 475
GlifName: uni0921
Width: 1024
VWidth: 0
Flags: W
LayerCount: 2
Fore
SplineSet
0 1548 m 257
 0 1488 l 257
 1026 1488 l 257
 1026 1548 l 257
 0 1548 l 257
384 1091 m 257
 384 579 l 257
 444 579 l 257
 444 1091 l 257
 384 1091 l 257
384 597 m 257
 384 538 l 257
 927 538 l 257
 927 597 l 257
 384 597 l 257
867 554 m 257
 867 5 l 257
 927 5 l 257
 927 554 l 257
 867 554 l 257
62 60 m 257
 62 0 l 257
 927 0 l 257
 927 60 l 257
 62 60 l 257
62 331 m 257
 62 5 l 257
 123 5 l 257
 123 331 l 257
 62 331 l 257
384 1134 m 257
 384 1074 l 257
 927 1074 l 257
 927 1134 l 257
 384 1134 l 257
865 1503 m 257
 865 1098 l 257
 927 1098 l 257
 927 1503 l 257
 865 1503 l 257
EndSplineSet
EndChar

StartChar: uni0921_uni0930_uni094D.vatu
Encoding: 65577 -1 476
GlifName: uni0921_uni0930_uni094D_.vatu
Width: 1024
VWidth: 0
Flags: W
LayerCount: 2
Fore
SplineSet
463 136 m 257
 646 -162 l 257
 714 -142 l 257
 507 191 l 257
 463 136 l 257
507 191 m 257
 247 -131 l 257
 315 -152 l 257
 537 143 l 257
 507 191 l 257
0 1548 m 257
 0 1488 l 257
 1026 1488 l 257
 1026 1548 l 257
 0 1548 l 257
384 1091 m 257
 384 799 l 257
 444 799 l 257
 444 1091 l 257
 384 1091 l 257
384 817 m 257
 384 758 l 257
 927 758 l 257
 927 817 l 257
 384 817 l 257
867 774 m 257
 867 225 l 257
 927 225 l 257
 927 774 l 257
 867 774 l 257
62 280 m 257
 62 220 l 257
 927 220 l 257
 927 280 l 257
 62 280 l 257
62 551 m 257
 62 225 l 257
 123 225 l 257
 123 551 l 257
 62 551 l 257
384 1134 m 257
 384 1074 l 257
 927 1074 l 257
 927 1134 l 257
 384 1134 l 257
865 1503 m 257
 865 1098 l 257
 927 1098 l 257
 927 1503 l 257
 865 1503 l 257
EndSplineSet
EndChar

StartChar: uni0922
Encoding: 2338 2338 478
GlifName: uni0922
Width: 1024
VWidth: 0
Flags: W
LayerCount: 2
Fore
SplineSet
0 1550 m 257
 0 1488 l 257
 1024 1488 l 257
 1024 1550 l 257
 0 1550 l 257
687 1528 m 257
 687 988 l 257
 769 988 l 257
 769 1528 l 257
 687 1528 l 257
769 1023 m 257
 120 1023 l 257
 120 962 l 257
 769 962 l 257
 769 1023 l 257
99 1023 m 257
 99 5 l 257
 159 5 l 257
 159 1023 l 257
 99 1023 l 257
99 60 m 257
 99 0 l 257
 812 0 l 257
 812 60 l 257
 99 60 l 257
754 544 m 257
 754 0 l 257
 814 0 l 257
 814 544 l 257
 754 544 l 257
684 547 m 257
 684 487 l 257
 812 487 l 257
 812 547 l 257
 684 547 l 257
EndSplineSet
EndChar

StartChar: uni0922_uni0930_uni094D.vatu
Encoding: 65579 -1 479
GlifName: uni0922_uni0930_uni094D_.vatu
Width: 1024
VWidth: 0
Flags: W
LayerCount: 2
Fore
SplineSet
444 220 m 257
 627 -119 l 257
 695 -119 l 257
 488 287 l 257
 444 220 l 257
488 287 m 257
 228 -106 l 257
 296 -106 l 257
 518 228 l 257
 488 287 l 257
0 1550 m 257
 0 1488 l 257
 1024 1488 l 257
 1024 1550 l 257
 0 1550 l 257
687 1528 m 257
 687 988 l 257
 769 988 l 257
 769 1528 l 257
 687 1528 l 257
769 1023 m 257
 120 1023 l 257
 120 962 l 257
 769 962 l 257
 769 1023 l 257
99 1023 m 257
 99 305 l 257
 159 305 l 257
 159 1023 l 257
 99 1023 l 257
99 360 m 257
 99 300 l 257
 812 300 l 257
 812 360 l 257
 99 360 l 257
754 844 m 257
 754 298 l 257
 814 298 l 257
 814 844 l 257
 754 844 l 257
684 847 m 257
 684 787 l 257
 812 787 l 257
 812 847 l 257
 684 847 l 257
EndSplineSet
EndChar

StartChar: uni0923
Encoding: 2339 2339 481
GlifName: uni0923
Width: 1024
VWidth: 0
Flags: W
LayerCount: 2
Fore
SplineSet
0 1550 m 257
 0 1488 l 257
 1027 1488 l 257
 1027 1550 l 257
 0 1550 l 257
859 1530 m 257
 859 0 l 257
 919 0 l 257
 919 1530 l 257
 859 1530 l 257
107 1543 m 257
 107 855 l 257
 167 855 l 257
 167 1543 l 257
 107 1543 l 257
603 1528 m 257
 603 844 l 257
 663 844 l 257
 663 1528 l 257
 603 1528 l 257
107 885 m 257
 107 825 l 257
 663 825 l 257
 663 885 l 257
 107 885 l 257
EndSplineSet
EndChar

StartChar: uni0923_uni0930_uni094D.vatu
Encoding: 65581 -1 482
GlifName: uni0923_uni0930_uni094D_.vatu
Width: 1024
VWidth: 0
Flags: W
LayerCount: 2
Fore
SplineSet
277 0 m 257
 397 0 l 257
 874 215 l 257
 874 285 l 257
 277 0 l 257
0 1550 m 257
 0 1488 l 257
 1027 1488 l 257
 1027 1550 l 257
 0 1550 l 257
859 1530 m 257
 859 0 l 257
 919 0 l 257
 919 1530 l 257
 859 1530 l 257
107 1543 m 257
 107 855 l 257
 167 855 l 257
 167 1543 l 257
 107 1543 l 257
603 1528 m 257
 603 844 l 257
 663 844 l 257
 663 1528 l 257
 603 1528 l 257
107 885 m 257
 107 825 l 257
 663 825 l 257
 663 885 l 257
 107 885 l 257
EndSplineSet
EndChar

StartChar: uni0923_uni094D.half
Encoding: 65582 -1 483
GlifName: uni0923_uni094D_.half
Width: 1024
VWidth: 0
Flags: W
LayerCount: 2
Fore
SplineSet
0 1550 m 257
 0 1488 l 257
 1027 1488 l 257
 1027 1550 l 257
 0 1550 l 257
307 1543 m 257
 307 855 l 257
 367 855 l 257
 367 1543 l 257
 307 1543 l 257
803 1528 m 257
 803 844 l 257
 863 844 l 257
 863 1528 l 257
 803 1528 l 257
307 885 m 257
 307 825 l 257
 863 825 l 257
 863 885 l 257
 307 885 l 257
EndSplineSet
EndChar

StartChar: uni0924
Encoding: 2340 2340 485
GlifName: uni0924
Width: 1024
VWidth: 0
Flags: W
LayerCount: 2
Fore
SplineSet
-13 1553 m 257
 -13 1497 l 257
 1037 1497 l 257
 1037 1553 l 257
 -13 1553 l 257
787 1534 m 257
 787 0 l 257
 846 0 l 257
 846 1534 l 257
 787 1534 l 257
801 788 m 257
 122 788 l 257
 122 728 l 257
 801 728 l 257
 801 788 l 257
122 766 m 257
 122 26 l 257
 182 26 l 257
 182 766 l 257
 122 766 l 257
EndSplineSet
EndChar

StartChar: uni0924_uni0930_uni094D.vatu
Encoding: 65584 -1 486
GlifName: uni0924_uni0930_uni094D_.vatu
Width: 1024
VWidth: 0
Flags: W
LayerCount: 2
Fore
SplineSet
208 117 m 257
 328 117 l 257
 805 446 l 257
 805 516 l 257
 208 117 l 257
-13 1553 m 257
 -13 1497 l 257
 1037 1497 l 257
 1037 1553 l 257
 -13 1553 l 257
787 1534 m 257
 787 0 l 257
 846 0 l 257
 846 1534 l 257
 787 1534 l 257
801 583 m 257
 122 788 l 257
 122 728 l 257
 801 523 l 257
 801 583 l 257
EndSplineSet
EndChar

StartChar: uni0924_uni094D.half
Encoding: 65585 -1 487
GlifName: uni0924_uni094D_.half
Width: 1024
VWidth: 0
Flags: W
LayerCount: 2
Fore
SplineSet
-13 1553 m 257
 -13 1497 l 257
 1037 1497 l 257
 1037 1553 l 257
 -13 1553 l 257
1101 788 m 257
 422 788 l 257
 422 728 l 257
 1101 728 l 257
 1101 788 l 257
422 766 m 257
 422 26 l 257
 482 26 l 257
 482 766 l 257
 422 766 l 257
EndSplineSet
EndChar

StartChar: uni0924_uni094D_uni0924.pres
Encoding: 65587 -1 489
GlifName: uni0924_uni094D__uni0924.pres
Width: 1024
VWidth: 0
Flags: W
LayerCount: 2
Fore
SplineSet
-30 1553 m 257
 -30 1493 l 257
 1020 1493 l 257
 1020 1553 l 257
 -30 1553 l 257
769 1511 m 257
 769 0 l 257
 829 0 l 257
 829 1511 l 257
 769 1511 l 257
784 788 m 257
 105 788 l 257
 105 728 l 257
 784 728 l 257
 784 788 l 257
105 728 m 257
 250 -16 l 257
 311 22 l 257
 165 766 l 257
 105 728 l 257
798 1038 m 257
 76 1038 l 257
 76 978 l 257
 798 978 l 257
 798 1038 l 257
EndSplineSet
EndChar

StartChar: uni0925
Encoding: 2341 2341 490
GlifName: uni0925
Width: 1024
VWidth: 0
Flags: W
LayerCount: 2
Fore
SplineSet
626 1550 m 257
 626 1492 l 257
 1010 1492 l 257
 1010 1550 l 257
 626 1550 l 257
902 1541 m 257
 902 -18 l 257
 961 -18 l 257
 961 1541 l 257
 902 1541 l 257
14 1550 m 257
 14 1490 l 257
 459 1490 l 257
 459 1550 l 257
 14 1550 l 257
398 1503 m 257
 398 986 l 257
 458 986 l 257
 458 1503 l 257
 398 1503 l 257
459 1018 m 257
 18 1018 l 257
 18 957 l 257
 459 957 l 257
 459 1018 l 257
18 983 m 257
 18 132 l 257
 77 132 l 257
 77 983 l 257
 18 983 l 257
18 191 m 257
 18 132 l 257
 961 132 l 257
 961 191 l 257
 18 191 l 257
EndSplineSet
EndChar

StartChar: uni0925_uni0930_uni094D.vatu
Encoding: 65588 -1 491
GlifName: uni0925_uni0930_uni094D_.vatu
Width: 1024
VWidth: 0
Flags: W
LayerCount: 2
Fore
SplineSet
317 0 m 257
 437 0 l 257
 914 211 l 257
 914 281 l 257
 317 0 l 257
626 1550 m 257
 626 1492 l 257
 1010 1492 l 257
 1010 1550 l 257
 626 1550 l 257
902 1541 m 257
 902 -18 l 257
 961 -18 l 257
 961 1541 l 257
 902 1541 l 257
14 1550 m 257
 14 1490 l 257
 459 1490 l 257
 459 1550 l 257
 14 1550 l 257
398 1503 m 257
 398 986 l 257
 458 986 l 257
 458 1503 l 257
 398 1503 l 257
459 1018 m 257
 18 1018 l 257
 18 957 l 257
 459 957 l 257
 459 1018 l 257
18 983 m 257
 18 432 l 257
 77 432 l 257
 77 983 l 257
 18 983 l 257
18 491 m 257
 18 432 l 257
 961 432 l 257
 961 491 l 257
 18 491 l 257
EndSplineSet
EndChar

StartChar: uni0925_uni094D.half
Encoding: 65589 -1 492
GlifName: uni0925_uni094D_.half
Width: 1024
VWidth: 0
Flags: W
LayerCount: 2
Fore
SplineSet
692 1545 m 257
 692 1493 l 257
 1024 1493 l 257
 1024 1545 l 257
 692 1545 l 257
114 1550 m 257
 114 1490 l 257
 559 1490 l 257
 559 1550 l 257
 114 1550 l 257
498 1503 m 257
 498 986 l 257
 558 986 l 257
 558 1503 l 257
 498 1503 l 257
559 1018 m 257
 118 1018 l 257
 118 957 l 257
 559 957 l 257
 559 1018 l 257
118 983 m 257
 118 132 l 257
 177 132 l 257
 177 983 l 257
 118 983 l 257
118 191 m 257
 118 132 l 257
 1061 132 l 257
 1061 191 l 257
 118 191 l 257
EndSplineSet
EndChar

StartChar: uni0926
Encoding: 2342 2342 494
GlifName: uni0926
Width: 1024
VWidth: 0
Flags: W
LayerCount: 2
Fore
SplineSet
0 1553 m 257
 0 1493 l 257
 1020 1493 l 257
 1020 1553 l 257
 0 1553 l 257
622 1515 m 257
 622 966 l 257
 682 966 l 257
 682 1515 l 257
 622 1515 l 257
680 1023 m 257
 58 1023 l 257
 58 963 l 257
 680 963 l 257
 680 1023 l 257
58 1011 m 257
 58 318 l 257
 118 318 l 257
 118 1011 l 257
 58 1011 l 257
58 346 m 257
 58 285 l 257
 810 285 l 257
 810 346 l 257
 58 346 l 257
750 325 m 257
 750 -7 l 257
 810 -7 l 257
 810 325 l 257
 750 325 l 257
EndSplineSet
EndChar

StartChar: uni0926_uni0930_uni094D.vatu
Encoding: 65591 -1 495
GlifName: uni0926_uni0930_uni094D_.vatu
Width: 1024
VWidth: 0
Flags: W
LayerCount: 2
Fore
SplineSet
208 0 m 257
 328 0 l 257
 805 215 l 257
 805 285 l 257
 208 0 l 257
0 1553 m 257
 0 1493 l 257
 1020 1493 l 257
 1020 1553 l 257
 0 1553 l 257
622 1515 m 257
 622 1166 l 257
 682 1166 l 257
 682 1515 l 257
 622 1515 l 257
680 1223 m 257
 58 1223 l 257
 58 1163 l 257
 680 1163 l 257
 680 1223 l 257
58 1211 m 257
 58 518 l 257
 118 518 l 257
 118 1211 l 257
 58 1211 l 257
58 546 m 257
 58 485 l 257
 810 485 l 257
 810 546 l 257
 58 546 l 257
750 525 m 257
 750 -7 l 257
 810 -7 l 257
 810 525 l 257
 750 525 l 257
EndSplineSet
EndChar

StartChar: uni0926_uni094D.half
Encoding: 65592 -1 496
GlifName: uni0926_uni094D_.half
Width: 1024
VWidth: 0
Flags: W
LayerCount: 2
Fore
SplineSet
0 1553 m 257
 0 1493 l 257
 1020 1493 l 257
 1020 1553 l 257
 0 1553 l 257
622 1515 m 257
 622 966 l 257
 682 966 l 257
 682 1515 l 257
 622 1515 l 257
680 1023 m 257
 58 1023 l 257
 58 963 l 257
 680 963 l 257
 680 1023 l 257
58 1011 m 257
 58 518 l 257
 118 518 l 257
 118 1011 l 257
 58 1011 l 257
58 546 m 257
 58 485 l 257
 810 485 l 257
 810 546 l 257
 58 546 l 257
750 525 m 257
 750 193 l 257
 810 193 l 257
 810 525 l 257
 750 525 l 257
368 184 m 257
 368 123 l 257
 712 123 l 257
 712 184 l 257
 368 184 l 257
683 129 m 257
 993 -218 l 257
 1023 -166 l 257
 712 185 l 257
 683 129 l 257
EndSplineSet
EndChar

StartChar: uni0926_uni094D_uni0926.pres
Encoding: 65594 -1 498
GlifName: uni0926_uni094D__uni0926.pres
Width: 1024
VWidth: 0
Flags: W
LayerCount: 2
Fore
SplineSet
7 1550 m 257
 7 1489 l 257
 1022 1489 l 257
 1022 1550 l 257
 7 1550 l 257
625 1509 m 257
 625 1164 l 257
 684 1164 l 257
 684 1509 l 257
 625 1509 l 257
683 1197 m 257
 197 1197 l 257
 197 1137 l 257
 683 1137 l 257
 683 1197 l 257
198 1173 m 257
 198 736 l 257
 257 736 l 257
 257 1173 l 257
 198 1173 l 257
196 205 m 257
 196 146 l 257
 809 146 l 257
 809 205 l 257
 196 205 l 257
754 406 m 257
 754 -7 l 257
 813 -7 l 257
 813 406 l 257
 754 406 l 257
683 749 m 257
 247 749 l 257
 247 688 l 257
 683 688 l 257
 683 749 l 257
198 701 m 257
 198 178 l 257
 257 178 l 257
 257 701 l 257
 198 701 l 257
EndSplineSet
EndChar

StartChar: uni0926_uni094D_uni0927.pres
Encoding: 65595 -1 499
GlifName: uni0926_uni094D__uni0927.pres
Width: 1024
VWidth: 0
Flags: W
LayerCount: 2
Fore
SplineSet
0 1550 m 257
 0 1462 l 257
 1028 1462 l 257
 1028 1550 l 257
 0 1550 l 257
772 1509 m 257
 772 983 l 257
 831 983 l 257
 831 1509 l 257
 772 1509 l 257
830 1023 m 257
 381 1023 l 257
 381 959 l 257
 830 959 l 257
 830 1023 l 257
381 996 m 257
 381 164 l 257
 440 164 l 257
 440 996 l 257
 381 996 l 257
901 406 m 257
 901 -7 l 257
 960 -7 l 257
 960 406 l 257
 901 406 l 257
0 978 m 257
 0 918 l 257
 302 918 l 257
 302 978 l 257
 0 978 l 257
0 950 m 257
 0 718 l 257
 59 718 l 257
 59 950 l 257
 0 950 l 257
-5 719 m 257
 -5 659 l 257
 394 659 l 257
 394 719 l 257
 -5 719 l 257
30 674 m 257
 30 180 l 257
 90 180 l 257
 90 674 l 257
 30 674 l 257
29 198 m 257
 29 139 l 257
 917 139 l 257
 917 198 l 257
 29 198 l 257
EndSplineSet
EndChar

StartChar: uni0926_uni094D_uni092F.pres
Encoding: 65596 -1 500
GlifName: uni0926_uni094D__uni092F_.pres
Width: 1024
VWidth: 0
Flags: W
LayerCount: 2
Fore
SplineSet
942 1531 m 257
 942 0 l 257
 1002 0 l 257
 1002 1531 l 257
 942 1531 l 257
674 288 m 257
 674 229 l 257
 952 107 l 257
 952 173 l 257
 674 288 l 257
-5 1550 m 257
 -5 1489 l 257
 1037 1489 l 257
 1037 1550 l 257
 -5 1550 l 257
625 1509 m 257
 625 986 l 257
 684 986 l 257
 684 1509 l 257
 625 1509 l 257
674 288 m 257
 57 288 l 257
 57 229 l 257
 674 229 l 257
 674 288 l 257
57 996 m 257
 57 273 l 257
 116 273 l 257
 116 996 l 257
 57 996 l 257
684 1023 m 257
 56 1023 l 257
 56 960 l 257
 684 960 l 257
 684 1023 l 257
EndSplineSet
EndChar

StartChar: uni0926_uni094D_uni0935.pres
Encoding: 65597 -1 501
GlifName: uni0926_uni094D__uni0935.pres
Width: 1024
VWidth: 0
Flags: W
LayerCount: 2
Fore
SplineSet
7 1550 m 257
 7 1490 l 257
 1022 1490 l 257
 1022 1550 l 257
 7 1550 l 257
623 1509 m 257
 623 1197 l 257
 684 1197 l 257
 684 1509 l 257
 623 1509 l 257
683 1241 m 257
 61 1241 l 257
 61 1182 l 257
 683 1182 l 257
 683 1241 l 257
57 1243 m 257
 57 659 l 257
 117 659 l 257
 117 1243 l 257
 57 1243 l 257
57 684 m 257
 57 625 l 257
 809 625 l 257
 809 684 l 257
 57 684 l 257
753 846 m 257
 753 -7 l 257
 813 -7 l 257
 813 846 l 257
 753 846 l 257
76 478 m 257
 76 102 l 257
 136 102 l 257
 136 478 l 257
 76 478 l 257
77 134 m 257
 77 74 l 257
 812 74 l 257
 812 134 l 257
 77 134 l 257
76 514 m 257
 76 455 l 257
 512 455 l 257
 512 514 l 257
 76 514 l 257
EndSplineSet
EndChar

StartChar: uni0927
Encoding: 2343 2343 502
GlifName: uni0927
Width: 1024
VWidth: 0
Flags: W
LayerCount: 2
Fore
SplineSet
672 1553 m 257
 672 1493 l 257
 974 1493 l 257
 974 1553 l 257
 672 1553 l 257
862 1512 m 257
 862 -6 l 257
 920 -6 l 257
 920 1512 l 257
 862 1512 l 257
52 1553 m 257
 52 1492 l 257
 444 1492 l 257
 444 1553 l 257
 52 1553 l 257
52 1501 m 257
 52 844 l 257
 112 844 l 257
 112 1501 l 257
 52 1501 l 257
50 882 m 257
 50 823 l 257
 450 823 l 257
 450 882 l 257
 50 882 l 257
84 830 m 257
 84 163 l 257
 144 163 l 257
 144 830 l 257
 84 830 l 257
84 186 m 257
 84 126 l 257
 880 126 l 257
 880 186 l 257
 84 186 l 257
EndSplineSet
EndChar

StartChar: uni0927_uni0930_uni094D.vatu
Encoding: 65598 -1 503
GlifName: uni0927_uni0930_uni094D_.vatu
Width: 1024
VWidth: 0
Flags: W
LayerCount: 2
Fore
SplineSet
273 8 m 257
 393 8 l 257
 870 223 l 257
 870 293 l 257
 273 8 l 257
672 1553 m 257
 672 1493 l 257
 974 1493 l 257
 974 1553 l 257
 672 1553 l 257
862 1512 m 257
 862 -6 l 257
 920 -6 l 257
 920 1512 l 257
 862 1512 l 257
52 1553 m 257
 52 1492 l 257
 444 1492 l 257
 444 1553 l 257
 52 1553 l 257
52 1501 m 257
 52 1044 l 257
 112 1044 l 257
 112 1501 l 257
 52 1501 l 257
50 1082 m 257
 50 1023 l 257
 450 1023 l 257
 450 1082 l 257
 50 1082 l 257
84 1030 m 257
 84 363 l 257
 144 363 l 257
 144 1030 l 257
 84 1030 l 257
84 386 m 257
 84 326 l 257
 880 326 l 257
 880 386 l 257
 84 386 l 257
EndSplineSet
EndChar

StartChar: uni0927_uni094D.half
Encoding: 65599 -1 504
GlifName: uni0927_uni094D_.half
Width: 1024
VWidth: 0
Flags: W
LayerCount: 2
Fore
SplineSet
202 1553 m 257
 202 1492 l 257
 594 1492 l 257
 594 1553 l 257
 202 1553 l 257
202 1501 m 257
 202 844 l 257
 262 844 l 257
 262 1501 l 257
 202 1501 l 257
200 882 m 257
 200 823 l 257
 600 823 l 257
 600 882 l 257
 200 882 l 257
234 830 m 257
 234 163 l 257
 294 163 l 257
 294 830 l 257
 234 830 l 257
234 186 m 257
 234 126 l 257
 1030 126 l 257
 1030 186 l 257
 234 186 l 257
EndSplineSet
EndChar

StartChar: uni0928
Encoding: 2344 2344 506
GlifName: uni0928
Width: 1024
VWidth: 0
Flags: W
LayerCount: 2
Fore
SplineSet
0 1550 m 257
 0 1493 l 257
 1020 1493 l 257
 1020 1550 l 257
 0 1550 l 257
842 1550 m 257
 842 0 l 257
 904 0 l 257
 904 1550 l 257
 842 1550 l 257
100 744 m 257
 100 683 l 257
 874 683 l 257
 874 744 l 257
 100 744 l 257
100 741 m 257
 100 456 l 257
 160 456 l 257
 160 741 l 257
 100 741 l 257
EndSplineSet
EndChar

StartChar: uni0928_uni0930_uni094D.vatu
Encoding: 65601 -1 507
GlifName: uni0928_uni0930_uni094D_.vatu
Width: 1024
VWidth: 0
Flags: W
LayerCount: 2
Fore
SplineSet
265 28 m 257
 385 28 l 257
 862 243 l 257
 862 313 l 257
 265 28 l 257
0 1550 m 257
 0 1493 l 257
 1020 1493 l 257
 1020 1550 l 257
 0 1550 l 257
842 1550 m 257
 842 0 l 257
 904 0 l 257
 904 1550 l 257
 842 1550 l 257
100 744 m 257
 100 683 l 257
 874 683 l 257
 874 744 l 257
 100 744 l 257
100 741 m 257
 100 456 l 257
 160 456 l 257
 160 741 l 257
 100 741 l 257
EndSplineSet
EndChar

StartChar: uni0928_uni094D.half
Encoding: 65602 -1 508
GlifName: uni0928_uni094D_.half
Width: 1024
VWidth: 0
Flags: W
LayerCount: 2
Fore
SplineSet
0 1550 m 257
 0 1493 l 257
 1020 1493 l 257
 1020 1550 l 257
 0 1550 l 257
250 744 m 257
 250 683 l 257
 1024 683 l 257
 1024 744 l 257
 250 744 l 257
250 741 m 257
 250 456 l 257
 310 456 l 257
 310 741 l 257
 250 741 l 257
EndSplineSet
EndChar

StartChar: uni0929
Encoding: 2345 2345 510
GlifName: uni0929
Width: 1024
VWidth: 0
Flags: W
LayerCount: 2
Fore
SplineSet
0 1550 m 257
 0 1493 l 257
 1018 1493 l 257
 1018 1550 l 257
 0 1550 l 257
841 1550 m 257
 841 0 l 257
 902 0 l 257
 902 1550 l 257
 841 1550 l 257
98 744 m 257
 98 683 l 257
 872 683 l 257
 872 744 l 257
 98 744 l 257
99 741 m 257
 99 456 l 257
 159 456 l 257
 159 741 l 257
 99 741 l 257
487 -32 m 257
 487 -146 l 257
 630 -146 l 257
 630 -32 l 257
 487 -32 l 257
EndSplineSet
EndChar

StartChar: uni0929_uni0930_uni094D.vatu
Encoding: 65604 -1 511
GlifName: uni0929_uni0930_uni094D_.vatu
Width: 1024
VWidth: 0
Flags: W
LayerCount: 2
Fore
SplineSet
277 24 m 257
 397 24 l 257
 874 239 l 257
 874 309 l 257
 277 24 l 257
0 1550 m 257
 0 1493 l 257
 1018 1493 l 257
 1018 1550 l 257
 0 1550 l 257
841 1550 m 257
 841 0 l 257
 902 0 l 257
 902 1550 l 257
 841 1550 l 257
98 744 m 257
 98 683 l 257
 872 683 l 257
 872 744 l 257
 98 744 l 257
99 741 m 257
 99 456 l 257
 159 456 l 257
 159 741 l 257
 99 741 l 257
487 -32 m 257
 487 -146 l 257
 630 -146 l 257
 630 -32 l 257
 487 -32 l 257
EndSplineSet
EndChar

StartChar: uni0929_uni094D.half
Encoding: 65605 -1 512
GlifName: uni0929_uni094D_.half
Width: 1024
VWidth: 0
Flags: W
LayerCount: 2
Fore
SplineSet
0 1550 m 257
 0 1493 l 257
 1018 1493 l 257
 1018 1550 l 257
 0 1550 l 257
248 744 m 257
 248 683 l 257
 1022 683 l 257
 1022 744 l 257
 248 744 l 257
249 741 m 257
 249 456 l 257
 309 456 l 257
 309 741 l 257
 249 741 l 257
637 -32 m 257
 637 -146 l 257
 780 -146 l 257
 780 -32 l 257
 637 -32 l 257
EndSplineSet
EndChar

StartChar: uni092A
Encoding: 2346 2346 514
GlifName: uni092A_
Width: 1024
VWidth: 0
Flags: W
LayerCount: 2
Fore
SplineSet
-8 1550 m 257
 -8 1491 l 257
 1032 1491 l 257
 1032 1550 l 257
 -8 1550 l 257
830 1539 m 257
 830 0 l 257
 892 0 l 257
 892 1539 l 257
 830 1539 l 257
94 1550 m 257
 94 965 l 257
 154 965 l 257
 154 1550 l 257
 94 1550 l 257
94 1023 m 257
 94 966 l 257
 858 966 l 257
 858 1023 l 257
 94 1023 l 257
EndSplineSet
EndChar

StartChar: uni092A_uni0930_uni094D.vatu
Encoding: 65607 -1 515
GlifName: uni092A__uni0930_uni094D_.vatu
Width: 1024
VWidth: 0
Flags: W
LayerCount: 2
Fore
SplineSet
254 0 m 257
 374 0 l 257
 842 383 l 257
 842 453 l 257
 254 0 l 257
-8 1550 m 257
 -8 1491 l 257
 1032 1491 l 257
 1032 1550 l 257
 -8 1550 l 257
830 1539 m 257
 830 0 l 257
 892 0 l 257
 892 1539 l 257
 830 1539 l 257
94 1550 m 257
 94 965 l 257
 154 965 l 257
 154 1550 l 257
 94 1550 l 257
94 1023 m 257
 94 966 l 257
 858 966 l 257
 858 1023 l 257
 94 1023 l 257
EndSplineSet
EndChar

StartChar: uni092A_uni094D.half
Encoding: 65608 -1 516
GlifName: uni092A__uni094D_.half
Width: 1024
VWidth: 0
Flags: W
LayerCount: 2
Fore
SplineSet
-8 1550 m 257
 -8 1491 l 257
 1032 1491 l 257
 1032 1550 l 257
 -8 1550 l 257
294 1550 m 257
 294 965 l 257
 354 965 l 257
 354 1550 l 257
 294 1550 l 257
294 1023 m 257
 294 966 l 257
 1058 966 l 257
 1058 1023 l 257
 294 1023 l 257
EndSplineSet
EndChar

StartChar: uni092B
Encoding: 2347 2347 518
GlifName: uni092B_
Width: 1024
VWidth: 0
Flags: W
LayerCount: 2
Fore
SplineSet
0 1550 m 257
 0 1491 l 257
 1027 1491 l 257
 1027 1550 l 257
 0 1550 l 257
649 1539 m 257
 649 0 l 257
 709 0 l 257
 709 1539 l 257
 649 1539 l 257
90 1550 m 257
 90 965 l 257
 150 965 l 257
 150 1550 l 257
 90 1550 l 257
90 1023 m 257
 90 964 l 257
 967 964 l 257
 967 1023 l 257
 90 1023 l 257
916 1023 m 257
 916 686 l 257
 976 686 l 257
 976 1023 l 257
 916 1023 l 257
EndSplineSet
EndChar

StartChar: uni092B_uni0930_uni094D.vatu
Encoding: 65610 -1 519
GlifName: uni092B__uni0930_uni094D_.vatu
Width: 1024
VWidth: 0
Flags: W
LayerCount: 2
Fore
SplineSet
115 0 m 257
 235 0 l 257
 712 215 l 257
 712 285 l 257
 115 0 l 257
0 1550 m 257
 0 1491 l 257
 1027 1491 l 257
 1027 1550 l 257
 0 1550 l 257
649 1539 m 257
 649 0 l 257
 709 0 l 257
 709 1539 l 257
 649 1539 l 257
90 1550 m 257
 90 965 l 257
 150 965 l 257
 150 1550 l 257
 90 1550 l 257
90 1023 m 257
 90 964 l 257
 967 964 l 257
 967 1023 l 257
 90 1023 l 257
916 1023 m 257
 916 686 l 257
 976 686 l 257
 976 1023 l 257
 916 1023 l 257
EndSplineSet
EndChar

StartChar: uni092B_uni094D.half
Encoding: 65611 -1 520
GlifName: uni092B__uni094D_.half
Width: 1024
VWidth: 0
Flags: W
LayerCount: 2
Fore
SplineSet
0 1550 m 257
 0 1491 l 257
 1027 1491 l 257
 1027 1550 l 257
 0 1550 l 257
649 1539 m 257
 649 0 l 257
 709 0 l 257
 709 1539 l 257
 649 1539 l 257
90 1550 m 257
 90 965 l 257
 150 965 l 257
 150 1550 l 257
 90 1550 l 257
90 1023 m 257
 90 964 l 257
 1067 964 l 257
 1067 1023 l 257
 90 1023 l 257
EndSplineSet
EndChar

StartChar: uni092C
Encoding: 2348 2348 522
GlifName: uni092C_
Width: 1024
VWidth: 0
Flags: W
LayerCount: 2
Fore
SplineSet
0 1550 m 257
 0 1491 l 257
 1026 1491 l 257
 1026 1550 l 257
 0 1550 l 257
801 1520 m 257
 801 -25 l 257
 861 -25 l 257
 861 1520 l 257
 801 1520 l 257
75 1023 m 257
 75 232 l 257
 135 232 l 257
 135 1023 l 257
 75 1023 l 257
76 264 m 257
 76 204 l 257
 811 204 l 257
 811 264 l 257
 76 264 l 257
100 926 m 257
 726 262 l 257
 814 262 l 257
 138 968 l 257
 100 926 l 257
74 1023 m 257
 74 964 l 257
 612 964 l 257
 612 1023 l 257
 74 1023 l 257
EndSplineSet
EndChar

StartChar: uni092C_uni0930_uni094D.vatu
Encoding: 65613 -1 523
GlifName: uni092C__uni0930_uni094D_.vatu
Width: 1024
VWidth: 0
Flags: W
LayerCount: 2
Fore
SplineSet
208 0 m 257
 328 0 l 257
 805 215 l 257
 805 285 l 257
 208 0 l 257
0 1550 m 257
 0 1491 l 257
 1026 1491 l 257
 1026 1550 l 257
 0 1550 l 257
801 1520 m 257
 801 -25 l 257
 861 -25 l 257
 861 1520 l 257
 801 1520 l 257
75 1023 m 257
 75 232 l 257
 135 232 l 257
 135 1023 l 257
 75 1023 l 257
76 264 m 257
 76 204 l 257
 811 204 l 257
 811 264 l 257
 76 264 l 257
100 926 m 257
 726 262 l 257
 814 262 l 257
 138 968 l 257
 100 926 l 257
74 1023 m 257
 74 964 l 257
 612 964 l 257
 612 1023 l 257
 74 1023 l 257
EndSplineSet
EndChar

StartChar: uni092C_uni094D.half
Encoding: 65614 -1 524
GlifName: uni092C__uni094D_.half
Width: 1024
VWidth: 0
Flags: W
LayerCount: 2
Fore
SplineSet
0 1550 m 257
 0 1491 l 257
 1026 1491 l 257
 1026 1550 l 257
 0 1550 l 257
325 1023 m 257
 325 232 l 257
 385 232 l 257
 385 1023 l 257
 325 1023 l 257
326 264 m 257
 326 204 l 257
 1061 204 l 257
 1061 264 l 257
 326 264 l 257
350 926 m 257
 976 262 l 257
 1064 262 l 257
 388 968 l 257
 350 926 l 257
324 1023 m 257
 324 964 l 257
 862 964 l 257
 862 1023 l 257
 324 1023 l 257
EndSplineSet
EndChar

StartChar: uni092D
Encoding: 2349 2349 526
GlifName: uni092D_
Width: 1024
VWidth: 0
Flags: W
LayerCount: 2
Fore
SplineSet
72 61 m 257
 72 0 l 257
 308 0 l 257
 308 61 l 257
 72 61 l 257
72 320 m 257
 72 0 l 257
 140 0 l 257
 140 320 l 257
 72 320 l 257
562 1550 m 257
 562 1492 l 257
 1007 1492 l 257
 1007 1550 l 257
 562 1550 l 257
871 1543 m 257
 871 0 l 257
 931 0 l 257
 931 1543 l 257
 871 1543 l 257
17 1550 m 257
 17 1099 l 257
 77 1099 l 257
 77 1550 l 257
 17 1550 l 257
43 1550 m 257
 43 1491 l 257
 316 1491 l 257
 316 1550 l 257
 43 1550 l 257
270 1550 m 257
 270 0 l 257
 330 0 l 257
 330 1550 l 257
 270 1550 l 257
76 333 m 257
 76 273 l 257
 903 273 l 257
 903 333 l 257
 76 333 l 257
EndSplineSet
EndChar

StartChar: uni092D_uni0930_uni094D.vatu
Encoding: 65616 -1 527
GlifName: uni092D__uni0930_uni094D_.vatu
Width: 1024
VWidth: 0
Flags: W
LayerCount: 2
Fore
SplineSet
282 0 m 257
 402 0 l 257
 879 215 l 257
 879 285 l 257
 282 0 l 257
72 261 m 257
 72 200 l 257
 308 200 l 257
 308 261 l 257
 72 261 l 257
72 520 m 257
 72 200 l 257
 140 200 l 257
 140 520 l 257
 72 520 l 257
562 1550 m 257
 562 1492 l 257
 1007 1492 l 257
 1007 1550 l 257
 562 1550 l 257
871 1543 m 257
 871 0 l 257
 931 0 l 257
 931 1543 l 257
 871 1543 l 257
17 1550 m 257
 17 1099 l 257
 77 1099 l 257
 77 1550 l 257
 17 1550 l 257
43 1550 m 257
 43 1491 l 257
 316 1491 l 257
 316 1550 l 257
 43 1550 l 257
270 1550 m 257
 270 201 l 257
 330 201 l 257
 330 1550 l 257
 270 1550 l 257
76 533 m 257
 76 473 l 257
 903 473 l 257
 903 533 l 257
 76 533 l 257
EndSplineSet
EndChar

StartChar: uni092D_uni094D.half
Encoding: 65617 -1 528
GlifName: uni092D__uni094D_.half
Width: 1024
VWidth: 0
Flags: W
LayerCount: 2
Fore
SplineSet
72 61 m 257
 72 0 l 257
 308 0 l 257
 308 61 l 257
 72 61 l 257
72 320 m 257
 72 0 l 257
 140 0 l 257
 140 320 l 257
 72 320 l 257
562 1550 m 257
 562 1492 l 257
 1007 1492 l 257
 1007 1550 l 257
 562 1550 l 257
17 1550 m 257
 17 1099 l 257
 77 1099 l 257
 77 1550 l 257
 17 1550 l 257
43 1550 m 257
 43 1491 l 257
 316 1491 l 257
 316 1550 l 257
 43 1550 l 257
270 1550 m 257
 270 0 l 257
 330 0 l 257
 330 1550 l 257
 270 1550 l 257
76 333 m 257
 76 273 l 257
 1053 273 l 257
 1053 333 l 257
 76 333 l 257
EndSplineSet
EndChar

StartChar: uni092E
Encoding: 2350 2350 530
GlifName: uni092E_
Width: 1024
VWidth: 0
Flags: W
LayerCount: 2
Fore
SplineSet
72 61 m 257
 72 0 l 257
 308 0 l 257
 308 61 l 257
 72 61 l 257
72 320 m 257
 72 0 l 257
 140 0 l 257
 140 320 l 257
 72 320 l 257
0 1550 m 257
 0 1488 l 257
 1024 1488 l 257
 1024 1550 l 257
 0 1550 l 257
890 1543 m 257
 890 0 l 257
 948 0 l 257
 948 1543 l 257
 890 1543 l 257
288 1538 m 257
 288 0 l 257
 346 0 l 257
 346 1538 l 257
 288 1538 l 257
94 333 m 257
 94 273 l 257
 920 273 l 257
 920 333 l 257
 94 333 l 257
EndSplineSet
EndChar

StartChar: uni092E_uni0930_uni094D.vatu
Encoding: 65619 -1 531
GlifName: uni092E__uni0930_uni094D_.vatu
Width: 1024
VWidth: 0
Flags: W
LayerCount: 2
Fore
SplineSet
309 0 m 257
 429 0 l 257
 906 215 l 257
 906 285 l 257
 309 0 l 257
72 261 m 257
 72 200 l 257
 308 200 l 257
 308 261 l 257
 72 261 l 257
72 520 m 257
 72 200 l 257
 140 200 l 257
 140 520 l 257
 72 520 l 257
0 1550 m 257
 0 1488 l 257
 1024 1488 l 257
 1024 1550 l 257
 0 1550 l 257
890 1543 m 257
 890 0 l 257
 948 0 l 257
 948 1543 l 257
 890 1543 l 257
288 1538 m 257
 288 200 l 257
 346 200 l 257
 346 1538 l 257
 288 1538 l 257
94 533 m 257
 94 473 l 257
 920 473 l 257
 920 533 l 257
 94 533 l 257
EndSplineSet
EndChar

StartChar: uni092E_uni094D.half
Encoding: 65620 -1 532
GlifName: uni092E__uni094D_.half
Width: 1024
VWidth: 0
Flags: W
LayerCount: 2
Fore
SplineSet
72 61 m 257
 72 0 l 257
 308 0 l 257
 308 61 l 257
 72 61 l 257
72 320 m 257
 72 0 l 257
 140 0 l 257
 140 320 l 257
 72 320 l 257
0 1550 m 257
 0 1488 l 257
 1024 1488 l 257
 1024 1550 l 257
 0 1550 l 257
288 1538 m 257
 288 0 l 257
 346 0 l 257
 346 1538 l 257
 288 1538 l 257
94 333 m 257
 94 273 l 257
 1070 273 l 257
 1070 333 l 257
 94 333 l 257
EndSplineSet
EndChar

StartChar: uni092F
Encoding: 2351 2351 534
GlifName: uni092F_
Width: 1024
VWidth: 0
Flags: W
LayerCount: 2
Fore
SplineSet
-8 1550 m 257
 -8 1489 l 257
 1032 1489 l 257
 1032 1550 l 257
 -8 1550 l 257
838 1531 m 257
 838 0 l 257
 898 0 l 257
 898 1531 l 257
 838 1531 l 257
134 1490 m 257
 326 846 l 257
 384 846 l 257
 188 1542 l 257
 134 1490 l 257
326 846 m 257
 138 472 l 257
 198 450 l 257
 384 846 l 257
 326 846 l 257
168 524 m 257
 138 472 l 257
 840 199 l 257
 864 256 l 257
 168 524 l 257
EndSplineSet
EndChar

StartChar: uni092F_uni0930_uni094D.vatu
Encoding: 65622 -1 535
GlifName: uni092F__uni0930_uni094D_.vatu
Width: 1024
VWidth: 0
Flags: W
LayerCount: 2
Fore
SplineSet
208 0 m 257
 328 0 l 257
 805 215 l 257
 805 285 l 257
 208 0 l 257
-8 1550 m 257
 -8 1489 l 257
 1032 1489 l 257
 1032 1550 l 257
 -8 1550 l 257
838 1531 m 257
 838 0 l 257
 898 0 l 257
 898 1531 l 257
 838 1531 l 257
134 1490 m 257
 326 846 l 257
 384 846 l 257
 188 1542 l 257
 134 1490 l 257
326 846 m 257
 138 472 l 257
 198 450 l 257
 384 846 l 257
 326 846 l 257
168 524 m 257
 138 472 l 257
 840 199 l 257
 864 256 l 257
 168 524 l 257
EndSplineSet
EndChar

StartChar: uni092F_uni094D.half
Encoding: 65623 -1 536
GlifName: uni092F__uni094D_.half
Width: 1024
VWidth: 0
Flags: W
LayerCount: 2
Fore
SplineSet
-8 1550 m 257
 -8 1489 l 257
 1032 1489 l 257
 1032 1550 l 257
 -8 1550 l 257
334 1490 m 257
 526 846 l 257
 584 846 l 257
 388 1542 l 257
 334 1490 l 257
526 846 m 257
 338 472 l 257
 398 450 l 257
 584 846 l 257
 526 846 l 257
368 524 m 257
 338 472 l 257
 1040 199 l 257
 1064 256 l 257
 368 524 l 257
EndSplineSet
EndChar

StartChar: uni0930
Encoding: 2352 2352 538
GlifName: uni0930
Width: 1024
VWidth: 0
Flags: W
LayerCount: 2
Fore
SplineSet
0 1550 m 257
 0 1492 l 257
 1022 1492 l 257
 1022 1550 l 257
 0 1550 l 257
728 1540 m 257
 728 790 l 257
 788 790 l 257
 788 1540 l 257
 728 1540 l 257
788 802 m 257
 354 802 l 257
 354 742 l 257
 788 742 l 257
 788 802 l 257
354 742 m 257
 846 0 l 257
 918 0 l 257
 388 802 l 257
 354 742 l 257
EndSplineSet
EndChar

StartChar: uni0930_uni0930_uni094D.vatu
Encoding: 65625 -1 539
GlifName: uni0930_uni0930_uni094D_.vatu
Width: 1024
VWidth: 0
Flags: W
LayerCount: 2
Fore
SplineSet
127 0 m 257
 247 0 l 257
 724 215 l 257
 724 285 l 257
 127 0 l 257
0 1550 m 257
 0 1492 l 257
 1022 1492 l 257
 1022 1550 l 257
 0 1550 l 257
728 1540 m 257
 728 790 l 257
 788 790 l 257
 788 1540 l 257
 728 1540 l 257
788 802 m 257
 354 802 l 257
 354 742 l 257
 788 742 l 257
 788 802 l 257
354 742 m 257
 846 0 l 257
 918 0 l 257
 388 802 l 257
 354 742 l 257
EndSplineSet
EndChar

StartChar: uni0930_uni0941.blws
Encoding: 65626 -1 540
GlifName: uni0930_uni0941.blws
Width: 1024
VWidth: 0
Flags: W
LayerCount: 2
Fore
SplineSet
413 1018 m 257
 785 1018 l 257
 785 1078 l 257
 413 1078 l 257
 413 1018 l 257
760 380 m 257
 821 380 l 257
 821 1079 l 257
 760 1079 l 257
 760 380 l 257
646 380 m 257
 797 380 l 257
 797 440 l 257
 646 440 l 257
 646 380 l 257
0 1548 m 257
 0 1488 l 257
 1024 1488 l 257
 1024 1548 l 257
 0 1548 l 257
364 1537 m 257
 364 790 l 257
 424 790 l 257
 424 1537 l 257
 364 1537 l 257
424 802 m 257
 131 802 l 257
 131 742 l 257
 424 742 l 257
 424 802 l 257
131 743 m 257
 479 -50 l 257
 532 -21 l 257
 183 772 l 257
 131 743 l 257
EndSplineSet
EndChar

StartChar: uni0930_uni0942.blws
Encoding: 65627 -1 541
GlifName: uni0930_uni0942.blws
Width: 1024
VWidth: 0
Flags: W
LayerCount: 2
Fore
SplineSet
787 679 m 257
 787 739 l 257
 542 739 l 257
 542 679 l 257
 787 679 l 257
602 735 m 257
 602 1024 l 257
 542 1024 l 257
 542 735 l 257
 602 735 l 257
419 1024 m 257
 419 964 l 257
 819 964 l 257
 819 1024 l 257
 419 1024 l 257
819 961 m 257
 1024 727 l 257
 1024 774 l 257
 819 1024 l 257
 819 961 l 257
0 1548 m 257
 0 1488 l 257
 1020 1488 l 257
 1020 1548 l 257
 0 1548 l 257
391 1537 m 257
 391 790 l 257
 451 790 l 257
 451 1537 l 257
 391 1537 l 257
451 802 m 257
 18 802 l 257
 18 742 l 257
 451 742 l 257
 451 802 l 257
18 743 m 257
 366 9 l 257
 400 61 l 257
 51 795 l 257
 18 743 l 257
EndSplineSet
EndChar

StartChar: uni0930_uni094D.abvs
Encoding: 65628 -1 542
GlifName: uni0930_uni094D_.abvs
Width: 1024
VWidth: 0
Flags: W
LayerCount: 2
Fore
SplineSet
120 1550 m 257
 180 1550 l 257
 180 1869 l 257
 120 1869 l 257
 120 1550 l 257
244 2002 m 257
 244 1942 l 257
 572 1942 l 257
 572 2002 l 257
 244 2002 l 257
244 2002 m 257
 120 1869 l 257
 180 1869 l 257
 244 1942 l 257
 244 2002 l 257
EndSplineSet
EndChar

StartChar: uni0930_uni094D.blwf
Encoding: 65629 -1 543
GlifName: uni0930_uni094D_.blwf
Width: 1024
VWidth: 0
Flags: W
LayerCount: 2
Fore
SplineSet
-14 1550 m 257
 -14 1490 l 257
 1026 1490 l 257
 1026 1550 l 257
 -14 1550 l 257
-630 -171 m 257
 -447 -510 l 257
 -379 -510 l 257
 -586 -104 l 257
 -630 -171 l 257
-586 -104 m 257
 -846 -497 l 257
 -778 -497 l 257
 -556 -163 l 257
 -586 -104 l 257
EndSplineSet
EndChar

StartChar: uni0930_uni094D.half
Encoding: 65630 -1 544
GlifName: uni0930_uni094D_.half
Width: 1024
VWidth: 0
Flags: W
LayerCount: 2
Fore
SplineSet
0 1550 m 257
 0 1492 l 257
 1022 1492 l 257
 1022 1550 l 257
 0 1550 l 257
1024 956 m 257
 788 802 l 257
 788 742 l 257
 1042 869 l 257
 1024 956 l 257
788 802 m 257
 354 802 l 257
 361 742 l 257
 788 742 l 257
 788 802 l 257
135 878 m 257
 361 747 l 257
 354 802 l 257
 182 912 l 257
 135 878 l 257
EndSplineSet
EndChar

StartChar: uni0930_uni094D.rphf
Encoding: 65632 -1 546
GlifName: uni0930_uni094D_.rphf
Width: 1024
VWidth: 0
Flags: W
LayerCount: 2
Fore
SplineSet
-11 1550 m 257
 -11 1492 l 257
 1028 1492 l 257
 1028 1550 l 257
 -11 1550 l 257
-380 1550 m 257
 -320 1550 l 257
 -320 1869 l 257
 -380 1869 l 257
 -380 1550 l 257
-256 2002 m 257
 -256 1942 l 257
 72 1942 l 257
 72 2002 l 257
 -256 2002 l 257
-256 2002 m 257
 -380 1869 l 257
 -320 1869 l 257
 -256 1942 l 257
 -256 2002 l 257
EndSplineSet
EndChar

StartChar: uni0930_uni094D.vatu
Encoding: 65633 -1 547
GlifName: uni0930_uni094D_.vatu
Width: 1024
VWidth: 0
Flags: W
LayerCount: 2
Fore
SplineSet
208 0 m 257
 328 0 l 257
 805 215 l 257
 805 285 l 257
 208 0 l 257
EndSplineSet
EndChar

StartChar: uni0931
Encoding: 2353 2353 548
GlifName: uni0931
Width: 1024
VWidth: 0
Flags: W
LayerCount: 2
Fore
SplineSet
0 1566 m 257
 0 1506 l 257
 1025 1506 l 257
 1025 1566 l 257
 0 1566 l 257
730 1553 m 257
 730 804 l 257
 790 804 l 257
 790 1553 l 257
 730 1553 l 257
790 816 m 257
 357 816 l 257
 357 756 l 257
 790 756 l 257
 790 816 l 257
357 756 m 257
 849 12 l 257
 921 12 l 257
 391 816 l 257
 357 756 l 257
535 -64 m 257
 535 -178 l 257
 678 -178 l 257
 678 -64 l 257
 535 -64 l 257
EndSplineSet
EndChar

StartChar: uni0931_uni0930_uni094D.vatu
Encoding: 65634 -1 549
GlifName: uni0931_uni0930_uni094D_.vatu
Width: 1024
VWidth: 0
Flags: W
LayerCount: 2
Fore
SplineSet
139 0 m 257
 259 0 l 257
 736 215 l 257
 736 285 l 257
 139 0 l 257
0 1566 m 257
 0 1506 l 257
 1025 1506 l 257
 1025 1566 l 257
 0 1566 l 257
730 1553 m 257
 730 804 l 257
 790 804 l 257
 790 1553 l 257
 730 1553 l 257
790 816 m 257
 357 816 l 257
 357 756 l 257
 790 756 l 257
 790 816 l 257
357 756 m 257
 849 12 l 257
 921 12 l 257
 391 816 l 257
 357 756 l 257
535 -64 m 257
 535 -178 l 257
 678 -178 l 257
 678 -64 l 257
 535 -64 l 257
EndSplineSet
EndChar

StartChar: uni0932
Encoding: 2354 2354 551
GlifName: uni0932
Width: 1024
VWidth: 0
Flags: W
LayerCount: 2
Fore
SplineSet
-6 1550 m 257
 -6 1490 l 257
 1030 1490 l 257
 1030 1550 l 257
 -6 1550 l 257
905 1544 m 257
 845 1544 l 257
 845 0 l 257
 905 0 l 257
 905 1544 l 257
37 750 m 257
 37 195 l 257
 97 195 l 257
 97 750 l 257
 37 750 l 257
37 782 m 257
 37 722 l 257
 874 722 l 257
 874 782 l 257
 37 782 l 257
441 753 m 257
 441 374 l 257
 501 374 l 257
 501 753 l 257
 441 753 l 257
EndSplineSet
EndChar

StartChar: uni0932_uni0930_uni094D.vatu
Encoding: 65636 -1 552
GlifName: uni0932_uni0930_uni094D_.vatu
Width: 1024
VWidth: 0
Flags: W
LayerCount: 2
Fore
SplineSet
270 0 m 257
 390 0 l 257
 867 215 l 257
 867 285 l 257
 270 0 l 257
-6 1550 m 257
 -6 1490 l 257
 1030 1490 l 257
 1030 1550 l 257
 -6 1550 l 257
905 1544 m 257
 845 1544 l 257
 845 0 l 257
 905 0 l 257
 905 1544 l 257
37 750 m 257
 37 195 l 257
 97 195 l 257
 97 750 l 257
 37 750 l 257
37 782 m 257
 37 722 l 257
 874 722 l 257
 874 782 l 257
 37 782 l 257
441 753 m 257
 441 374 l 257
 501 374 l 257
 501 753 l 257
 441 753 l 257
EndSplineSet
EndChar

StartChar: uni0932_uni094D.half
Encoding: 65637 -1 553
GlifName: uni0932_uni094D_.half
Width: 1024
VWidth: 0
Flags: W
LayerCount: 2
Fore
SplineSet
-6 1550 m 257
 -6 1490 l 257
 1030 1490 l 257
 1030 1550 l 257
 -6 1550 l 257
237 750 m 257
 237 195 l 257
 297 195 l 257
 297 750 l 257
 237 750 l 257
237 782 m 257
 237 722 l 257
 1074 722 l 257
 1074 782 l 257
 237 782 l 257
641 753 m 257
 641 374 l 257
 701 374 l 257
 701 753 l 257
 641 753 l 257
EndSplineSet
EndChar

StartChar: uni0933
Encoding: 2355 2355 555
GlifName: uni0933
Width: 1024
VWidth: 0
Flags: W
LayerCount: 2
Fore
SplineSet
-6 1553 m 257
 -6 1492 l 257
 1030 1492 l 257
 1030 1553 l 257
 -6 1553 l 257
905 1544 m 257
 845 1544 l 257
 845 194 l 257
 905 194 l 257
 905 1544 l 257
37 760 m 257
 37 194 l 257
 97 194 l 257
 97 760 l 257
 37 760 l 257
37 782 m 257
 37 722 l 257
 883 722 l 257
 883 782 l 257
 37 782 l 257
441 753 m 257
 441 214 l 257
 501 214 l 257
 501 753 l 257
 441 753 l 257
39 251 m 257
 39 191 l 257
 905 191 l 257
 905 251 l 257
 39 251 l 257
EndSplineSet
EndChar

StartChar: uni0933_uni0930_uni094D.vatu
Encoding: 65639 -1 556
GlifName: uni0933_uni0930_uni094D_.vatu
Width: 1024
VWidth: 0
Flags: W
LayerCount: 2
Fore
SplineSet
394 113 m 257
 577 -226 l 257
 645 -226 l 257
 438 180 l 257
 394 113 l 257
438 180 m 257
 178 -213 l 257
 246 -213 l 257
 468 121 l 257
 438 180 l 257
-6 1553 m 257
 -6 1492 l 257
 1030 1492 l 257
 1030 1553 l 257
 -6 1553 l 257
905 1544 m 257
 845 1544 l 257
 845 194 l 257
 905 194 l 257
 905 1544 l 257
37 760 m 257
 37 194 l 257
 97 194 l 257
 97 760 l 257
 37 760 l 257
37 782 m 257
 37 722 l 257
 883 722 l 257
 883 782 l 257
 37 782 l 257
441 753 m 257
 441 214 l 257
 501 214 l 257
 501 753 l 257
 441 753 l 257
39 251 m 257
 39 191 l 257
 905 191 l 257
 905 251 l 257
 39 251 l 257
EndSplineSet
EndChar

StartChar: uni0933_uni094D.half
Encoding: 65640 -1 557
GlifName: uni0933_uni094D_.half
Width: 1024
VWidth: 0
Flags: W
LayerCount: 2
Fore
SplineSet
-6 1553 m 257
 -6 1492 l 257
 1030 1492 l 257
 1030 1553 l 257
 -6 1553 l 257
905 782 m 257
 845 782 l 257
 845 194 l 257
 905 194 l 257
 905 782 l 257
37 760 m 257
 37 194 l 257
 97 194 l 257
 97 760 l 257
 37 760 l 257
37 782 m 257
 37 722 l 257
 883 722 l 257
 883 782 l 257
 37 782 l 257
441 753 m 257
 441 214 l 257
 501 214 l 257
 501 753 l 257
 441 753 l 257
39 251 m 257
 39 191 l 257
 905 191 l 257
 905 251 l 257
 39 251 l 257
EndSplineSet
EndChar

StartChar: uni0934
Encoding: 2356 2356 559
GlifName: uni0934
Width: 1024
VWidth: 0
Flags: W
LayerCount: 2
Fore
SplineSet
0 1553 m 257
 0 1492 l 257
 1035 1492 l 257
 1035 1553 l 257
 0 1553 l 257
910 1544 m 257
 850 1544 l 257
 850 194 l 257
 910 194 l 257
 910 1544 l 257
42 760 m 257
 42 194 l 257
 102 194 l 257
 102 760 l 257
 42 760 l 257
42 782 m 257
 42 722 l 257
 888 722 l 257
 888 782 l 257
 42 782 l 257
446 753 m 257
 446 214 l 257
 506 214 l 257
 506 753 l 257
 446 753 l 257
44 251 m 257
 44 191 l 257
 910 191 l 257
 910 251 l 257
 44 251 l 257
454 -56 m 257
 454 -170 l 257
 596 -170 l 257
 596 -56 l 257
 454 -56 l 257
EndSplineSet
EndChar

StartChar: uni0934_uni0930_uni094D.vatu
Encoding: 65642 -1 560
GlifName: uni0934_uni0930_uni094D_.vatu
Width: 1024
VWidth: 0
Flags: W
LayerCount: 2
Fore
SplineSet
449 111 m 257
 632 -228 l 257
 700 -228 l 257
 493 178 l 257
 449 111 l 257
493 178 m 257
 233 -215 l 257
 301 -215 l 257
 523 119 l 257
 493 178 l 257
0 1553 m 257
 0 1492 l 257
 1035 1492 l 257
 1035 1553 l 257
 0 1553 l 257
910 1544 m 257
 850 1544 l 257
 850 194 l 257
 910 194 l 257
 910 1544 l 257
42 760 m 257
 42 194 l 257
 102 194 l 257
 102 760 l 257
 42 760 l 257
42 782 m 257
 42 722 l 257
 888 722 l 257
 888 782 l 257
 42 782 l 257
446 753 m 257
 446 214 l 257
 506 214 l 257
 506 753 l 257
 446 753 l 257
44 251 m 257
 44 191 l 257
 910 191 l 257
 910 251 l 257
 44 251 l 257
102 114 m 257
 102 0 l 257
 244 0 l 257
 244 114 l 257
 102 114 l 257
EndSplineSet
EndChar

StartChar: uni0934_uni094D.half
Encoding: 65643 -1 561
GlifName: uni0934_uni094D_.half
Width: 1024
VWidth: 0
Flags: W
LayerCount: 2
Fore
SplineSet
0 1553 m 257
 0 1492 l 257
 1035 1492 l 257
 1035 1553 l 257
 0 1553 l 257
910 784 m 257
 850 784 l 257
 850 194 l 257
 910 194 l 257
 910 784 l 257
42 760 m 257
 42 194 l 257
 102 194 l 257
 102 760 l 257
 42 760 l 257
42 782 m 257
 42 722 l 257
 888 722 l 257
 888 782 l 257
 42 782 l 257
446 753 m 257
 446 214 l 257
 506 214 l 257
 506 753 l 257
 446 753 l 257
44 251 m 257
 44 191 l 257
 910 191 l 257
 910 251 l 257
 44 251 l 257
454 -56 m 257
 454 -170 l 257
 596 -170 l 257
 596 -56 l 257
 454 -56 l 257
EndSplineSet
EndChar

StartChar: uni0935
Encoding: 2357 2357 563
GlifName: uni0935
Width: 1024
VWidth: 0
Flags: W
LayerCount: 2
Fore
SplineSet
0 1550 m 257
 0 1490 l 257
 1026 1490 l 257
 1026 1550 l 257
 0 1550 l 257
801 1519 m 257
 801 -25 l 257
 861 -25 l 257
 861 1519 l 257
 801 1519 l 257
75 1023 m 257
 75 232 l 257
 135 232 l 257
 135 1023 l 257
 75 1023 l 257
76 264 m 257
 76 204 l 257
 811 204 l 257
 811 264 l 257
 76 264 l 257
74 1023 m 257
 74 965 l 257
 612 965 l 257
 612 1023 l 257
 74 1023 l 257
EndSplineSet
EndChar

StartChar: uni0935_uni0930_uni094D.vatu
Encoding: 65645 -1 564
GlifName: uni0935_uni0930_uni094D_.vatu
Width: 1024
VWidth: 0
Flags: W
LayerCount: 2
Fore
SplineSet
208 0 m 257
 328 0 l 257
 805 215 l 257
 805 285 l 257
 208 0 l 257
0 1550 m 257
 0 1490 l 257
 1026 1490 l 257
 1026 1550 l 257
 0 1550 l 257
801 1519 m 257
 801 -25 l 257
 861 -25 l 257
 861 1519 l 257
 801 1519 l 257
75 1221 m 257
 75 432 l 257
 135 432 l 257
 135 1221 l 257
 75 1221 l 257
76 464 m 257
 76 404 l 257
 811 404 l 257
 811 464 l 257
 76 464 l 257
74 1226 m 257
 74 1165 l 257
 612 1165 l 257
 612 1226 l 257
 74 1226 l 257
EndSplineSet
EndChar

StartChar: uni0935_uni094D.half
Encoding: 65646 -1 565
GlifName: uni0935_uni094D_.half
Width: 1024
VWidth: 0
Flags: W
LayerCount: 2
Fore
SplineSet
0 1550 m 257
 0 1490 l 257
 1026 1490 l 257
 1026 1550 l 257
 0 1550 l 257
275 1023 m 257
 275 232 l 257
 335 232 l 257
 335 1023 l 257
 275 1023 l 257
276 264 m 257
 276 204 l 257
 1011 204 l 257
 1011 264 l 257
 276 264 l 257
274 1023 m 257
 274 965 l 257
 812 965 l 257
 812 1023 l 257
 274 1023 l 257
EndSplineSet
EndChar

StartChar: uni0936
Encoding: 2358 2358 567
GlifName: uni0936
Width: 1024
VWidth: 0
Flags: W
LayerCount: 2
Fore
SplineSet
597 1553 m 257
 597 1494 l 257
 974 1494 l 257
 974 1553 l 257
 597 1553 l 257
863 1520 m 257
 863 0 l 257
 925 0 l 257
 925 1520 l 257
 863 1520 l 257
50 1543 m 257
 50 1224 l 257
 110 1224 l 257
 110 1543 l 257
 50 1543 l 257
50 1553 m 257
 50 1494 l 257
 521 1494 l 257
 521 1553 l 257
 50 1553 l 257
497 1553 m 257
 497 963 l 257
 557 963 l 257
 557 1553 l 257
 497 1553 l 257
113 1023 m 257
 113 963 l 257
 548 963 l 257
 548 1023 l 257
 113 1023 l 257
113 963 m 257
 430 8 l 257
 487 28 l 257
 191 963 l 257
 113 963 l 257
EndSplineSet
EndChar

StartChar: uni0936_uni0930_uni094D.vatu
Encoding: 65648 -1 568
GlifName: uni0936_uni0930_uni094D_.vatu
Width: 1024
VWidth: 0
Flags: W
LayerCount: 2
Fore
SplineSet
182 0 m 257
 284 0 l 257
 925 474 l 257
 925 556 l 257
 182 0 l 257
771 1550 m 257
 771 1489 l 257
 1024 1489 l 257
 1024 1550 l 257
 771 1550 l 257
914 1520 m 257
 914 0 l 257
 975 0 l 257
 975 1520 l 257
 914 1520 l 257
100 1543 m 257
 100 1224 l 257
 160 1224 l 257
 160 1543 l 257
 100 1543 l 257
100 1550 m 257
 100 1489 l 257
 575 1489 l 257
 575 1550 l 257
 100 1550 l 257
547 1550 m 257
 547 949 l 257
 607 949 l 257
 607 1550 l 257
 547 1550 l 257
228 670 m 257
 274 630 l 257
 601 956 l 257
 549 994 l 257
 228 670 l 257
100 1224 m 257
 928 674 l 257
 958 746 l 257
 160 1224 l 257
 100 1224 l 257
EndSplineSet
EndChar

StartChar: uni0936_uni094D.half
Encoding: 65649 -1 569
GlifName: uni0936_uni094D_.half
Width: 1024
VWidth: 0
Flags: W
LayerCount: 2
Fore
SplineSet
250 1543 m 257
 250 1224 l 257
 310 1224 l 257
 310 1543 l 257
 250 1543 l 257
250 1553 m 257
 250 1494 l 257
 721 1494 l 257
 721 1553 l 257
 250 1553 l 257
697 1553 m 257
 697 963 l 257
 757 963 l 257
 757 1553 l 257
 697 1553 l 257
313 1023 m 257
 313 963 l 257
 748 963 l 257
 748 1023 l 257
 313 1023 l 257
313 963 m 257
 630 8 l 257
 687 28 l 257
 391 963 l 257
 313 963 l 257
EndSplineSet
EndChar

StartChar: uni0937
Encoding: 2359 2359 571
GlifName: uni0937
Width: 1024
VWidth: 0
Flags: W
LayerCount: 2
Fore
SplineSet
-8 1550 m 257
 -8 1491 l 257
 1032 1491 l 257
 1032 1550 l 257
 -8 1550 l 257
830 1539 m 257
 830 0 l 257
 892 0 l 257
 892 1539 l 257
 830 1539 l 257
94 1550 m 257
 94 965 l 257
 154 965 l 257
 154 1550 l 257
 94 1550 l 257
94 1023 m 257
 94 966 l 257
 858 966 l 257
 858 1023 l 257
 94 1023 l 257
94 1533 m 257
 834 959 l 257
 892 971 l 257
 154 1533 l 257
 94 1533 l 257
EndSplineSet
EndChar

StartChar: uni0937_uni0930_uni094D.vatu
Encoding: 65651 -1 572
GlifName: uni0937_uni0930_uni094D_.vatu
Width: 1024
VWidth: 0
Flags: W
LayerCount: 2
Fore
SplineSet
241 14 m 257
 361 14 l 257
 838 229 l 257
 838 299 l 257
 241 14 l 257
-8 1550 m 257
 -8 1491 l 257
 1032 1491 l 257
 1032 1550 l 257
 -8 1550 l 257
830 1539 m 257
 830 0 l 257
 892 0 l 257
 892 1539 l 257
 830 1539 l 257
94 1550 m 257
 94 965 l 257
 154 965 l 257
 154 1550 l 257
 94 1550 l 257
94 1023 m 257
 94 966 l 257
 858 966 l 257
 858 1023 l 257
 94 1023 l 257
94 1533 m 257
 834 959 l 257
 892 971 l 257
 154 1533 l 257
 94 1533 l 257
EndSplineSet
EndChar

StartChar: uni0937_uni094D.half
Encoding: 65652 -1 573
GlifName: uni0937_uni094D_.half
Width: 1024
VWidth: 0
Flags: W
LayerCount: 2
Fore
SplineSet
-8 1550 m 257
 -8 1491 l 257
 1032 1491 l 257
 1032 1550 l 257
 -8 1550 l 257
294 1550 m 257
 294 965 l 257
 354 965 l 257
 354 1550 l 257
 294 1550 l 257
294 1023 m 257
 294 966 l 257
 1058 966 l 257
 1058 1023 l 257
 294 1023 l 257
294 1533 m 257
 1034 959 l 257
 1092 971 l 257
 354 1533 l 257
 294 1533 l 257
EndSplineSet
EndChar

StartChar: uni0938
Encoding: 2360 2360 575
GlifName: uni0938
Width: 1024
VWidth: 0
Flags: W
LayerCount: 2
Fore
SplineSet
0 1550 m 257
 0 1491 l 257
 1028 1491 l 257
 1028 1550 l 257
 0 1550 l 257
855 1544 m 257
 855 0 l 257
 914 0 l 257
 914 1544 l 257
 855 1544 l 257
154 1509 m 257
 154 719 l 257
 215 719 l 257
 215 1509 l 257
 154 1509 l 257
154 720 m 257
 154 659 l 257
 862 659 l 257
 862 720 l 257
 154 720 l 257
154 659 m 257
 627 0 l 257
 694 0 l 257
 218 659 l 257
 154 659 l 257
EndSplineSet
EndChar

StartChar: uni0938_uni0930_uni094D.vatu
Encoding: 65654 -1 576
GlifName: uni0938_uni0930_uni094D_.vatu
Width: 1024
VWidth: 0
Flags: W
LayerCount: 2
Fore
SplineSet
541 0 m 257
 661 0 l 257
 905 215 l 257
 905 285 l 257
 541 0 l 257
0 1550 m 257
 0 1491 l 257
 1028 1491 l 257
 1028 1550 l 257
 0 1550 l 257
855 1544 m 257
 855 0 l 257
 914 0 l 257
 914 1544 l 257
 855 1544 l 257
154 1509 m 257
 154 719 l 257
 215 719 l 257
 215 1509 l 257
 154 1509 l 257
154 720 m 257
 154 659 l 257
 862 659 l 257
 862 720 l 257
 154 720 l 257
154 659 m 257
 427 0 l 257
 494 0 l 257
 218 659 l 257
 154 659 l 257
EndSplineSet
EndChar

StartChar: uni0938_uni094D.half
Encoding: 65655 -1 577
GlifName: uni0938_uni094D_.half
Width: 1024
VWidth: 0
Flags: W
LayerCount: 2
Fore
SplineSet
0 1550 m 257
 0 1491 l 257
 1028 1491 l 257
 1028 1550 l 257
 0 1550 l 257
354 1509 m 257
 354 719 l 257
 415 719 l 257
 415 1509 l 257
 354 1509 l 257
354 720 m 257
 354 659 l 257
 1062 659 l 257
 1062 720 l 257
 354 720 l 257
354 659 m 257
 827 0 l 257
 894 0 l 257
 418 659 l 257
 354 659 l 257
EndSplineSet
EndChar

StartChar: uni0939
Encoding: 2361 2361 579
GlifName: uni0939
Width: 1024
VWidth: 0
Flags: W
LayerCount: 2
Fore
SplineSet
0 1553 m 257
 0 1494 l 257
 1028 1494 l 257
 1028 1553 l 257
 0 1553 l 257
586 1514 m 257
 586 1174 l 257
 646 1174 l 257
 646 1514 l 257
 586 1514 l 257
658 1196 m 257
 324 1196 l 257
 324 1135 l 257
 658 1135 l 257
 658 1196 l 257
320 1188 m 257
 320 784 l 257
 402 784 l 257
 402 1188 l 257
 320 1188 l 257
642 789 m 257
 642 577 l 257
 702 577 l 257
 702 789 l 257
 642 789 l 257
142 841 m 257
 142 781 l 257
 702 781 l 257
 702 841 l 257
 142 841 l 257
142 793 m 257
 142 215 l 257
 202 215 l 257
 202 793 l 257
 142 793 l 257
202 216 m 257
 140 216 l 257
 392 0 l 257
 422 53 l 257
 202 216 l 257
EndSplineSet
EndChar

StartChar: uni0939_uni0930_uni094D.vatu
Encoding: 65657 -1 580
GlifName: uni0939_uni0930_uni094D_.vatu
Width: 1024
VWidth: 0
Flags: W
LayerCount: 2
Fore
SplineSet
240 423 m 257
 360 423 l 257
 702 571 l 257
 702 641 l 257
 240 423 l 257
0 1553 m 257
 0 1494 l 257
 1028 1494 l 257
 1028 1553 l 257
 0 1553 l 257
586 1514 m 257
 586 1174 l 257
 646 1174 l 257
 646 1514 l 257
 586 1514 l 257
658 1196 m 257
 324 1196 l 257
 324 1135 l 257
 658 1135 l 257
 658 1196 l 257
320 1188 m 257
 320 784 l 257
 402 784 l 257
 402 1188 l 257
 320 1188 l 257
642 789 m 257
 642 577 l 257
 702 577 l 257
 702 789 l 257
 642 789 l 257
142 841 m 257
 142 781 l 257
 702 781 l 257
 702 841 l 257
 142 841 l 257
142 793 m 257
 142 215 l 257
 202 215 l 257
 202 793 l 257
 142 793 l 257
202 216 m 257
 140 216 l 257
 392 0 l 257
 422 53 l 257
 202 216 l 257
EndSplineSet
EndChar

StartChar: uni0939_uni0943.blws
Encoding: 65658 -1 581
GlifName: uni0939_uni0943.blws
Width: 1024
VWidth: 0
Flags: W
LayerCount: 2
Fore
SplineSet
509 798 m 257
 509 410 l 257
 571 410 l 257
 571 798 l 257
 509 798 l 257
556 468 m 257
 556 410 l 257
 826 410 l 257
 826 468 l 257
 556 468 l 257
-6 1548 m 257
 -6 1488 l 257
 1025 1488 l 257
 1025 1548 l 257
 -6 1548 l 257
589 1510 m 257
 589 1047 l 257
 650 1047 l 257
 650 1510 l 257
 589 1510 l 257
650 1057 m 257
 322 1057 l 257
 322 996 l 257
 650 996 l 257
 650 1057 l 257
322 1057 m 257
 322 785 l 257
 382 785 l 257
 382 1057 l 257
 322 1057 l 257
139 841 m 257
 139 779 l 257
 806 779 l 257
 806 841 l 257
 139 841 l 257
139 793 m 257
 139 215 l 257
 200 215 l 257
 200 793 l 257
 139 793 l 257
200 215 m 257
 139 215 l 257
 389 0 l 257
 457 0 l 257
 200 215 l 257
EndSplineSet
EndChar

StartChar: uni0939_uni094D.half
Encoding: 65659 -1 582
GlifName: uni0939_uni094D_.half
Width: 1024
VWidth: 0
Flags: W
LayerCount: 2
Fore
SplineSet
0 1553 m 257
 0 1494 l 257
 1028 1494 l 257
 1028 1553 l 257
 0 1553 l 257
786 1514 m 257
 786 1174 l 257
 846 1174 l 257
 846 1514 l 257
 786 1514 l 257
858 1196 m 257
 524 1196 l 257
 524 1135 l 257
 858 1135 l 257
 858 1196 l 257
520 1188 m 257
 520 784 l 257
 602 784 l 257
 602 1188 l 257
 520 1188 l 257
342 841 m 257
 342 781 l 257
 1102 781 l 257
 1102 841 l 257
 342 841 l 257
342 793 m 257
 342 215 l 257
 402 215 l 257
 402 793 l 257
 342 793 l 257
402 216 m 257
 340 216 l 257
 592 0 l 257
 622 53 l 257
 402 216 l 257
EndSplineSet
EndChar

StartChar: uni0939_uni094D_uni092E.pres
Encoding: 65661 -1 584
GlifName: uni0939_uni094D__uni092E_.pres
Width: 1024
VWidth: 0
Flags: W
LayerCount: 2
Fore
SplineSet
-6 1550 m 257
 -6 1490 l 257
 1025 1490 l 257
 1025 1550 l 257
 -6 1550 l 257
593 1510 m 257
 593 1174 l 257
 652 1174 l 257
 652 1510 l 257
 593 1510 l 257
655 1196 m 257
 339 1196 l 257
 339 1137 l 257
 655 1137 l 257
 655 1196 l 257
339 1195 m 257
 339 785 l 257
 400 785 l 257
 400 1195 l 257
 339 1195 l 257
638 789 m 257
 638 29 l 257
 699 29 l 257
 699 789 l 257
 638 789 l 257
109 841 m 257
 109 783 l 257
 699 783 l 257
 699 841 l 257
 109 841 l 257
109 793 m 257
 109 304 l 257
 169 316 l 257
 169 793 l 257
 109 793 l 257
521 60 m 257
 521 0 l 257
 699 0 l 257
 699 60 l 257
 521 60 l 257
521 297 m 257
 521 36 l 257
 583 36 l 257
 583 297 l 257
 521 297 l 257
894 1543 m 257
 894 0 l 257
 955 0 l 257
 955 1543 l 257
 894 1543 l 257
530 297 m 257
 530 238 l 257
 917 238 l 257
 917 297 l 257
 530 297 l 257
170 316 m 257
 109 304 l 257
 277 0 l 257
 356 0 l 257
 170 316 l 257
EndSplineSet
EndChar

StartChar: uni093A
Encoding: 2362 2362 585
GlifName: uni093A_
Width: 1024
VWidth: 0
Flags: W
LayerCount: 2
Fore
SplineSet
483 1633 m 257
 483 1090 l 257
 541 1090 l 257
 541 1633 l 257
 483 1633 l 257
EndSplineSet
EndChar

StartChar: uni093B
Encoding: 2363 2363 586
GlifName: uni093B_
Width: 1024
VWidth: 0
Flags: W
LayerCount: 2
Fore
SplineSet
487 1784 m 257
 487 0 l 257
 547 0 l 257
 547 1784 l 257
 487 1784 l 257
18 1544 m 257
 18 1484 l 257
 994 1484 l 257
 994 1544 l 257
 18 1544 l 257
EndSplineSet
EndChar

StartChar: uni093C
Encoding: 2364 2364 587
GlifName: uni093C_
Width: 1024
VWidth: 0
Flags: W
LayerCount: 2
Fore
SplineSet
-465 -162 m 257
 -465 -276 l 257
 -321 -276 l 257
 -321 -162 l 257
 -465 -162 l 257
EndSplineSet
EndChar

StartChar: uni093D
Encoding: 2365 2365 588
GlifName: uni093D_
Width: 1024
VWidth: 0
Flags: W
LayerCount: 2
Fore
SplineSet
344 1264 m 257
 344 1195 l 257
 869 1195 l 257
 869 1264 l 257
 344 1264 l 257
342 1197 m 257
 775 258 l 257
 839 269 l 257
 416 1197 l 257
 342 1197 l 257
463 179 m 257
 455 104 l 257
 839 206 l 257
 839 269 l 257
 463 179 l 257
155 460 m 257
 454 107 l 257
 466 176 l 257
 203 498 l 257
 155 460 l 257
EndSplineSet
EndChar

StartChar: uni093E
Encoding: 2366 2366 589
GlifName: uni093E_
Width: 1024
VWidth: 0
Flags: W
LayerCount: 2
Fore
SplineSet
0 1550 m 257
 0 1491 l 257
 1027 1491 l 257
 1027 1550 l 257
 0 1550 l 257
479 1514 m 257
 479 0 l 257
 538 0 l 257
 538 1514 l 257
 479 1514 l 257
EndSplineSet
EndChar

StartChar: uni093F
Encoding: 2367 2367 591
GlifName: uni093F_
Width: 1024
VWidth: 0
Flags: W
LayerCount: 2
Fore
SplineSet
0 1550 m 257
 0 1490 l 257
 1010 1490 l 257
 1010 1550 l 257
 0 1550 l 257
368 1937 m 257
 368 0 l 257
 428 0 l 257
 428 1937 l 257
 368 1937 l 257
388 1937 m 257
 388 1878 l 257
 1184 1878 l 257
 1184 1937 l 257
 388 1937 l 257
1120 1937 m 257
 1120 1646 l 257
 1184 1646 l 257
 1184 1937 l 257
 1120 1937 l 257
EndSplineSet
EndChar

StartChar: uni0940
Encoding: 2368 2368 592
GlifName: uni0940
Width: 1024
VWidth: 0
Flags: W
LayerCount: 2
Fore
SplineSet
0 1550 m 257
 0 1489 l 257
 1024 1489 l 257
 1024 1550 l 257
 0 1550 l 257
563 1867 m 257
 563 12 l 257
 623 12 l 257
 623 1867 l 257
 563 1867 l 257
623 1827 m 257
 623 1895 l 257
 -231 1895 l 257
 -231 1827 l 257
 623 1827 l 257
-242 1895 m 257
 -242 1563 l 257
 -182 1563 l 257
 -182 1895 l 257
 -242 1895 l 257
EndSplineSet
EndChar

StartChar: uni0941
Encoding: 2369 2369 595
GlifName: uni0941
Width: 1024
VWidth: 0
Flags: W
LayerCount: 2
Fore
SplineSet
-20 1553 m 257
 -20 1493 l 257
 1024 1493 l 257
 1024 1553 l 257
 -20 1553 l 257
-188 -23 m 257
 -188 -83 l 257
 240 -83 l 257
 240 -23 l 257
 -188 -23 l 257
180 -40 m 257
 180 -458 l 257
 240 -458 l 257
 240 -40 l 257
 180 -40 l 257
-458 -406 m 257
 -458 -467 l 257
 242 -467 l 257
 242 -406 l 257
 -458 -406 l 257
-458 -183 m 257
 -458 -448 l 257
 -398 -448 l 257
 -398 -183 l 257
 -458 -183 l 257
EndSplineSet
EndChar

StartChar: uni0942
Encoding: 2370 2370 598
GlifName: uni0942
Width: 1024
VWidth: 0
Flags: W
LayerCount: 2
Fore
SplineSet
-10 1559 m 257
 -10 1499 l 257
 1024 1499 l 257
 1024 1559 l 257
 -10 1559 l 257
-162 -287 m 257
 -162 -226 l 257
 -344 -226 l 257
 -344 -287 l 257
 -162 -287 l 257
-288 -289 m 257
 -288 0 l 257
 -350 0 l 257
 -350 -289 l 257
 -288 -289 l 257
-350 0 m 257
 -350 -61 l 257
 66 -61 l 257
 66 0 l 257
 -350 0 l 257
66 -61 m 257
 356 -406 l 257
 436 -406 l 257
 66 0 l 257
 66 -61 l 257
EndSplineSet
EndChar

StartChar: uni0943
Encoding: 2371 2371 601
GlifName: uni0943
Width: 1024
VWidth: 0
Flags: W
LayerCount: 2
Fore
SplineSet
-11 1550 m 257
 -11 1490 l 257
 1024 1490 l 257
 1024 1550 l 257
 -11 1550 l 257
-5 9 m 257
 -387 -133 l 257
 -361 -188 l 257
 20 -46 l 257
 -5 9 l 257
-396 -132 m 257
 -218 -611 l 257
 -153 -591 l 257
 -331 -112 l 257
 -396 -132 l 257
-227 -591 m 257
 -206 -643 l 257
 250 -464 l 257
 219 -420 l 257
 -227 -591 l 257
EndSplineSet
EndChar

StartChar: uni0944
Encoding: 2372 2372 604
GlifName: uni0944
Width: 1024
VWidth: 0
Flags: W
LayerCount: 2
Fore
SplineSet
-18 1553 m 257
 -18 1494 l 257
 1024 1494 l 257
 1024 1553 l 257
 -18 1553 l 257
-120 -7 m 257
 -478 -107 l 257
 -462 -165 l 257
 -102 -64 l 257
 -120 -7 l 257
-504 -116 m 257
 -268 -958 l 257
 -210 -942 l 257
 -446 -99 l 257
 -504 -116 l 257
-358 -496 m 257
 -340 -556 l 257
 32 -451 l 257
 16 -391 l 257
 -358 -496 l 257
-240 -888 m 257
 -228 -947 l 257
 150 -841 l 257
 138 -782 l 257
 -240 -888 l 257
EndSplineSet
EndChar

StartChar: uni0945
Encoding: 2373 2373 607
GlifName: uni0945
Width: 1024
VWidth: 0
Flags: W
LayerCount: 2
Fore
SplineSet
-11 1553 m 257
 -11 1493 l 257
 1024 1493 l 257
 1024 1553 l 257
 -11 1553 l 257
-388 2109 m 257
 -388 1624 l 257
 -329 1624 l 257
 -329 2109 l 257
 -388 2109 l 257
-342 1687 m 257
 -342 1626 l 257
 252 1626 l 257
 252 1687 l 257
 -342 1687 l 257
216 2117 m 257
 216 1626 l 257
 276 1626 l 257
 276 2117 l 257
 216 2117 l 257
EndSplineSet
EndChar

StartChar: uni0946
Encoding: 2374 2374 610
GlifName: uni0946
Width: 1024
VWidth: 0
Flags: W
LayerCount: 2
Fore
SplineSet
-10 1553 m 257
 -10 1493 l 257
 1024 1493 l 257
 1024 1553 l 257
 -10 1553 l 257
-452 2062 m 257
 -452 1823 l 257
 -390 1823 l 257
 -390 2062 l 257
 -452 2062 l 257
-452 1866 m 257
 -452 1809 l 257
 230 1809 l 257
 230 1866 l 257
 -452 1866 l 257
174 1858 m 257
 174 1540 l 257
 234 1540 l 257
 234 1858 l 257
 174 1858 l 257
EndSplineSet
EndChar

StartChar: uni0947
Encoding: 2375 2375 613
GlifName: uni0947
Width: 1024
VWidth: 0
Flags: W
LayerCount: 2
Fore
SplineSet
-11 1553 m 257
 -11 1493 l 257
 1024 1493 l 257
 1024 1553 l 257
 -11 1553 l 257
-218 1962 m 257
 80 1550 l 257
 184 1550 l 257
 -132 1998 l 257
 -218 1962 l 257
EndSplineSet
EndChar

StartChar: uni0948
Encoding: 2376 2376 616
GlifName: uni0948
Width: 1024
VWidth: 0
Flags: W
LayerCount: 2
Fore
SplineSet
0 1553 m 257
 0 1494 l 257
 1024 1494 l 257
 1024 1553 l 257
 0 1553 l 257
-406 1771 m 257
 40 1544 l 257
 176 1544 l 257
 -334 1867 l 257
 -406 1771 l 257
76 1991 m 257
 226 1522 l 257
 302 1550 l 257
 146 2030 l 257
 76 1991 l 257
EndSplineSet
EndChar

StartChar: uni0949
Encoding: 2377 2377 619
GlifName: uni0949
Width: 1024
VWidth: 0
Flags: W
LayerCount: 2
Fore
SplineSet
12 1550 m 257
 12 1487 l 257
 1012 1487 l 257
 1012 1550 l 257
 12 1550 l 257
476 1504 m 257
 476 0 l 257
 536 0 l 257
 536 1504 l 257
 476 1504 l 257
260 2085 m 257
 260 1639 l 257
 320 1639 l 257
 320 2085 l 257
 260 2085 l 257
266 1701 m 257
 266 1641 l 257
 756 1641 l 257
 756 1701 l 257
 266 1701 l 257
686 2083 m 257
 686 1641 l 257
 756 1641 l 257
 756 2083 l 257
 686 2083 l 257
EndSplineSet
EndChar

StartChar: uni094A
Encoding: 2378 2378 622
GlifName: uni094A_
Width: 1024
VWidth: 0
Flags: W
LayerCount: 2
Fore
SplineSet
-33 1553 m 257
 -33 1496 l 257
 1024 1496 l 257
 1024 1553 l 257
 -33 1553 l 257
351 1518 m 257
 351 0 l 257
 412 0 l 257
 412 1518 l 257
 351 1518 l 257
-283 2062 m 257
 -283 1823 l 257
 -222 1823 l 257
 -222 2062 l 257
 -283 2062 l 257
-284 1866 m 257
 -284 1809 l 257
 399 1809 l 257
 399 1866 l 257
 -284 1866 l 257
339 1863 m 257
 339 1545 l 257
 399 1545 l 257
 399 1863 l 257
 339 1863 l 257
EndSplineSet
EndChar

StartChar: uni094B
Encoding: 2379 2379 625
GlifName: uni094B_
Width: 1024
VWidth: 0
Flags: W
LayerCount: 2
Fore
SplineSet
16 1550 m 257
 16 1488 l 257
 1040 1488 l 257
 1040 1550 l 257
 16 1550 l 257
498 1509 m 257
 498 5 l 257
 558 5 l 257
 558 1509 l 257
 498 1509 l 257
-16 2053 m 257
 434 1512 l 257
 480 1550 l 257
 30 2092 l 257
 -16 2053 l 257
EndSplineSet
EndChar

StartChar: uni094C
Encoding: 2380 2380 628
GlifName: uni094C_
Width: 1024
VWidth: 0
Flags: W
LayerCount: 2
Fore
SplineSet
29 1553 m 257
 29 1494 l 257
 1041 1494 l 257
 1041 1553 l 257
 29 1553 l 257
499 1503 m 257
 499 0 l 257
 560 0 l 257
 560 1503 l 257
 499 1503 l 257
-17 1828 m 257
 359 1545 l 257
 452 1545 l 257
 71 1845 l 257
 -17 1828 l 257
380 1887 m 257
 488 1541 l 257
 564 1541 l 257
 451 1909 l 257
 380 1887 l 257
EndSplineSet
EndChar

StartChar: uni094D
Encoding: 2381 2381 631
GlifName: uni094D_
Width: 1024
VWidth: 0
Flags: W
LayerCount: 2
Fore
SplineSet
-277 -16 m 257
 -277 -77 l 257
 67 -77 l 257
 67 -16 l 257
 -277 -16 l 257
38 -71 m 257
 529 -418 l 257
 559 -366 l 257
 67 -15 l 257
 38 -71 l 257
-19 1550 m 257
 -19 1489 l 257
 1026 1489 l 257
 1026 1550 l 257
 -19 1550 l 257
EndSplineSet
EndChar

StartChar: uni094E
Encoding: 2382 2382 632
GlifName: uni094E_
Width: 1024
VWidth: 0
Flags: W
LayerCount: 2
Fore
SplineSet
352 1553 m 257
 352 0 l 257
 412 0 l 257
 412 1553 l 257
 352 1553 l 257
370 1553 m 257
 370 1495 l 257
 672 1495 l 257
 672 1553 l 257
 370 1553 l 257
EndSplineSet
EndChar

StartChar: uni094F
Encoding: 2383 2383 633
GlifName: uni094F_
Width: 1024
VWidth: 0
Flags: W
LayerCount: 2
Fore
SplineSet
-33 1553 m 257
 -33 1496 l 257
 1024 1496 l 257
 1024 1553 l 257
 -33 1553 l 257
351 1518 m 257
 351 0 l 257
 412 0 l 257
 412 1518 l 257
 351 1518 l 257
-283 2062 m 257
 -283 1823 l 257
 -222 1823 l 257
 -222 2062 l 257
 -283 2062 l 257
-284 1866 m 257
 -284 1809 l 257
 399 1809 l 257
 399 1866 l 257
 -284 1866 l 257
339 1863 m 257
 339 1545 l 257
 399 1545 l 257
 399 1863 l 257
 339 1863 l 257
187 2323 m 257
 135 2064 l 257
 173 2058 l 257
 233 2313 l 257
 187 2323 l 257
147 2121 m 257
 134 2066 l 257
 776 1922 l 257
 811 1961 l 257
 147 2121 l 257
752 1972 m 257
 419 1550 l 257
 478 1550 l 257
 811 1966 l 257
 752 1972 l 257
EndSplineSet
EndChar

StartChar: uni0950
Encoding: 2384 2384 634
GlifName: uni0950
Width: 1024
VWidth: 0
Flags: W
LayerCount: 2
Fore
SplineSet
801 894 m 257
 801 510 l 257
 862 510 l 257
 862 894 l 257
 801 894 l 257
50 1550 m 257
 50 1487 l 257
 428 1487 l 257
 428 1550 l 257
 50 1550 l 257
407 1550 m 257
 407 36 l 257
 468 36 l 257
 468 1550 l 257
 407 1550 l 257
134 894 m 257
 134 834 l 257
 831 834 l 257
 831 894 l 257
 134 894 l 257
25 62 m 257
 25 0 l 257
 466 0 l 257
 466 62 l 257
 25 62 l 257
532 1415 m 257
 532 986 l 257
 562 986 l 257
 562 1415 l 257
 532 1415 l 257
552 1016 m 257
 552 985 l 257
 943 985 l 257
 943 1016 l 257
 552 1016 l 257
926 1420 m 257
 926 985 l 257
 956 985 l 257
 956 1420 l 257
 926 1420 l 257
699 1269 m 257
 699 1188 l 257
 804 1188 l 257
 804 1269 l 257
 699 1269 l 257
EndSplineSet
EndChar

StartChar: uni0951
Encoding: 2385 2385 635
GlifName: uni0951
Width: 1024
VWidth: 0
Flags: W
LayerCount: 2
Fore
SplineSet
482 1968 m 257
 482 1614 l 257
 542 1614 l 257
 542 1968 l 257
 482 1968 l 257
EndSplineSet
EndChar

StartChar: uni0952
Encoding: 2386 2386 636
GlifName: uni0952
Width: 1024
VWidth: 0
Flags: W
LayerCount: 2
Fore
SplineSet
98 -225 m 257
 98 -285 l 257
 926 -285 l 257
 926 -225 l 257
 98 -225 l 257
EndSplineSet
EndChar

StartChar: uni0953
Encoding: 2387 2387 637
GlifName: uni0953
Width: 1024
VWidth: 0
Flags: W
LayerCount: 2
Fore
SplineSet
356 1789 m 257
 624 1339 l 257
 668 1339 l 257
 446 1834 l 257
 356 1789 l 257
EndSplineSet
EndChar

StartChar: uni0954
Encoding: 2388 2388 638
GlifName: uni0954
Width: 1024
VWidth: 0
Flags: W
LayerCount: 2
Fore
SplineSet
537 1894 m 257
 383 1385 l 257
 428 1392 l 257
 641 1877 l 257
 537 1894 l 257
EndSplineSet
EndChar

StartChar: uni0955
Encoding: 2389 2389 639
GlifName: uni0955
Width: 1024
VWidth: 0
Flags: W
LayerCount: 2
Fore
SplineSet
0 1553 m 257
 0 1493 l 257
 1014 1493 l 257
 1014 1553 l 257
 0 1553 l 257
-148 2182 m 257
 -148 1697 l 257
 -88 1697 l 257
 -88 2182 l 257
 -148 2182 l 257
-102 1760 m 257
 -102 1699 l 257
 492 1699 l 257
 492 1760 l 257
 -102 1760 l 257
456 2190 m 257
 456 1699 l 257
 516 1699 l 257
 516 2190 l 257
 456 2190 l 257
-240 1648 m 257
 -240 1588 l 257
 588 1588 l 257
 588 1648 l 257
 -240 1648 l 257
EndSplineSet
EndChar

StartChar: uni0956
Encoding: 2390 2390 640
GlifName: uni0956
Width: 1024
VWidth: 0
Flags: W
LayerCount: 2
Fore
SplineSet
-11 1553 m 257
 -11 1493 l 257
 1024 1493 l 257
 1024 1553 l 257
 -11 1553 l 257
-622 0 m 257
 -622 -391 l 257
 -552 -391 l 257
 -552 0 l 257
 -622 0 l 257
-576 -330 m 257
 -576 -390 l 257
 18 -390 l 257
 18 -330 l 257
 -576 -330 l 257
-17 0 m 257
 -17 -391 l 257
 42 -391 l 257
 42 0 l 257
 -17 0 l 257
EndSplineSet
EndChar

StartChar: uni0957
Encoding: 2391 2391 641
GlifName: uni0957
Width: 1024
VWidth: 0
Flags: W
LayerCount: 2
Fore
SplineSet
-11 1553 m 257
 -11 1493 l 257
 1024 1493 l 257
 1024 1553 l 257
 -11 1553 l 257
-622 0 m 257
 -622 -236 l 257
 -552 -236 l 257
 -552 0 l 257
 -622 0 l 257
-576 -175 m 257
 -576 -235 l 257
 18 -235 l 257
 18 -175 l 257
 -576 -175 l 257
-17 0 m 257
 -17 -236 l 257
 42 -236 l 257
 42 0 l 257
 -17 0 l 257
-622 -394 m 257
 -622 -639 l 257
 -552 -639 l 257
 -552 -394 l 257
 -622 -394 l 257
-576 -578 m 257
 -576 -638 l 257
 18 -638 l 257
 18 -578 l 257
 -576 -578 l 257
-17 -394 m 257
 -17 -641 l 257
 42 -641 l 257
 42 -394 l 257
 -17 -394 l 257
EndSplineSet
EndChar

StartChar: uni0958
Encoding: 2392 2392 642
GlifName: uni0958
Width: 1024
VWidth: 0
Flags: W
LayerCount: 2
Fore
SplineSet
0 1553 m 257
 0 1492 l 257
 1026 1492 l 257
 1026 1553 l 257
 0 1553 l 257
600 1509 m 257
 600 0 l 257
 660 0 l 257
 660 1509 l 257
 600 1509 l 257
183 1069 m 257
 183 1008 l 257
 533 1008 l 257
 533 1069 l 257
 183 1069 l 257
172 1068 m 257
 172 510 l 257
 232 510 l 257
 232 1068 l 257
 172 1068 l 257
187 572 m 257
 187 511 l 257
 647 511 l 257
 647 572 l 257
 187 572 l 257
625 999 m 257
 625 938 l 257
 890 938 l 257
 890 999 l 257
 625 999 l 257
840 1000 m 257
 840 779 l 257
 902 779 l 257
 902 1000 l 257
 840 1000 l 257
454 -76 m 257
 454 -190 l 257
 598 -190 l 257
 598 -76 l 257
 454 -76 l 257
EndSplineSet
EndChar

StartChar: uni0958_uni0930_uni094D.vatu
Encoding: 65689 -1 643
GlifName: uni0958_uni0930_uni094D_.vatu
Width: 1024
VWidth: 0
Flags: W
LayerCount: 2
Fore
SplineSet
227 366 m 257
 227 252 l 257
 370 252 l 257
 370 366 l 257
 227 366 l 257
8 0 m 257
 128 0 l 257
 605 215 l 257
 605 285 l 257
 8 0 l 257
0 1553 m 257
 0 1492 l 257
 1024 1492 l 257
 1024 1553 l 257
 0 1553 l 257
598 1509 m 257
 598 0 l 257
 658 0 l 257
 658 1509 l 257
 598 1509 l 257
181 1069 m 257
 181 1008 l 257
 536 1008 l 257
 536 1069 l 257
 181 1069 l 257
170 1068 m 257
 170 510 l 257
 230 510 l 257
 230 1068 l 257
 170 1068 l 257
185 572 m 257
 185 511 l 257
 645 511 l 257
 645 572 l 257
 185 572 l 257
623 999 m 257
 623 938 l 257
 888 938 l 257
 888 999 l 257
 623 999 l 257
838 1000 m 257
 838 779 l 257
 900 779 l 257
 900 1000 l 257
 838 1000 l 257
EndSplineSet
EndChar

StartChar: uni0958_uni094D.half
Encoding: 65690 -1 644
GlifName: uni0958_uni094D_.half
Width: 1024
VWidth: 0
Flags: W
LayerCount: 2
Fore
SplineSet
0 1553 m 257
 0 1492 l 257
 1026 1492 l 257
 1026 1553 l 257
 0 1553 l 257
600 1509 m 257
 600 0 l 257
 660 0 l 257
 660 1509 l 257
 600 1509 l 257
183 1069 m 257
 183 1008 l 257
 524 1008 l 257
 524 1069 l 257
 183 1069 l 257
172 1068 m 257
 172 510 l 257
 232 510 l 257
 232 1068 l 257
 172 1068 l 257
187 572 m 257
 187 511 l 257
 647 511 l 257
 647 572 l 257
 187 572 l 257
625 999 m 257
 625 938 l 257
 1054 938 l 257
 1054 999 l 257
 625 999 l 257
454 -76 m 257
 454 -190 l 257
 598 -190 l 257
 598 -76 l 257
 454 -76 l 257
EndSplineSet
EndChar

StartChar: uni0959
Encoding: 2393 2393 646
GlifName: uni0959
Width: 1024
VWidth: 0
Flags: W
LayerCount: 2
Fore
SplineSet
5 1553 m 257
 5 1496 l 257
 1032 1496 l 257
 1032 1553 l 257
 5 1553 l 257
839 1514 m 257
 839 0 l 257
 900 0 l 257
 900 1514 l 257
 839 1514 l 257
420 979 m 257
 420 919 l 257
 682 919 l 257
 682 979 l 257
 420 979 l 257
390 979 m 257
 390 414 l 257
 451 414 l 257
 451 979 l 257
 390 979 l 257
390 429 m 257
 390 368 l 257
 855 368 l 257
 855 429 l 257
 390 429 l 257
193 1510 m 257
 193 120 l 257
 254 120 l 257
 254 1510 l 257
 193 1510 l 257
22 714 m 257
 22 654 l 257
 253 654 l 257
 253 714 l 257
 22 714 l 257
193 130 m 257
 193 70 l 257
 837 70 l 257
 837 130 l 257
 193 130 l 257
447 -76 m 257
 447 -190 l 257
 590 -190 l 257
 590 -76 l 257
 447 -76 l 257
EndSplineSet
EndChar

StartChar: uni0959_uni0930_uni094D.vatu
Encoding: 65692 -1 647
GlifName: uni0959_uni0930_uni094D_.vatu
Width: 1024
VWidth: 0
Flags: W
LayerCount: 2
Fore
SplineSet
243 278 m 257
 243 164 l 257
 386 164 l 257
 386 278 l 257
 243 278 l 257
239 0 m 257
 359 0 l 257
 836 215 l 257
 836 285 l 257
 239 0 l 257
0 1553 m 257
 0 1496 l 257
 1026 1496 l 257
 1026 1553 l 257
 0 1553 l 257
832 1514 m 257
 832 0 l 257
 894 0 l 257
 894 1514 l 257
 832 1514 l 257
414 1279 m 257
 414 1219 l 257
 676 1219 l 257
 676 1279 l 257
 414 1279 l 257
384 1279 m 257
 384 714 l 257
 444 714 l 257
 444 1279 l 257
 384 1279 l 257
384 729 m 257
 384 668 l 257
 848 668 l 257
 848 729 l 257
 384 729 l 257
186 1510 m 257
 186 420 l 257
 248 420 l 257
 248 1510 l 257
 186 1510 l 257
16 1014 m 257
 16 954 l 257
 246 954 l 257
 246 1014 l 257
 16 1014 l 257
186 430 m 257
 186 370 l 257
 830 370 l 257
 830 430 l 257
 186 430 l 257
EndSplineSet
EndChar

StartChar: uni0959_uni094D.half
Encoding: 65693 -1 648
GlifName: uni0959_uni094D_.half
Width: 1024
VWidth: 0
Flags: W
LayerCount: 2
Fore
SplineSet
5 1553 m 257
 5 1496 l 257
 1232 1496 l 257
 1232 1553 l 257
 5 1553 l 257
620 979 m 257
 620 919 l 257
 882 919 l 257
 882 979 l 257
 620 979 l 257
590 979 m 257
 590 414 l 257
 651 414 l 257
 651 979 l 257
 590 979 l 257
590 429 m 257
 590 368 l 257
 1055 368 l 257
 1055 429 l 257
 590 429 l 257
393 1510 m 257
 393 120 l 257
 454 120 l 257
 454 1510 l 257
 393 1510 l 257
22 714 m 257
 22 654 l 257
 453 654 l 257
 453 714 l 257
 22 714 l 257
393 130 m 257
 393 70 l 257
 1037 70 l 257
 1037 130 l 257
 393 130 l 257
647 -76 m 257
 647 -190 l 257
 790 -190 l 257
 790 -76 l 257
 647 -76 l 257
EndSplineSet
EndChar

StartChar: uni095A
Encoding: 2394 2394 650
GlifName: uni095A_
Width: 1024
VWidth: 0
Flags: W
LayerCount: 2
Fore
SplineSet
12 853 m 257
 82 853 l 257
 82 1044 l 257
 12 1044 l 257
 12 853 l 257
12 882 m 257
 12 812 l 257
 359 812 l 257
 359 882 l 257
 12 882 l 257
289 1553 m 257
 289 812 l 257
 359 812 l 257
 359 1553 l 257
 289 1553 l 257
922 1553 m 257
 171 1553 l 257
 171 1496 l 257
 922 1496 l 257
 922 1553 l 257
771 1523 m 257
 771 0 l 257
 841 0 l 257
 841 1523 l 257
 771 1523 l 257
436 -24 m 257
 436 -138 l 257
 578 -138 l 257
 578 -24 l 257
 436 -24 l 257
EndSplineSet
EndChar

StartChar: uni095A_uni0930_uni094D.vatu
Encoding: 65695 -1 651
GlifName: uni095A__uni0930_uni094D_.vatu
Width: 1024
VWidth: 0
Flags: W
LayerCount: 2
Fore
SplineSet
275 458 m 257
 275 344 l 257
 418 344 l 257
 418 458 l 257
 275 458 l 257
238 0 m 257
 358 0 l 257
 835 215 l 257
 835 285 l 257
 238 0 l 257
57 853 m 257
 127 853 l 257
 127 1044 l 257
 57 1044 l 257
 57 853 l 257
57 882 m 257
 57 812 l 257
 404 812 l 257
 404 882 l 257
 57 882 l 257
334 1553 m 257
 334 812 l 257
 404 812 l 257
 404 1553 l 257
 334 1553 l 257
967 1553 m 257
 216 1553 l 257
 216 1496 l 257
 967 1496 l 257
 967 1553 l 257
816 1523 m 257
 816 0 l 257
 886 0 l 257
 886 1523 l 257
 816 1523 l 257
EndSplineSet
EndChar

StartChar: uni095A_uni094D.half
Encoding: 65696 -1 652
GlifName: uni095A__uni094D_.half
Width: 1024
VWidth: 0
Flags: W
LayerCount: 2
Fore
SplineSet
12 853 m 257
 82 853 l 257
 82 1044 l 257
 12 1044 l 257
 12 853 l 257
12 882 m 257
 12 812 l 257
 359 812 l 257
 359 882 l 257
 12 882 l 257
289 1553 m 257
 289 812 l 257
 359 812 l 257
 359 1553 l 257
 289 1553 l 257
1026 1553 m 257
 171 1553 l 257
 171 1496 l 257
 1026 1496 l 257
 1026 1553 l 257
436 -24 m 257
 436 -138 l 257
 578 -138 l 257
 578 -24 l 257
 436 -24 l 257
EndSplineSet
EndChar

StartChar: uni095B
Encoding: 2395 2395 654
GlifName: uni095B_
Width: 1024
VWidth: 0
Flags: W
LayerCount: 2
Fore
SplineSet
0 1550 m 257
 0 1492 l 257
 1058 1492 l 257
 1058 1550 l 257
 0 1550 l 257
850 1550 m 257
 850 -12 l 257
 911 -12 l 257
 911 1550 l 257
 850 1550 l 257
535 860 m 257
 535 801 l 257
 871 801 l 257
 871 860 l 257
 535 860 l 257
525 860 m 257
 525 512 l 257
 585 512 l 257
 585 860 l 257
 525 860 l 257
75 567 m 257
 75 508 l 257
 585 508 l 257
 585 567 l 257
 75 567 l 257
75 727 m 257
 75 509 l 257
 135 509 l 257
 135 727 l 257
 75 727 l 257
502 -100 m 257
 502 -214 l 257
 644 -214 l 257
 644 -100 l 257
 502 -100 l 257
EndSplineSet
EndChar

StartChar: uni095B_uni0930_uni094D.vatu
Encoding: 65698 -1 655
GlifName: uni095B__uni0930_uni094D_.vatu
Width: 1024
VWidth: 0
Flags: W
LayerCount: 2
Fore
SplineSet
199 378 m 257
 199 264 l 257
 342 264 l 257
 342 378 l 257
 199 378 l 257
208 0 m 257
 328 0 l 257
 852 215 l 257
 852 285 l 257
 208 0 l 257
-17 1550 m 257
 -17 1492 l 257
 1041 1492 l 257
 1041 1550 l 257
 -17 1550 l 257
833 1550 m 257
 833 -12 l 257
 894 -12 l 257
 894 1550 l 257
 833 1550 l 257
518 860 m 257
 518 801 l 257
 854 801 l 257
 854 860 l 257
 518 860 l 257
508 860 m 257
 508 512 l 257
 568 512 l 257
 568 860 l 257
 508 860 l 257
58 567 m 257
 58 508 l 257
 568 508 l 257
 568 567 l 257
 58 567 l 257
58 727 m 257
 58 509 l 257
 118 509 l 257
 118 727 l 257
 58 727 l 257
EndSplineSet
EndChar

StartChar: uni095B_uni094D.half
Encoding: 65699 -1 656
GlifName: uni095B__uni094D_.half
Width: 1024
VWidth: 0
Flags: W
LayerCount: 2
Fore
SplineSet
0 1550 m 257
 0 1492 l 257
 1058 1492 l 257
 1058 1550 l 257
 0 1550 l 257
535 860 m 257
 535 801 l 257
 1079 801 l 257
 1079 860 l 257
 535 860 l 257
525 860 m 257
 525 512 l 257
 585 512 l 257
 585 860 l 257
 525 860 l 257
75 567 m 257
 75 508 l 257
 585 508 l 257
 585 567 l 257
 75 567 l 257
75 727 m 257
 75 509 l 257
 135 509 l 257
 135 727 l 257
 75 727 l 257
502 -100 m 257
 502 -214 l 257
 644 -214 l 257
 644 -100 l 257
 502 -100 l 257
EndSplineSet
EndChar

StartChar: uni095C
Encoding: 2396 2396 658
GlifName: uni095C_
Width: 1024
VWidth: 0
Flags: W
LayerCount: 2
Fore
SplineSet
0 1548 m 257
 0 1488 l 257
 1026 1488 l 257
 1026 1548 l 257
 0 1548 l 257
384 1091 m 257
 384 579 l 257
 444 579 l 257
 444 1091 l 257
 384 1091 l 257
384 597 m 257
 384 538 l 257
 927 538 l 257
 927 597 l 257
 384 597 l 257
867 554 m 257
 867 5 l 257
 927 5 l 257
 927 554 l 257
 867 554 l 257
62 60 m 257
 62 0 l 257
 927 0 l 257
 927 60 l 257
 62 60 l 257
62 331 m 257
 62 5 l 257
 123 5 l 257
 123 331 l 257
 62 331 l 257
384 1134 m 257
 384 1074 l 257
 927 1074 l 257
 927 1134 l 257
 384 1134 l 257
865 1503 m 257
 865 1098 l 257
 927 1098 l 257
 927 1503 l 257
 865 1503 l 257
440 -80 m 257
 440 -194 l 257
 584 -194 l 257
 584 -80 l 257
 440 -80 l 257
EndSplineSet
EndChar

StartChar: uni095C_uni0930_uni094D.vatu
Encoding: 65701 -1 659
GlifName: uni095C__uni0930_uni094D_.vatu
Width: 1024
VWidth: 0
Flags: W
LayerCount: 2
Fore
SplineSet
111 121 m 257
 111 7 l 257
 255 7 l 257
 255 121 l 257
 111 121 l 257
463 136 m 257
 646 -162 l 257
 714 -142 l 257
 507 191 l 257
 463 136 l 257
507 191 m 257
 247 -131 l 257
 315 -152 l 257
 537 143 l 257
 507 191 l 257
0 1548 m 257
 0 1488 l 257
 1026 1488 l 257
 1026 1548 l 257
 0 1548 l 257
384 1091 m 257
 384 799 l 257
 444 799 l 257
 444 1091 l 257
 384 1091 l 257
384 817 m 257
 384 758 l 257
 927 758 l 257
 927 817 l 257
 384 817 l 257
867 774 m 257
 867 225 l 257
 927 225 l 257
 927 774 l 257
 867 774 l 257
62 280 m 257
 62 220 l 257
 927 220 l 257
 927 280 l 257
 62 280 l 257
62 551 m 257
 62 225 l 257
 123 225 l 257
 123 551 l 257
 62 551 l 257
384 1134 m 257
 384 1074 l 257
 927 1074 l 257
 927 1134 l 257
 384 1134 l 257
865 1503 m 257
 865 1098 l 257
 927 1098 l 257
 927 1503 l 257
 865 1503 l 257
EndSplineSet
EndChar

StartChar: uni095D
Encoding: 2397 2397 661
GlifName: uni095D_
Width: 1024
VWidth: 0
Flags: W
LayerCount: 2
Fore
SplineSet
0 1550 m 257
 0 1488 l 257
 1024 1488 l 257
 1024 1550 l 257
 0 1550 l 257
687 1528 m 257
 687 988 l 257
 769 988 l 257
 769 1528 l 257
 687 1528 l 257
769 1023 m 257
 120 1023 l 257
 120 962 l 257
 769 962 l 257
 769 1023 l 257
99 1023 m 257
 99 5 l 257
 159 5 l 257
 159 1023 l 257
 99 1023 l 257
99 60 m 257
 99 0 l 257
 812 0 l 257
 812 60 l 257
 99 60 l 257
754 544 m 257
 754 0 l 257
 814 0 l 257
 814 544 l 257
 754 544 l 257
684 547 m 257
 684 487 l 257
 812 487 l 257
 812 547 l 257
 684 547 l 257
440 -148 m 257
 440 -262 l 257
 584 -262 l 257
 584 -148 l 257
 440 -148 l 257
EndSplineSet
EndChar

StartChar: uni095D_uni0930_uni094D.vatu
Encoding: 65703 -1 662
GlifName: uni095D__uni0930_uni094D_.vatu
Width: 1024
VWidth: 0
Flags: W
LayerCount: 2
Fore
SplineSet
199 258 m 257
 199 144 l 257
 342 144 l 257
 342 258 l 257
 199 258 l 257
444 220 m 257
 627 -119 l 257
 695 -119 l 257
 488 287 l 257
 444 220 l 257
488 287 m 257
 228 -106 l 257
 296 -106 l 257
 518 228 l 257
 488 287 l 257
0 1550 m 257
 0 1488 l 257
 1024 1488 l 257
 1024 1550 l 257
 0 1550 l 257
687 1528 m 257
 687 988 l 257
 769 988 l 257
 769 1528 l 257
 687 1528 l 257
769 1023 m 257
 120 1023 l 257
 120 962 l 257
 769 962 l 257
 769 1023 l 257
99 1023 m 257
 99 305 l 257
 159 305 l 257
 159 1023 l 257
 99 1023 l 257
99 360 m 257
 99 300 l 257
 812 300 l 257
 812 360 l 257
 99 360 l 257
754 844 m 257
 754 298 l 257
 814 298 l 257
 814 844 l 257
 754 844 l 257
684 847 m 257
 684 787 l 257
 812 787 l 257
 812 847 l 257
 684 847 l 257
EndSplineSet
EndChar

StartChar: uni095E
Encoding: 2398 2398 664
GlifName: uni095E_
Width: 1024
VWidth: 0
Flags: W
LayerCount: 2
Fore
SplineSet
-7 1550 m 257
 -7 1491 l 257
 1023 1491 l 257
 1023 1550 l 257
 -7 1550 l 257
645 1539 m 257
 645 0 l 257
 705 0 l 257
 705 1539 l 257
 645 1539 l 257
86 1550 m 257
 86 965 l 257
 146 965 l 257
 146 1550 l 257
 86 1550 l 257
86 1023 m 257
 86 964 l 257
 963 964 l 257
 963 1023 l 257
 86 1023 l 257
912 1023 m 257
 912 686 l 257
 972 686 l 257
 972 1023 l 257
 912 1023 l 257
388 0 m 257
 388 -114 l 257
 532 -114 l 257
 532 0 l 257
 388 0 l 257
EndSplineSet
EndChar

StartChar: uni095E_uni0930_uni094D.vatu
Encoding: 65705 -1 665
GlifName: uni095E__uni0930_uni094D_.vatu
Width: 1024
VWidth: 0
Flags: W
LayerCount: 2
Fore
SplineSet
226 432 m 257
 226 318 l 257
 369 318 l 257
 369 432 l 257
 226 432 l 257
115 0 m 257
 235 0 l 257
 712 215 l 257
 712 285 l 257
 115 0 l 257
0 1550 m 257
 0 1491 l 257
 1027 1491 l 257
 1027 1550 l 257
 0 1550 l 257
649 1539 m 257
 649 0 l 257
 709 0 l 257
 709 1539 l 257
 649 1539 l 257
90 1550 m 257
 90 965 l 257
 150 965 l 257
 150 1550 l 257
 90 1550 l 257
90 1023 m 257
 90 964 l 257
 967 964 l 257
 967 1023 l 257
 90 1023 l 257
916 1023 m 257
 916 686 l 257
 976 686 l 257
 976 1023 l 257
 916 1023 l 257
EndSplineSet
EndChar

StartChar: uni095E_uni094D.half
Encoding: 65706 -1 666
GlifName: uni095E__uni094D_.half
Width: 1024
VWidth: 0
Flags: W
LayerCount: 2
Fore
SplineSet
-7 1550 m 257
 -7 1491 l 257
 1023 1491 l 257
 1023 1550 l 257
 -7 1550 l 257
645 1539 m 257
 645 0 l 257
 705 0 l 257
 705 1539 l 257
 645 1539 l 257
86 1550 m 257
 86 965 l 257
 146 965 l 257
 146 1550 l 257
 86 1550 l 257
86 1023 m 257
 86 964 l 257
 1063 964 l 257
 1063 1023 l 257
 86 1023 l 257
388 0 m 257
 388 -114 l 257
 532 -114 l 257
 532 0 l 257
 388 0 l 257
EndSplineSet
EndChar

StartChar: uni095F
Encoding: 2399 2399 668
GlifName: uni095F_
Width: 1024
VWidth: 0
Flags: W
LayerCount: 2
Fore
SplineSet
0 1550 m 257
 0 1489 l 257
 1042 1489 l 257
 1042 1550 l 257
 0 1550 l 257
848 1531 m 257
 848 0 l 257
 908 0 l 257
 908 1531 l 257
 848 1531 l 257
144 1490 m 257
 336 846 l 257
 394 846 l 257
 197 1542 l 257
 144 1490 l 257
336 846 m 257
 147 472 l 257
 207 450 l 257
 394 846 l 257
 336 846 l 257
178 524 m 257
 147 472 l 257
 850 199 l 257
 873 256 l 257
 178 524 l 257
390 100 m 257
 390 -14 l 257
 533 -14 l 257
 533 100 l 257
 390 100 l 257
EndSplineSet
EndChar

StartChar: uni095F_uni0930_uni094D.vatu
Encoding: 65708 -1 669
GlifName: uni095F__uni0930_uni094D_.vatu
Width: 1024
VWidth: 0
Flags: W
LayerCount: 2
Fore
SplineSet
199 342 m 257
 199 228 l 257
 342 228 l 257
 342 342 l 257
 199 342 l 257
208 0 m 257
 328 0 l 257
 805 215 l 257
 805 285 l 257
 208 0 l 257
-8 1550 m 257
 -8 1489 l 257
 1032 1489 l 257
 1032 1550 l 257
 -8 1550 l 257
838 1531 m 257
 838 0 l 257
 898 0 l 257
 898 1531 l 257
 838 1531 l 257
134 1490 m 257
 326 846 l 257
 384 846 l 257
 188 1542 l 257
 134 1490 l 257
326 846 m 257
 138 472 l 257
 198 450 l 257
 384 846 l 257
 326 846 l 257
168 524 m 257
 138 472 l 257
 840 199 l 257
 864 256 l 257
 168 524 l 257
EndSplineSet
EndChar

StartChar: uni095F_uni094D.half
Encoding: 65709 -1 670
GlifName: uni095F__uni094D_.half
Width: 1024
VWidth: 0
Flags: W
LayerCount: 2
Fore
SplineSet
223 -16 m 257
 223 -77 l 257
 567 -77 l 257
 567 -16 l 257
 223 -16 l 257
538 -71 m 257
 848 -418 l 257
 878 -366 l 257
 567 -15 l 257
 538 -71 l 257
0 1550 m 257
 0 1489 l 257
 1042 1489 l 257
 1042 1550 l 257
 0 1550 l 257
848 1531 m 257
 848 0 l 257
 908 0 l 257
 908 1531 l 257
 848 1531 l 257
144 1490 m 257
 336 846 l 257
 394 846 l 257
 197 1542 l 257
 144 1490 l 257
336 846 m 257
 147 472 l 257
 207 450 l 257
 394 846 l 257
 336 846 l 257
178 524 m 257
 147 472 l 257
 850 199 l 257
 873 256 l 257
 178 524 l 257
390 259 m 257
 390 145 l 257
 533 145 l 257
 533 259 l 257
 390 259 l 257
EndSplineSet
EndChar

StartChar: uni0960
Encoding: 2400 2400 672
GlifName: uni0960
Width: 1024
VWidth: 0
Flags: W
LayerCount: 2
Fore
SplineSet
0 1550 m 257
 0 1492 l 257
 1017 1492 l 257
 1017 1550 l 257
 0 1550 l 257
508 1533 m 257
 508 0 l 257
 569 0 l 257
 569 1533 l 257
 508 1533 l 257
18 1043 m 257
 18 983 l 257
 321 983 l 257
 321 1043 l 257
 18 1043 l 257
529 471 m 257
 82 422 l 257
 167 376 l 257
 564 417 l 257
 529 471 l 257
321 1043 m 257
 321 983 l 257
 555 902 l 257
 555 958 l 257
 321 1043 l 257
555 897 m 257
 555 837 l 257
 896 837 l 257
 896 897 l 257
 555 897 l 257
854 897 m 257
 854 265 l 257
 915 265 l 257
 915 897 l 257
 854 897 l 257
854 324 m 257
 854 264 l 257
 1024 264 l 257
 1024 324 l 257
 854 324 l 257
854 525 m 257
 854 465 l 257
 1024 465 l 257
 1024 525 l 257
 854 525 l 257
EndSplineSet
EndChar

StartChar: uni0961
Encoding: 2401 2401 673
GlifName: uni0961
Width: 1024
VWidth: 0
Flags: W
LayerCount: 2
Fore
SplineSet
-8 1550 m 257
 -8 1491 l 257
 1032 1491 l 257
 1032 1550 l 257
 -8 1550 l 257
706 1550 m 257
 706 759 l 257
 766 759 l 257
 766 1550 l 257
 706 1550 l 257
964 791 m 257
 48 791 l 257
 48 731 l 257
 964 731 l 257
 964 791 l 257
50 777 m 257
 50 252 l 257
 110 252 l 257
 110 777 l 257
 50 777 l 257
472 791 m 257
 472 433 l 257
 532 433 l 257
 532 791 l 257
 472 791 l 257
894 792 m 257
 894 73 l 257
 954 73 l 257
 954 792 l 257
 894 792 l 257
924 134 m 257
 924 73 l 257
 1016 73 l 257
 1016 134 l 257
 924 134 l 257
924 430 m 257
 924 369 l 257
 1016 369 l 257
 1016 430 l 257
 924 430 l 257
EndSplineSet
EndChar

